<svg xmlns="http://www.w3.org/2000/svg" xmlns:xlink="http://www.w3.org/1999/xlink" width="500" zoomAndPan="magnify" viewBox="0 0 375 225" height="300" preserveAspectRatio="xMidYMid meet" version="1.0"><defs><g/><clipPath id="ca724c5965"><path d="M 73.550781 132.957031 L 286.484375 132.957031 L 286.484375 184.527344 L 73.550781 184.527344 Z M 73.550781 132.957031 " clip-rule="nonzero"/></clipPath><clipPath id="5dfe0425a1"><path d="M 98.730469 184.527344 L 263.996094 184.527344 C 276.417969 184.527344 286.484375 174.691406 286.484375 165.316406 C 286.484375 158.835938 281.207031 151.261719 273.582031 147.746094 L 273.582031 132.957031 L 258.308594 145.652344 L 98.730469 145.652344 C 83.785156 145.652344 73.71875 155.488281 73.71875 165.316406 C 73.71875 174.691406 83.785156 184.527344 98.730469 184.527344 Z M 98.730469 184.527344 " clip-rule="nonzero"/></clipPath></defs><g clip-path="url(#ca724c5965)"><g clip-path="url(#5dfe0425a1)"><path fill="#fdd6c0" d="M 286.484375 184.527344 L 73.75 184.527344 L 73.75 132.957031 L 286.484375 132.957031 Z M 286.484375 184.527344 " fill-opacity="1" fill-rule="nonzero"/></g></g><g fill="#ed5d88" fill-opacity="1"><g transform="translate(45.986321, 80.318438)"><g><path d="M 1.5 -9.828125 C 1.96875 -9.804688 2.382812 -9.789062 2.75 -9.78125 C 3.113281 -9.769531 3.445312 -9.765625 3.75 -9.765625 C 4.082031 -9.765625 4.40625 -9.769531 4.71875 -9.78125 C 5.03125 -9.800781 5.347656 -9.816406 5.671875 -9.828125 L 5.609375 -9.40625 C 5.378906 -9.40625 5.191406 -9.390625 5.046875 -9.359375 C 4.910156 -9.328125 4.800781 -9.28125 4.71875 -9.21875 C 4.632812 -9.164062 4.570312 -9.085938 4.53125 -8.984375 C 4.488281 -8.878906 4.453125 -8.753906 4.421875 -8.609375 L 3.765625 -5.09375 L 3.828125 -5.09375 C 4.035156 -5.09375 4.257812 -5.175781 4.5 -5.34375 C 4.738281 -5.519531 4.976562 -5.734375 5.21875 -5.984375 L 6.75 -7.5 C 7.195312 -7.945312 7.519531 -8.289062 7.71875 -8.53125 C 7.914062 -8.769531 8.015625 -8.941406 8.015625 -9.046875 C 8.015625 -9.179688 7.941406 -9.273438 7.796875 -9.328125 C 7.648438 -9.378906 7.445312 -9.40625 7.1875 -9.40625 L 7.046875 -9.40625 L 7.109375 -9.828125 C 7.191406 -9.828125 7.304688 -9.820312 7.453125 -9.8125 C 7.597656 -9.8125 7.753906 -9.804688 7.921875 -9.796875 C 8.085938 -9.785156 8.257812 -9.773438 8.4375 -9.765625 C 8.625 -9.765625 8.789062 -9.765625 8.9375 -9.765625 C 9.21875 -9.765625 9.492188 -9.769531 9.765625 -9.78125 C 10.035156 -9.800781 10.300781 -9.816406 10.5625 -9.828125 L 10.484375 -9.40625 C 10.273438 -9.40625 10.097656 -9.394531 9.953125 -9.375 C 9.804688 -9.351562 9.671875 -9.3125 9.546875 -9.25 C 9.421875 -9.195312 9.289062 -9.117188 9.15625 -9.015625 C 9.03125 -8.910156 8.875 -8.765625 8.6875 -8.578125 L 5.375 -5.3125 L 7.65625 -1.890625 C 7.988281 -1.390625 8.289062 -1.019531 8.5625 -0.78125 C 8.832031 -0.539062 9.132812 -0.421875 9.46875 -0.421875 L 9.6875 -0.421875 L 9.625 0 C 9.414062 -0.0078125 9.203125 -0.0195312 8.984375 -0.03125 C 8.765625 -0.0507812 8.5625 -0.0625 8.375 -0.0625 C 8.144531 -0.0625 7.929688 -0.0507812 7.734375 -0.03125 C 7.546875 -0.0078125 7.382812 0 7.25 0 C 7.113281 0 6.992188 -0.0546875 6.890625 -0.171875 C 6.785156 -0.285156 6.6875 -0.40625 6.59375 -0.53125 C 6.507812 -0.65625 6.425781 -0.78125 6.34375 -0.90625 L 4 -4.34375 C 3.90625 -4.488281 3.800781 -4.5625 3.6875 -4.5625 L 3.65625 -4.5625 L 3.171875 -1.953125 C 3.117188 -1.742188 3.082031 -1.546875 3.0625 -1.359375 C 3.039062 -1.179688 3.03125 -1.039062 3.03125 -0.9375 C 3.03125 -0.738281 3.101562 -0.601562 3.25 -0.53125 C 3.394531 -0.457031 3.695312 -0.421875 4.15625 -0.421875 L 4.09375 0 C 3.625 -0.0078125 3.226562 -0.0195312 2.90625 -0.03125 C 2.59375 -0.0507812 2.285156 -0.0625 1.984375 -0.0625 C 1.847656 -0.0625 1.679688 -0.0546875 1.484375 -0.046875 C 1.296875 -0.046875 1.101562 -0.0390625 0.90625 -0.03125 C 0.707031 -0.0195312 0.515625 -0.0078125 0.328125 0 C 0.148438 0 0.00390625 0 -0.109375 0 L -0.046875 -0.421875 C 0.179688 -0.421875 0.375 -0.429688 0.53125 -0.453125 C 0.6875 -0.472656 0.8125 -0.507812 0.90625 -0.5625 C 1.007812 -0.625 1.085938 -0.71875 1.140625 -0.84375 C 1.203125 -0.96875 1.253906 -1.128906 1.296875 -1.328125 L 2.421875 -7.328125 C 2.492188 -7.742188 2.550781 -8.070312 2.59375 -8.3125 C 2.632812 -8.550781 2.65625 -8.742188 2.65625 -8.890625 C 2.65625 -9.109375 2.554688 -9.242188 2.359375 -9.296875 C 2.160156 -9.359375 1.851562 -9.394531 1.4375 -9.40625 Z M 1.5 -9.828125 "/></g></g></g><g fill="#ed5d88" fill-opacity="1"><g transform="translate(57.738826, 80.318438)"><g><path d="M 1.5 -9.828125 C 1.601562 -9.828125 1.75 -9.820312 1.9375 -9.8125 C 2.132812 -9.8125 2.34375 -9.804688 2.5625 -9.796875 C 2.78125 -9.785156 2.992188 -9.773438 3.203125 -9.765625 C 3.410156 -9.765625 3.585938 -9.765625 3.734375 -9.765625 C 4.128906 -9.765625 4.488281 -9.769531 4.8125 -9.78125 C 5.144531 -9.800781 5.472656 -9.816406 5.796875 -9.828125 L 5.734375 -9.40625 C 5.265625 -9.40625 4.941406 -9.359375 4.765625 -9.265625 C 4.597656 -9.171875 4.488281 -8.976562 4.4375 -8.6875 L 3.28125 -2.578125 C 3.21875 -2.222656 3.160156 -1.894531 3.109375 -1.59375 C 3.054688 -1.289062 3.03125 -1.070312 3.03125 -0.9375 C 3.03125 -0.851562 3.039062 -0.78125 3.0625 -0.71875 C 3.082031 -0.65625 3.132812 -0.601562 3.21875 -0.5625 C 3.300781 -0.519531 3.410156 -0.484375 3.546875 -0.453125 C 3.691406 -0.429688 3.894531 -0.421875 4.15625 -0.421875 L 4.09375 0 C 3.632812 -0.0195312 3.226562 -0.0351562 2.875 -0.046875 C 2.519531 -0.0546875 2.164062 -0.0625 1.8125 -0.0625 C 1.476562 -0.0625 1.128906 -0.0507812 0.765625 -0.03125 C 0.398438 -0.0078125 0.109375 0 -0.109375 0 L -0.046875 -0.421875 L 0.0625 -0.421875 C 0.300781 -0.421875 0.492188 -0.4375 0.640625 -0.46875 C 0.796875 -0.507812 0.914062 -0.566406 1 -0.640625 C 1.082031 -0.710938 1.144531 -0.800781 1.1875 -0.90625 C 1.226562 -1.019531 1.265625 -1.160156 1.296875 -1.328125 L 2.421875 -7.3125 C 2.472656 -7.613281 2.523438 -7.914062 2.578125 -8.21875 C 2.628906 -8.519531 2.65625 -8.742188 2.65625 -8.890625 C 2.65625 -9.109375 2.554688 -9.242188 2.359375 -9.296875 C 2.160156 -9.359375 1.851562 -9.394531 1.4375 -9.40625 Z M 1.5 -9.828125 "/></g></g></g><g fill="#ed5d88" fill-opacity="1"><g transform="translate(64.80461, 80.318438)"><g><path d="M 4.859375 -10.03125 C 5.148438 -10.03125 5.394531 -10.007812 5.59375 -9.96875 C 5.800781 -9.9375 5.972656 -9.894531 6.109375 -9.84375 C 6.253906 -9.800781 6.378906 -9.757812 6.484375 -9.71875 C 6.585938 -9.6875 6.6875 -9.671875 6.78125 -9.671875 C 6.84375 -9.671875 6.894531 -9.679688 6.9375 -9.703125 C 6.976562 -9.722656 7.007812 -9.769531 7.03125 -9.84375 L 7.359375 -9.8125 C 7.273438 -9.382812 7.195312 -8.960938 7.125 -8.546875 C 7.0625 -8.140625 7.003906 -7.722656 6.953125 -7.296875 L 6.5 -7.234375 C 6.5 -7.253906 6.5 -7.289062 6.5 -7.34375 C 6.507812 -7.40625 6.515625 -7.460938 6.515625 -7.515625 C 6.523438 -7.578125 6.53125 -7.632812 6.53125 -7.6875 C 6.53125 -7.75 6.53125 -7.796875 6.53125 -7.828125 C 6.53125 -8.316406 6.390625 -8.71875 6.109375 -9.03125 C 5.835938 -9.34375 5.421875 -9.5 4.859375 -9.5 C 4.347656 -9.5 3.953125 -9.367188 3.671875 -9.109375 C 3.390625 -8.847656 3.25 -8.460938 3.25 -7.953125 C 3.25 -7.710938 3.332031 -7.46875 3.5 -7.21875 C 3.675781 -6.96875 3.890625 -6.707031 4.140625 -6.4375 C 4.390625 -6.175781 4.660156 -5.90625 4.953125 -5.625 C 5.242188 -5.34375 5.515625 -5.046875 5.765625 -4.734375 C 6.023438 -4.421875 6.238281 -4.085938 6.40625 -3.734375 C 6.570312 -3.390625 6.65625 -3.019531 6.65625 -2.625 C 6.65625 -2.175781 6.570312 -1.773438 6.40625 -1.421875 C 6.25 -1.078125 6.019531 -0.78125 5.71875 -0.53125 C 5.425781 -0.289062 5.078125 -0.109375 4.671875 0.015625 C 4.265625 0.148438 3.820312 0.21875 3.34375 0.21875 C 3.050781 0.21875 2.722656 0.164062 2.359375 0.0625 C 2.003906 -0.03125 1.644531 -0.160156 1.28125 -0.328125 L 0.734375 0 L 0.484375 -0.03125 C 0.492188 -0.113281 0.515625 -0.253906 0.546875 -0.453125 C 0.578125 -0.660156 0.609375 -0.894531 0.640625 -1.15625 C 0.671875 -1.414062 0.703125 -1.695312 0.734375 -2 C 0.765625 -2.300781 0.796875 -2.59375 0.828125 -2.875 L 1.25 -2.90625 C 1.25 -2.539062 1.289062 -2.203125 1.375 -1.890625 C 1.46875 -1.578125 1.597656 -1.304688 1.765625 -1.078125 C 1.941406 -0.847656 2.148438 -0.664062 2.390625 -0.53125 C 2.640625 -0.394531 2.914062 -0.328125 3.21875 -0.328125 C 3.789062 -0.328125 4.242188 -0.46875 4.578125 -0.75 C 4.910156 -1.03125 5.078125 -1.441406 5.078125 -1.984375 C 5.078125 -2.285156 5 -2.570312 4.84375 -2.84375 C 4.6875 -3.113281 4.488281 -3.378906 4.25 -3.640625 C 4.007812 -3.910156 3.75 -4.175781 3.46875 -4.4375 C 3.1875 -4.707031 2.925781 -4.988281 2.6875 -5.28125 C 2.445312 -5.570312 2.242188 -5.882812 2.078125 -6.21875 C 1.921875 -6.550781 1.84375 -6.910156 1.84375 -7.296875 C 1.84375 -7.710938 1.921875 -8.09375 2.078125 -8.4375 C 2.234375 -8.78125 2.445312 -9.066406 2.71875 -9.296875 C 2.988281 -9.535156 3.304688 -9.71875 3.671875 -9.84375 C 4.035156 -9.96875 4.429688 -10.03125 4.859375 -10.03125 Z M 4.859375 -10.03125 "/></g></g></g><g fill="#ed5d88" fill-opacity="1"><g transform="translate(74.488208, 80.318438)"><g><path d="M 4.859375 -10.03125 C 5.148438 -10.03125 5.394531 -10.007812 5.59375 -9.96875 C 5.800781 -9.9375 5.972656 -9.894531 6.109375 -9.84375 C 6.253906 -9.800781 6.378906 -9.757812 6.484375 -9.71875 C 6.585938 -9.6875 6.6875 -9.671875 6.78125 -9.671875 C 6.84375 -9.671875 6.894531 -9.679688 6.9375 -9.703125 C 6.976562 -9.722656 7.007812 -9.769531 7.03125 -9.84375 L 7.359375 -9.8125 C 7.273438 -9.382812 7.195312 -8.960938 7.125 -8.546875 C 7.0625 -8.140625 7.003906 -7.722656 6.953125 -7.296875 L 6.5 -7.234375 C 6.5 -7.253906 6.5 -7.289062 6.5 -7.34375 C 6.507812 -7.40625 6.515625 -7.460938 6.515625 -7.515625 C 6.523438 -7.578125 6.53125 -7.632812 6.53125 -7.6875 C 6.53125 -7.75 6.53125 -7.796875 6.53125 -7.828125 C 6.53125 -8.316406 6.390625 -8.71875 6.109375 -9.03125 C 5.835938 -9.34375 5.421875 -9.5 4.859375 -9.5 C 4.347656 -9.5 3.953125 -9.367188 3.671875 -9.109375 C 3.390625 -8.847656 3.25 -8.460938 3.25 -7.953125 C 3.25 -7.710938 3.332031 -7.46875 3.5 -7.21875 C 3.675781 -6.96875 3.890625 -6.707031 4.140625 -6.4375 C 4.390625 -6.175781 4.660156 -5.90625 4.953125 -5.625 C 5.242188 -5.34375 5.515625 -5.046875 5.765625 -4.734375 C 6.023438 -4.421875 6.238281 -4.085938 6.40625 -3.734375 C 6.570312 -3.390625 6.65625 -3.019531 6.65625 -2.625 C 6.65625 -2.175781 6.570312 -1.773438 6.40625 -1.421875 C 6.25 -1.078125 6.019531 -0.78125 5.71875 -0.53125 C 5.425781 -0.289062 5.078125 -0.109375 4.671875 0.015625 C 4.265625 0.148438 3.820312 0.21875 3.34375 0.21875 C 3.050781 0.21875 2.722656 0.164062 2.359375 0.0625 C 2.003906 -0.03125 1.644531 -0.160156 1.28125 -0.328125 L 0.734375 0 L 0.484375 -0.03125 C 0.492188 -0.113281 0.515625 -0.253906 0.546875 -0.453125 C 0.578125 -0.660156 0.609375 -0.894531 0.640625 -1.15625 C 0.671875 -1.414062 0.703125 -1.695312 0.734375 -2 C 0.765625 -2.300781 0.796875 -2.59375 0.828125 -2.875 L 1.25 -2.90625 C 1.25 -2.539062 1.289062 -2.203125 1.375 -1.890625 C 1.46875 -1.578125 1.597656 -1.304688 1.765625 -1.078125 C 1.941406 -0.847656 2.148438 -0.664062 2.390625 -0.53125 C 2.640625 -0.394531 2.914062 -0.328125 3.21875 -0.328125 C 3.789062 -0.328125 4.242188 -0.46875 4.578125 -0.75 C 4.910156 -1.03125 5.078125 -1.441406 5.078125 -1.984375 C 5.078125 -2.285156 5 -2.570312 4.84375 -2.84375 C 4.6875 -3.113281 4.488281 -3.378906 4.25 -3.640625 C 4.007812 -3.910156 3.75 -4.175781 3.46875 -4.4375 C 3.1875 -4.707031 2.925781 -4.988281 2.6875 -5.28125 C 2.445312 -5.570312 2.242188 -5.882812 2.078125 -6.21875 C 1.921875 -6.550781 1.84375 -6.910156 1.84375 -7.296875 C 1.84375 -7.710938 1.921875 -8.09375 2.078125 -8.4375 C 2.234375 -8.78125 2.445312 -9.066406 2.71875 -9.296875 C 2.988281 -9.535156 3.304688 -9.71875 3.671875 -9.84375 C 4.035156 -9.96875 4.429688 -10.03125 4.859375 -10.03125 Z M 4.859375 -10.03125 "/></g></g></g><g fill="#ed5d88" fill-opacity="1"><g transform="translate(84.171803, 80.318438)"><g/></g></g><g fill="#ed5d88" fill-opacity="1"><g transform="translate(90.196082, 80.318438)"><g><path d="M 1.46875 -10.125 L 1.796875 -10.125 C 1.804688 -9.925781 2.007812 -9.828125 2.40625 -9.828125 L 8.796875 -9.828125 C 8.859375 -9.828125 8.941406 -9.828125 9.046875 -9.828125 C 9.148438 -9.828125 9.25 -9.835938 9.34375 -9.859375 C 9.445312 -9.878906 9.539062 -9.910156 9.625 -9.953125 C 9.707031 -9.992188 9.773438 -10.050781 9.828125 -10.125 L 10.203125 -10.125 C 10.140625 -9.695312 10.078125 -9.253906 10.015625 -8.796875 C 9.953125 -8.347656 9.910156 -7.878906 9.890625 -7.390625 L 9.4375 -7.390625 C 9.445312 -7.503906 9.453125 -7.613281 9.453125 -7.71875 C 9.453125 -7.832031 9.453125 -7.945312 9.453125 -8.0625 C 9.453125 -8.269531 9.425781 -8.441406 9.375 -8.578125 C 9.332031 -8.722656 9.242188 -8.84375 9.109375 -8.9375 C 8.984375 -9.03125 8.804688 -9.097656 8.578125 -9.140625 C 8.347656 -9.179688 8.0625 -9.203125 7.71875 -9.203125 L 6.625 -9.203125 L 5.21875 -1.5625 C 5.175781 -1.351562 5.15625 -1.140625 5.15625 -0.921875 C 5.15625 -0.585938 5.421875 -0.421875 5.953125 -0.421875 L 6.4375 -0.421875 L 6.375 0 C 5.882812 -0.0195312 5.46875 -0.0351562 5.125 -0.046875 C 4.78125 -0.0546875 4.445312 -0.0625 4.125 -0.0625 C 3.695312 -0.0625 3.304688 -0.0546875 2.953125 -0.046875 C 2.597656 -0.0351562 2.242188 -0.0195312 1.890625 0 L 1.953125 -0.421875 L 2.203125 -0.421875 C 2.460938 -0.421875 2.664062 -0.4375 2.8125 -0.46875 C 2.957031 -0.507812 3.066406 -0.578125 3.140625 -0.671875 C 3.222656 -0.773438 3.285156 -0.914062 3.328125 -1.09375 C 3.367188 -1.269531 3.421875 -1.503906 3.484375 -1.796875 L 4.828125 -9.203125 L 3.5 -9.203125 C 2.832031 -9.203125 2.34375 -9.050781 2.03125 -8.75 C 1.71875 -8.457031 1.488281 -8.003906 1.34375 -7.390625 L 0.890625 -7.390625 C 1.003906 -7.941406 1.109375 -8.421875 1.203125 -8.828125 C 1.296875 -9.242188 1.382812 -9.675781 1.46875 -10.125 Z M 1.46875 -10.125 "/></g></g></g><g fill="#ed5d88" fill-opacity="1"><g transform="translate(101.695248, 80.318438)"><g><path d="M 1.5 -9.828125 C 1.738281 -9.828125 2.0625 -9.816406 2.46875 -9.796875 C 2.882812 -9.773438 3.304688 -9.765625 3.734375 -9.765625 C 4.054688 -9.765625 4.378906 -9.769531 4.703125 -9.78125 C 5.023438 -9.800781 5.347656 -9.816406 5.671875 -9.828125 L 5.609375 -9.40625 C 5.210938 -9.40625 4.929688 -9.359375 4.765625 -9.265625 C 4.597656 -9.179688 4.488281 -8.988281 4.4375 -8.6875 L 3.84375 -5.515625 L 8.3125 -5.515625 L 8.640625 -7.375 C 8.648438 -7.457031 8.671875 -7.566406 8.703125 -7.703125 C 8.734375 -7.835938 8.757812 -7.976562 8.78125 -8.125 C 8.800781 -8.28125 8.820312 -8.425781 8.84375 -8.5625 C 8.863281 -8.695312 8.875 -8.804688 8.875 -8.890625 C 8.875 -9.109375 8.78125 -9.242188 8.59375 -9.296875 C 8.40625 -9.359375 8.113281 -9.394531 7.71875 -9.40625 L 7.765625 -9.828125 C 7.941406 -9.828125 8.125 -9.820312 8.3125 -9.8125 C 8.507812 -9.800781 8.695312 -9.789062 8.875 -9.78125 C 9.0625 -9.78125 9.226562 -9.773438 9.375 -9.765625 C 9.53125 -9.765625 9.660156 -9.765625 9.765625 -9.765625 C 10.160156 -9.765625 10.535156 -9.769531 10.890625 -9.78125 C 11.253906 -9.800781 11.59375 -9.816406 11.90625 -9.828125 L 11.84375 -9.40625 C 11.445312 -9.40625 11.160156 -9.363281 10.984375 -9.28125 C 10.816406 -9.195312 10.703125 -9 10.640625 -8.6875 L 9.484375 -2.578125 C 9.390625 -2.097656 9.320312 -1.726562 9.28125 -1.46875 C 9.25 -1.207031 9.234375 -1.03125 9.234375 -0.9375 C 9.234375 -0.71875 9.316406 -0.578125 9.484375 -0.515625 C 9.648438 -0.460938 9.941406 -0.429688 10.359375 -0.421875 L 10.3125 0 C 9.832031 -0.0078125 9.429688 -0.0195312 9.109375 -0.03125 C 8.796875 -0.0507812 8.488281 -0.0625 8.1875 -0.0625 C 7.988281 -0.0625 7.789062 -0.0546875 7.59375 -0.046875 C 7.394531 -0.046875 7.203125 -0.0390625 7.015625 -0.03125 C 6.835938 -0.0195312 6.671875 -0.0078125 6.515625 0 C 6.367188 0 6.253906 0 6.171875 0 L 6.234375 -0.421875 C 6.441406 -0.421875 6.617188 -0.429688 6.765625 -0.453125 C 6.910156 -0.472656 7.03125 -0.507812 7.125 -0.5625 C 7.226562 -0.625 7.304688 -0.722656 7.359375 -0.859375 C 7.421875 -0.992188 7.472656 -1.171875 7.515625 -1.390625 L 8.171875 -4.8125 L 3.703125 -4.8125 L 3.265625 -2.484375 C 3.222656 -2.234375 3.179688 -2.019531 3.140625 -1.84375 C 3.109375 -1.664062 3.082031 -1.515625 3.0625 -1.390625 C 3.050781 -1.273438 3.039062 -1.179688 3.03125 -1.109375 C 3.03125 -1.046875 3.03125 -0.988281 3.03125 -0.9375 C 3.03125 -0.738281 3.101562 -0.601562 3.25 -0.53125 C 3.394531 -0.457031 3.695312 -0.421875 4.15625 -0.421875 L 4.09375 0 C 3.625 -0.0078125 3.226562 -0.0195312 2.90625 -0.03125 C 2.59375 -0.0507812 2.285156 -0.0625 1.984375 -0.0625 C 1.828125 -0.0625 1.644531 -0.0546875 1.4375 -0.046875 C 1.238281 -0.046875 1.039062 -0.0390625 0.84375 -0.03125 C 0.65625 -0.0195312 0.472656 -0.0078125 0.296875 0 C 0.128906 0 -0.00390625 0 -0.109375 0 L -0.046875 -0.421875 C 0.148438 -0.429688 0.320312 -0.441406 0.46875 -0.453125 C 0.625 -0.460938 0.753906 -0.492188 0.859375 -0.546875 C 0.972656 -0.609375 1.0625 -0.695312 1.125 -0.8125 C 1.1875 -0.925781 1.242188 -1.097656 1.296875 -1.328125 L 2.421875 -7.328125 C 2.484375 -7.671875 2.535156 -7.976562 2.578125 -8.25 C 2.628906 -8.53125 2.65625 -8.742188 2.65625 -8.890625 C 2.65625 -9.109375 2.554688 -9.242188 2.359375 -9.296875 C 2.160156 -9.359375 1.851562 -9.394531 1.4375 -9.40625 Z M 1.5 -9.828125 "/></g></g></g><g fill="#ed5d88" fill-opacity="1"><g transform="translate(115.009996, 80.318438)"><g><path d="M 1.5 -9.828125 C 1.664062 -9.828125 1.863281 -9.820312 2.09375 -9.8125 C 2.332031 -9.8125 2.570312 -9.804688 2.8125 -9.796875 C 3.050781 -9.785156 3.265625 -9.773438 3.453125 -9.765625 C 3.648438 -9.765625 3.789062 -9.765625 3.875 -9.765625 C 3.96875 -9.765625 4.125 -9.765625 4.34375 -9.765625 C 4.570312 -9.773438 4.835938 -9.78125 5.140625 -9.78125 C 5.441406 -9.78125 5.765625 -9.785156 6.109375 -9.796875 C 6.453125 -9.804688 6.796875 -9.8125 7.140625 -9.8125 C 7.484375 -9.8125 7.8125 -9.8125 8.125 -9.8125 C 8.4375 -9.820312 8.703125 -9.828125 8.921875 -9.828125 C 8.867188 -9.484375 8.820312 -9.148438 8.78125 -8.828125 C 8.75 -8.515625 8.707031 -8.148438 8.65625 -7.734375 L 8.21875 -7.734375 C 8.226562 -7.773438 8.234375 -7.828125 8.234375 -7.890625 C 8.234375 -7.953125 8.234375 -8.003906 8.234375 -8.046875 C 8.234375 -8.253906 8.210938 -8.4375 8.171875 -8.59375 C 8.128906 -8.75 8.035156 -8.878906 7.890625 -8.984375 C 7.753906 -9.085938 7.550781 -9.164062 7.28125 -9.21875 C 7.007812 -9.269531 6.644531 -9.296875 6.1875 -9.296875 C 5.988281 -9.296875 5.726562 -9.285156 5.40625 -9.265625 C 5.09375 -9.242188 4.800781 -9.222656 4.53125 -9.203125 L 3.859375 -5.515625 L 5.59375 -5.515625 C 6.050781 -5.515625 6.378906 -5.609375 6.578125 -5.796875 C 6.785156 -5.984375 6.941406 -6.328125 7.046875 -6.828125 L 7.46875 -6.828125 C 7.363281 -6.304688 7.257812 -5.757812 7.15625 -5.1875 C 7.0625 -4.613281 6.960938 -4.046875 6.859375 -3.484375 L 6.46875 -3.484375 C 6.476562 -3.566406 6.488281 -3.65625 6.5 -3.75 C 6.507812 -3.851562 6.515625 -3.96875 6.515625 -4.09375 C 6.515625 -4.257812 6.503906 -4.394531 6.484375 -4.5 C 6.472656 -4.601562 6.425781 -4.679688 6.34375 -4.734375 C 6.257812 -4.796875 6.132812 -4.835938 5.96875 -4.859375 C 5.800781 -4.890625 5.566406 -4.90625 5.265625 -4.90625 C 4.941406 -4.90625 4.691406 -4.898438 4.515625 -4.890625 C 4.335938 -4.890625 4.195312 -4.890625 4.09375 -4.890625 C 4 -4.890625 3.929688 -4.882812 3.890625 -4.875 C 3.847656 -4.875 3.800781 -4.875 3.75 -4.875 L 3.125 -1.453125 C 3.113281 -1.398438 3.101562 -1.34375 3.09375 -1.28125 C 3.09375 -1.226562 3.09375 -1.160156 3.09375 -1.078125 C 3.09375 -0.867188 3.203125 -0.738281 3.421875 -0.6875 C 3.648438 -0.644531 3.9375 -0.625 4.28125 -0.625 L 5.328125 -0.625 C 5.878906 -0.625 6.3125 -0.648438 6.625 -0.703125 C 6.9375 -0.753906 7.191406 -0.847656 7.390625 -0.984375 C 7.585938 -1.128906 7.75 -1.320312 7.875 -1.5625 C 8 -1.800781 8.144531 -2.097656 8.3125 -2.453125 L 8.75 -2.453125 C 8.644531 -2.054688 8.535156 -1.65625 8.421875 -1.25 C 8.316406 -0.84375 8.210938 -0.425781 8.109375 0 C 7.179688 -0.0195312 6.34375 -0.0351562 5.59375 -0.046875 C 4.851562 -0.0546875 4.195312 -0.0625 3.625 -0.0625 C 3.394531 -0.0625 3.09375 -0.0546875 2.71875 -0.046875 C 2.34375 -0.046875 1.960938 -0.0390625 1.578125 -0.03125 C 1.203125 -0.0195312 0.851562 -0.0078125 0.53125 0 C 0.21875 0 0.00390625 0 -0.109375 0 L -0.046875 -0.421875 C 0.160156 -0.421875 0.34375 -0.425781 0.5 -0.4375 C 0.65625 -0.457031 0.785156 -0.492188 0.890625 -0.546875 C 0.992188 -0.609375 1.078125 -0.695312 1.140625 -0.8125 C 1.203125 -0.9375 1.253906 -1.109375 1.296875 -1.328125 L 2.421875 -7.328125 C 2.492188 -7.742188 2.550781 -8.070312 2.59375 -8.3125 C 2.632812 -8.5625 2.65625 -8.753906 2.65625 -8.890625 C 2.65625 -9.109375 2.554688 -9.242188 2.359375 -9.296875 C 2.160156 -9.359375 1.851562 -9.394531 1.4375 -9.40625 Z M 1.5 -9.828125 "/></g></g></g><g fill="#9259ba" fill-opacity="0.2392"><g transform="translate(62.248741, 125.833699)"><g/></g></g><g fill="#9259ba" fill-opacity="0.2392"><g transform="translate(69.824226, 125.833699)"><g/></g></g><g fill="#9259ba" fill-opacity="1"><g transform="translate(61.389055, 124.974012)"><g/></g></g><g fill="#9259ba" fill-opacity="1"><g transform="translate(68.964539, 124.974012)"><g/></g></g><g fill="#9259ba" fill-opacity="0.2392"><g transform="translate(77.411017, 125.833699)"><g/></g></g><g fill="#9259ba" fill-opacity="1"><g transform="translate(76.551331, 124.974012)"><g/></g></g><g fill="#9259ba" fill-opacity="0.2392"><g transform="translate(77.411017, 125.833699)"><g><path d="M 22.984375 -6.609375 L 23.078125 -6.609375 L 28.046875 -9.15625 L 28.203125 -8.796875 C 26.253906 -6.378906 24.703125 -4.488281 23.546875 -3.125 C 22.390625 -1.757812 21.425781 -0.796875 20.65625 -0.234375 C 19.882812 0.328125 19.109375 0.609375 18.328125 0.609375 C 17.128906 0.609375 16.28125 -0.0703125 15.78125 -1.4375 C 15.289062 -2.800781 15.164062 -4.691406 15.40625 -7.109375 L 18.9375 -17.046875 C 19.113281 -17.554688 19.296875 -18.171875 19.484375 -18.890625 C 19.671875 -19.609375 19.765625 -20.238281 19.765625 -20.78125 C 19.765625 -21.320312 19.578125 -21.59375 19.203125 -21.59375 C 18.785156 -21.59375 18.296875 -21.242188 17.734375 -20.546875 C 17.171875 -19.847656 16.503906 -18.671875 15.734375 -17.015625 C 14.972656 -15.359375 14.050781 -13.148438 12.96875 -10.390625 C 11.894531 -7.628906 10.625 -4.164062 9.15625 0 L 0.609375 0 L 5.734375 -20.375 L 0.921875 -17.859375 L 0.765625 -18.21875 C 2.710938 -20.644531 4.265625 -22.539062 5.421875 -23.90625 C 6.585938 -25.269531 7.550781 -26.234375 8.3125 -26.796875 C 9.082031 -27.359375 9.84375 -27.640625 10.59375 -27.640625 C 11.820312 -27.640625 12.679688 -26.957031 13.171875 -25.59375 C 13.671875 -24.226562 13.800781 -22.332031 13.5625 -19.90625 L 9.3125 -4.859375 L 9.9375 -4.859375 C 10.988281 -8.035156 12.066406 -11.015625 13.171875 -13.796875 C 14.285156 -16.578125 15.4375 -19.023438 16.625 -21.140625 C 17.820312 -23.253906 19.078125 -24.898438 20.390625 -26.078125 C 21.710938 -27.253906 23.101562 -27.84375 24.5625 -27.84375 C 25.144531 -27.84375 25.726562 -27.707031 26.3125 -27.4375 C 26.894531 -27.164062 27.363281 -26.695312 27.71875 -26.03125 C 28.070312 -25.363281 28.238281 -24.445312 28.21875 -23.28125 C 28.207031 -22.125 27.894531 -20.644531 27.28125 -18.84375 Z M 22.984375 -6.609375 "/></g></g></g><g fill="#9259ba" fill-opacity="0.2392"><g transform="translate(106.279746, 125.833699)"><g><path d="M 19.546875 -27.234375 L 18.9375 -25.03125 C 17.4375 -25.03125 15.9375 -25.179688 14.4375 -25.484375 L 8.90625 -6.296875 L 8.953125 -6.296875 L 13.921875 -8.859375 L 14.078125 -8.546875 C 12.128906 -6.117188 10.570312 -4.210938 9.40625 -2.828125 C 8.25 -1.453125 7.296875 -0.484375 6.546875 0.078125 C 5.796875 0.640625 5.03125 0.921875 4.25 0.921875 C 3.019531 0.921875 2.15625 0.238281 1.65625 -1.125 C 1.164062 -2.488281 1.039062 -4.398438 1.28125 -6.859375 L 6.09375 -24.984375 L 6.046875 -24.984375 C 5.597656 -25.285156 5.164062 -25.597656 4.75 -25.921875 C 4.34375 -26.242188 3.867188 -26.578125 3.328125 -26.921875 L 3.375 -27.234375 L 6.90625 -27.234375 C 8.507812 -28.628906 10.113281 -29.96875 11.71875 -31.25 C 13.320312 -32.53125 14.910156 -33.835938 16.484375 -35.171875 L 16.6875 -35.171875 L 14.953125 -27.234375 Z M 19.546875 -27.234375 "/></g></g></g><g fill="#9259ba" fill-opacity="0.2392"><g transform="translate(122.198507, 125.833699)"><g><path d="M 14.390625 -37.671875 C 13.535156 -37.671875 12.894531 -37.414062 12.46875 -36.90625 C 12.039062 -36.394531 11.789062 -35.726562 11.71875 -34.90625 C 11.71875 -34.1875 11.84375 -33.347656 12.09375 -32.390625 C 12.351562 -31.441406 12.695312 -30.503906 13.125 -29.578125 C 13.550781 -28.660156 13.988281 -27.878906 14.4375 -27.234375 L 22.625 -27.234375 L 22.0625 -24.984375 C 19.4375 -24.984375 16.859375 -25.171875 14.328125 -25.546875 L 9.15625 -4.703125 C 8.71875 -2.859375 7.820312 -1 6.46875 0.875 C 5.125 2.75 3.4375 4.515625 1.40625 6.171875 C -0.625 7.828125 -2.890625 9.25 -5.390625 10.4375 C -7.898438 11.632812 -10.554688 12.488281 -13.359375 13 L -11.671875 4.859375 L -11.359375 4.8125 L -7.671875 6.296875 C -6.066406 6.941406 -4.828125 7.34375 -3.953125 7.5 C -3.085938 7.65625 -2.425781 7.457031 -1.96875 6.90625 C -1.507812 6.363281 -1.109375 5.398438 -0.765625 4.015625 C -0.421875 2.628906 0.0195312 0.726562 0.5625 -1.6875 L 5.984375 -25.234375 L 5.9375 -25.234375 L 3.21875 -26.921875 L 3.328125 -27.234375 L 6.453125 -27.234375 L 6.703125 -28.671875 C 7.109375 -30.847656 7.75 -32.648438 8.625 -34.078125 C 9.5 -35.515625 10.472656 -36.648438 11.546875 -37.484375 C 12.617188 -38.328125 13.675781 -38.941406 14.71875 -39.328125 C 15.757812 -39.722656 16.679688 -39.972656 17.484375 -40.078125 C 18.285156 -40.179688 18.820312 -40.234375 19.09375 -40.234375 C 20.351562 -40.234375 21.585938 -40.035156 22.796875 -39.640625 C 24.015625 -39.253906 25.09375 -38.726562 26.03125 -38.0625 C 26.96875 -37.394531 27.640625 -36.648438 28.046875 -35.828125 L 22.625 -28.8125 L 22.171875 -28.8125 C 21.722656 -30.550781 21.03125 -32.085938 20.09375 -33.421875 C 19.15625 -34.753906 18.164062 -35.796875 17.125 -36.546875 C 16.082031 -37.296875 15.171875 -37.671875 14.390625 -37.671875 Z M 14.390625 -37.671875 "/></g></g></g><g fill="#9259ba" fill-opacity="0.2392"><g transform="translate(137.707757, 125.833699)"><g><path d="M 28.671875 -27.234375 L 23.546875 -6.859375 L 28.359375 -9.375 L 28.515625 -9.0625 C 26.566406 -6.632812 25.007812 -4.726562 23.84375 -3.34375 C 22.6875 -1.96875 21.734375 -1 20.984375 -0.4375 C 20.234375 0.125 19.46875 0.40625 18.6875 0.40625 C 17.457031 0.40625 16.59375 -0.273438 16.09375 -1.640625 C 15.601562 -3.003906 15.476562 -4.914062 15.71875 -7.375 L 19.96875 -22.375 L 19.34375 -22.375 C 18.289062 -19.195312 17.207031 -16.21875 16.09375 -13.4375 C 14.988281 -10.65625 13.847656 -8.207031 12.671875 -6.09375 C 11.492188 -3.976562 10.25 -2.332031 8.9375 -1.15625 C 7.625 0.0195312 6.234375 0.609375 4.765625 0.609375 C 4.148438 0.609375 3.550781 0.472656 2.96875 0.203125 C 2.382812 -0.0664062 1.914062 -0.535156 1.5625 -1.203125 C 1.207031 -1.867188 1.035156 -2.789062 1.046875 -3.96875 C 1.066406 -5.144531 1.382812 -6.617188 2 -8.390625 L 6.296875 -20.625 L 6.1875 -20.625 L 1.234375 -18.0625 L 1.078125 -18.421875 C 3.023438 -20.847656 4.578125 -22.742188 5.734375 -24.109375 C 6.890625 -25.472656 7.851562 -26.4375 8.625 -27 C 9.394531 -27.5625 10.171875 -27.84375 10.953125 -27.84375 C 12.148438 -27.84375 12.992188 -27.160156 13.484375 -25.796875 C 13.984375 -24.429688 14.113281 -22.535156 13.875 -20.109375 L 10.34375 -10.1875 C 10.164062 -9.707031 9.992188 -9.097656 9.828125 -8.359375 C 9.660156 -7.628906 9.578125 -6.988281 9.578125 -6.4375 C 9.578125 -5.894531 9.765625 -5.625 10.140625 -5.625 C 10.546875 -5.625 11.019531 -5.972656 11.5625 -6.671875 C 12.113281 -7.378906 12.769531 -8.554688 13.53125 -10.203125 C 14.300781 -11.859375 15.222656 -14.078125 16.296875 -16.859375 C 17.378906 -19.640625 18.648438 -23.097656 20.109375 -27.234375 Z M 28.671875 -27.234375 "/></g></g></g><g fill="#9259ba" fill-opacity="0.2392"><g transform="translate(166.422924, 125.833699)"><g><path d="M 8.65625 -6.5 L 8.703125 -6.5 L 13.671875 -9.015625 L 13.828125 -8.703125 C 11.878906 -6.273438 10.320312 -4.367188 9.15625 -2.984375 C 8 -1.609375 7.035156 -0.640625 6.265625 -0.078125 C 5.503906 0.484375 4.726562 0.765625 3.9375 0.765625 C 2.75 0.765625 1.90625 0.078125 1.40625 -1.296875 C 0.914062 -2.679688 0.789062 -4.585938 1.03125 -7.015625 L 8.03125 -35.21875 L 5.328125 -35.9375 L 5.421875 -36.234375 L 17.359375 -39.71875 L 17.65625 -39.71875 Z M 8.65625 -6.5 "/></g></g></g><g fill="#9259ba" fill-opacity="0.2392"><g transform="translate(181.113224, 125.833699)"><g/></g></g><g fill="#9259ba" fill-opacity="0.2392"><g transform="translate(188.688709, 125.833699)"><g><path d="M 28.96875 -26.921875 L 28.96875 -27.234375 L 38.078125 -27.234375 C 37.328125 -23.515625 36.335938 -19.972656 35.109375 -16.609375 C 33.878906 -13.242188 32.488281 -10.25 30.9375 -7.625 C 29.382812 -5 27.753906 -2.941406 26.046875 -1.453125 C 24.347656 0.0234375 22.644531 0.765625 20.9375 0.765625 C 18.957031 0.796875 17.640625 -0.101562 16.984375 -1.9375 C 16.335938 -3.78125 16.441406 -6.273438 17.296875 -9.421875 L 19.8125 -18.328125 L 19.046875 -18.328125 C 18.222656 -15.492188 17.4375 -12.90625 16.6875 -10.5625 C 15.9375 -8.226562 15.125 -6.21875 14.25 -4.53125 C 13.382812 -2.84375 12.378906 -1.535156 11.234375 -0.609375 C 10.085938 0.304688 8.710938 0.765625 7.109375 0.765625 C 5.546875 0.765625 4.195312 0.296875 3.0625 -0.640625 C 1.9375 -1.578125 1.375 -3.117188 1.375 -5.265625 C 1.375 -6.941406 1.8125 -8.691406 2.6875 -10.515625 C 3.5625 -12.335938 4.898438 -14.078125 6.703125 -15.734375 C 8.515625 -17.390625 10.785156 -18.800781 13.515625 -19.96875 L 13.515625 -20.21875 L 8.59375 -20.21875 C 6.71875 -20.21875 5.289062 -19.976562 4.3125 -19.5 C 3.34375 -19.019531 2.398438 -18.1875 1.484375 -17 L 1.125 -17.09375 L 4.5625 -27.234375 L 18.6875 -27.234375 L 18.6875 -26.921875 C 15.445312 -22.046875 13.070312 -17.96875 11.5625 -14.6875 C 10.0625 -11.414062 9.3125 -8.769531 9.3125 -6.75 C 9.3125 -5.800781 9.484375 -5.117188 9.828125 -4.703125 C 10.171875 -4.296875 10.628906 -4.09375 11.203125 -4.09375 C 12.234375 -4.09375 13.097656 -4.710938 13.796875 -5.953125 C 14.492188 -7.203125 15.234375 -9.164062 16.015625 -11.84375 C 16.804688 -14.53125 17.847656 -18.003906 19.140625 -22.265625 L 27.234375 -22.3125 L 25.4375 -15.5625 C 25.09375 -14.195312 24.757812 -12.820312 24.4375 -11.4375 C 24.113281 -10.0625 23.898438 -8.800781 23.796875 -7.65625 C 23.703125 -6.507812 23.796875 -5.585938 24.078125 -4.890625 C 24.367188 -4.191406 24.925781 -3.84375 25.75 -3.84375 C 26.738281 -3.84375 27.539062 -4.328125 28.15625 -5.296875 C 28.769531 -6.265625 29.238281 -7.5625 29.5625 -9.1875 C 29.882812 -10.8125 30.070312 -12.628906 30.125 -14.640625 C 30.175781 -16.648438 30.097656 -18.710938 29.890625 -20.828125 C 29.691406 -22.941406 29.382812 -24.972656 28.96875 -26.921875 Z M 28.96875 -26.921875 "/></g></g></g><g fill="#9259ba" fill-opacity="0.2392"><g transform="translate(224.416347, 125.833699)"><g><path d="M 9.578125 0.765625 C 7.148438 0.765625 5.1875 0.109375 3.6875 -1.203125 C 2.1875 -2.515625 1.203125 -4.28125 0.734375 -6.5 C 0.273438 -8.71875 0.335938 -11.160156 0.921875 -13.828125 C 1.460938 -16.210938 2.269531 -18.238281 3.34375 -19.90625 C 4.425781 -21.582031 5.613281 -22.945312 6.90625 -24 C 8.207031 -25.0625 9.476562 -25.878906 10.71875 -26.453125 C 11.96875 -27.035156 13.0625 -27.4375 14 -27.65625 C 14.9375 -27.882812 15.578125 -28 15.921875 -28 C 18.378906 -28 20.335938 -27.332031 21.796875 -26 C 23.265625 -24.664062 24.226562 -22.890625 24.6875 -20.671875 C 25.15625 -18.460938 25.082031 -15.988281 24.46875 -13.25 C 23.925781 -10.863281 23.125 -8.851562 22.0625 -7.21875 C 21 -5.582031 19.816406 -4.242188 18.515625 -3.203125 C 17.222656 -2.160156 15.953125 -1.347656 14.703125 -0.765625 C 13.460938 -0.179688 12.378906 0.21875 11.453125 0.4375 C 10.535156 0.65625 9.910156 0.765625 9.578125 0.765625 Z M 14.03125 -1.640625 C 14.945312 -2.015625 15.566406 -3.222656 15.890625 -5.265625 C 16.210938 -7.316406 16.238281 -10.546875 15.96875 -14.953125 C 15.144531 -22.828125 13.609375 -26.390625 11.359375 -25.640625 C 10.441406 -25.265625 9.796875 -24.046875 9.421875 -21.984375 C 9.046875 -19.921875 9.03125 -16.707031 9.375 -12.34375 C 9.75 -8.34375 10.351562 -5.457031 11.1875 -3.6875 C 12.019531 -1.914062 12.96875 -1.234375 14.03125 -1.640625 Z M 14.03125 -1.640625 "/></g></g></g><g fill="#9259ba" fill-opacity="0.2392"><g transform="translate(249.855644, 125.833699)"><g><path d="M 25.90625 -25.75 L 26.109375 -25.59375 C 26.035156 -25.425781 25.816406 -24.972656 25.453125 -24.234375 C 25.097656 -23.503906 24.664062 -22.691406 24.15625 -21.796875 C 23.644531 -20.910156 23.097656 -20.132812 22.515625 -19.46875 C 21.941406 -18.8125 21.414062 -18.484375 20.9375 -18.484375 C 20.5625 -18.484375 20.160156 -18.644531 19.734375 -18.96875 C 19.304688 -19.289062 18.894531 -19.601562 18.5 -19.90625 C 18.113281 -20.21875 17.765625 -20.375 17.453125 -20.375 C 17.148438 -20.375 16.71875 -19.738281 16.15625 -18.46875 C 15.59375 -17.207031 14.753906 -15.09375 13.640625 -12.125 C 12.535156 -9.15625 11.007812 -5.113281 9.0625 0 L 0.515625 0 L 5.78125 -20.375 L 0.921875 -17.859375 L 0.765625 -18.21875 C 2.710938 -20.644531 4.265625 -22.539062 5.421875 -23.90625 C 6.585938 -25.269531 7.550781 -26.234375 8.3125 -26.796875 C 9.082031 -27.359375 9.84375 -27.640625 10.59375 -27.640625 C 11.820312 -27.640625 12.679688 -26.957031 13.171875 -25.59375 C 13.671875 -24.226562 13.800781 -22.332031 13.5625 -19.90625 L 9.265625 -4.859375 L 9.875 -4.859375 C 11.414062 -9.128906 12.710938 -12.710938 13.765625 -15.609375 C 14.828125 -18.515625 15.707031 -20.851562 16.40625 -22.625 C 17.101562 -24.394531 17.71875 -25.671875 18.25 -26.453125 C 18.78125 -27.242188 19.300781 -27.640625 19.8125 -27.640625 C 20.1875 -27.640625 20.644531 -27.410156 21.1875 -26.953125 C 21.738281 -26.492188 22.3125 -26.03125 22.90625 -25.5625 C 23.5 -25.101562 24.050781 -24.875 24.5625 -24.875 C 25.039062 -24.875 25.488281 -25.164062 25.90625 -25.75 Z M 25.90625 -25.75 "/></g></g></g><g fill="#9259ba" fill-opacity="0.2392"><g transform="translate(271.353636, 125.833699)"><g><path d="M 8.65625 -6.5 L 8.703125 -6.5 L 13.671875 -9.015625 L 13.828125 -8.703125 C 11.878906 -6.273438 10.320312 -4.367188 9.15625 -2.984375 C 8 -1.609375 7.035156 -0.640625 6.265625 -0.078125 C 5.503906 0.484375 4.726562 0.765625 3.9375 0.765625 C 2.75 0.765625 1.90625 0.078125 1.40625 -1.296875 C 0.914062 -2.679688 0.789062 -4.585938 1.03125 -7.015625 L 8.03125 -35.21875 L 5.328125 -35.9375 L 5.421875 -36.234375 L 17.359375 -39.71875 L 17.65625 -39.71875 Z M 8.65625 -6.5 "/></g></g></g><g fill="#9259ba" fill-opacity="0.2392"><g transform="translate(286.043936, 125.833699)"><g><path d="M 22.265625 -6.5 L 22.3125 -6.5 L 27.28125 -9.015625 L 27.4375 -8.703125 C 25.488281 -6.273438 23.929688 -4.367188 22.765625 -2.984375 C 21.609375 -1.609375 20.644531 -0.640625 19.875 -0.078125 C 19.113281 0.484375 18.34375 0.765625 17.5625 0.765625 C 16.363281 0.765625 15.515625 0.078125 15.015625 -1.296875 C 14.523438 -2.679688 14.398438 -4.585938 14.640625 -7.015625 L 18.53125 -22.625 L 17.8125 -22.625 C 16.75 -18.59375 15.738281 -15.195312 14.78125 -12.4375 C 13.832031 -9.675781 12.90625 -7.429688 12 -5.703125 C 11.09375 -3.984375 10.226562 -2.671875 9.40625 -1.765625 C 8.59375 -0.859375 7.785156 -0.242188 6.984375 0.078125 C 6.179688 0.398438 5.390625 0.5625 4.609375 0.5625 C 3.035156 0.5625 1.796875 -0.0546875 0.890625 -1.296875 C -0.00390625 -2.546875 -0.382812 -4.316406 -0.25 -6.609375 C -0.15625 -8.304688 0.1875 -10.128906 0.78125 -12.078125 C 1.382812 -14.023438 2.195312 -15.925781 3.21875 -17.78125 C 4.25 -19.644531 5.503906 -21.328125 6.984375 -22.828125 C 8.472656 -24.328125 10.15625 -25.53125 12.03125 -26.4375 C 13.90625 -27.34375 15.988281 -27.796875 18.28125 -27.796875 C 18.550781 -27.796875 18.8125 -27.796875 19.0625 -27.796875 C 19.320312 -27.796875 19.570312 -27.78125 19.8125 -27.75 L 21.65625 -35.21875 L 18.9375 -35.9375 L 19.046875 -36.234375 L 30.96875 -39.71875 L 31.28125 -39.71875 Z M 16.734375 -22.171875 C 17.003906 -23.429688 17.085938 -24.359375 16.984375 -24.953125 C 16.890625 -25.546875 16.703125 -25.9375 16.421875 -26.125 C 16.148438 -26.3125 15.894531 -26.40625 15.65625 -26.40625 C 14.90625 -26.40625 14.144531 -25.925781 13.375 -24.96875 C 12.613281 -24.019531 11.898438 -22.773438 11.234375 -21.234375 C 10.566406 -19.703125 9.976562 -18.066406 9.46875 -16.328125 C 8.957031 -14.585938 8.554688 -12.921875 8.265625 -11.328125 C 7.972656 -9.742188 7.828125 -8.425781 7.828125 -7.375 C 7.828125 -5.800781 8.304688 -5.015625 9.265625 -5.015625 C 9.847656 -5.015625 10.4375 -5.492188 11.03125 -6.453125 C 11.625 -7.410156 12.226562 -8.707031 12.84375 -10.34375 C 13.457031 -11.976562 14.085938 -13.816406 14.734375 -15.859375 C 15.390625 -17.910156 16.054688 -20.015625 16.734375 -22.171875 Z M 16.734375 -22.171875 "/></g></g></g><g fill="#9259ba" fill-opacity="1"><g transform="translate(76.551331, 124.974012)"><g><path d="M 22.984375 -6.609375 L 23.078125 -6.609375 L 28.046875 -9.15625 L 28.203125 -8.796875 C 26.253906 -6.378906 24.703125 -4.488281 23.546875 -3.125 C 22.390625 -1.757812 21.425781 -0.796875 20.65625 -0.234375 C 19.882812 0.328125 19.109375 0.609375 18.328125 0.609375 C 17.128906 0.609375 16.28125 -0.0703125 15.78125 -1.4375 C 15.289062 -2.800781 15.164062 -4.691406 15.40625 -7.109375 L 18.9375 -17.046875 C 19.113281 -17.554688 19.296875 -18.171875 19.484375 -18.890625 C 19.671875 -19.609375 19.765625 -20.238281 19.765625 -20.78125 C 19.765625 -21.320312 19.578125 -21.59375 19.203125 -21.59375 C 18.785156 -21.59375 18.296875 -21.242188 17.734375 -20.546875 C 17.171875 -19.847656 16.503906 -18.671875 15.734375 -17.015625 C 14.972656 -15.359375 14.050781 -13.148438 12.96875 -10.390625 C 11.894531 -7.628906 10.625 -4.164062 9.15625 0 L 0.609375 0 L 5.734375 -20.375 L 0.921875 -17.859375 L 0.765625 -18.21875 C 2.710938 -20.644531 4.265625 -22.539062 5.421875 -23.90625 C 6.585938 -25.269531 7.550781 -26.234375 8.3125 -26.796875 C 9.082031 -27.359375 9.84375 -27.640625 10.59375 -27.640625 C 11.820312 -27.640625 12.679688 -26.957031 13.171875 -25.59375 C 13.671875 -24.226562 13.800781 -22.332031 13.5625 -19.90625 L 9.3125 -4.859375 L 9.9375 -4.859375 C 10.988281 -8.035156 12.066406 -11.015625 13.171875 -13.796875 C 14.285156 -16.578125 15.4375 -19.023438 16.625 -21.140625 C 17.820312 -23.253906 19.078125 -24.898438 20.390625 -26.078125 C 21.710938 -27.253906 23.101562 -27.84375 24.5625 -27.84375 C 25.144531 -27.84375 25.726562 -27.707031 26.3125 -27.4375 C 26.894531 -27.164062 27.363281 -26.695312 27.71875 -26.03125 C 28.070312 -25.363281 28.238281 -24.445312 28.21875 -23.28125 C 28.207031 -22.125 27.894531 -20.644531 27.28125 -18.84375 Z M 22.984375 -6.609375 "/></g></g></g><g fill="#9259ba" fill-opacity="1"><g transform="translate(105.42006, 124.974012)"><g><path d="M 19.546875 -27.234375 L 18.9375 -25.03125 C 17.4375 -25.03125 15.9375 -25.179688 14.4375 -25.484375 L 8.90625 -6.296875 L 8.953125 -6.296875 L 13.921875 -8.859375 L 14.078125 -8.546875 C 12.128906 -6.117188 10.570312 -4.210938 9.40625 -2.828125 C 8.25 -1.453125 7.296875 -0.484375 6.546875 0.078125 C 5.796875 0.640625 5.03125 0.921875 4.25 0.921875 C 3.019531 0.921875 2.15625 0.238281 1.65625 -1.125 C 1.164062 -2.488281 1.039062 -4.398438 1.28125 -6.859375 L 6.09375 -24.984375 L 6.046875 -24.984375 C 5.597656 -25.285156 5.164062 -25.597656 4.75 -25.921875 C 4.34375 -26.242188 3.867188 -26.578125 3.328125 -26.921875 L 3.375 -27.234375 L 6.90625 -27.234375 C 8.507812 -28.628906 10.113281 -29.96875 11.71875 -31.25 C 13.320312 -32.53125 14.910156 -33.835938 16.484375 -35.171875 L 16.6875 -35.171875 L 14.953125 -27.234375 Z M 19.546875 -27.234375 "/></g></g></g><g fill="#9259ba" fill-opacity="1"><g transform="translate(121.338821, 124.974012)"><g><path d="M 14.390625 -37.671875 C 13.535156 -37.671875 12.894531 -37.414062 12.46875 -36.90625 C 12.039062 -36.394531 11.789062 -35.726562 11.71875 -34.90625 C 11.71875 -34.1875 11.84375 -33.347656 12.09375 -32.390625 C 12.351562 -31.441406 12.695312 -30.503906 13.125 -29.578125 C 13.550781 -28.660156 13.988281 -27.878906 14.4375 -27.234375 L 22.625 -27.234375 L 22.0625 -24.984375 C 19.4375 -24.984375 16.859375 -25.171875 14.328125 -25.546875 L 9.15625 -4.703125 C 8.71875 -2.859375 7.820312 -1 6.46875 0.875 C 5.125 2.75 3.4375 4.515625 1.40625 6.171875 C -0.625 7.828125 -2.890625 9.25 -5.390625 10.4375 C -7.898438 11.632812 -10.554688 12.488281 -13.359375 13 L -11.671875 4.859375 L -11.359375 4.8125 L -7.671875 6.296875 C -6.066406 6.941406 -4.828125 7.34375 -3.953125 7.5 C -3.085938 7.65625 -2.425781 7.457031 -1.96875 6.90625 C -1.507812 6.363281 -1.109375 5.398438 -0.765625 4.015625 C -0.421875 2.628906 0.0195312 0.726562 0.5625 -1.6875 L 5.984375 -25.234375 L 5.9375 -25.234375 L 3.21875 -26.921875 L 3.328125 -27.234375 L 6.453125 -27.234375 L 6.703125 -28.671875 C 7.109375 -30.847656 7.75 -32.648438 8.625 -34.078125 C 9.5 -35.515625 10.472656 -36.648438 11.546875 -37.484375 C 12.617188 -38.328125 13.675781 -38.941406 14.71875 -39.328125 C 15.757812 -39.722656 16.679688 -39.972656 17.484375 -40.078125 C 18.285156 -40.179688 18.820312 -40.234375 19.09375 -40.234375 C 20.351562 -40.234375 21.585938 -40.035156 22.796875 -39.640625 C 24.015625 -39.253906 25.09375 -38.726562 26.03125 -38.0625 C 26.96875 -37.394531 27.640625 -36.648438 28.046875 -35.828125 L 22.625 -28.8125 L 22.171875 -28.8125 C 21.722656 -30.550781 21.03125 -32.085938 20.09375 -33.421875 C 19.15625 -34.753906 18.164062 -35.796875 17.125 -36.546875 C 16.082031 -37.296875 15.171875 -37.671875 14.390625 -37.671875 Z M 14.390625 -37.671875 "/></g></g></g><g fill="#9259ba" fill-opacity="1"><g transform="translate(136.84807, 124.974012)"><g><path d="M 28.671875 -27.234375 L 23.546875 -6.859375 L 28.359375 -9.375 L 28.515625 -9.0625 C 26.566406 -6.632812 25.007812 -4.726562 23.84375 -3.34375 C 22.6875 -1.96875 21.734375 -1 20.984375 -0.4375 C 20.234375 0.125 19.46875 0.40625 18.6875 0.40625 C 17.457031 0.40625 16.59375 -0.273438 16.09375 -1.640625 C 15.601562 -3.003906 15.476562 -4.914062 15.71875 -7.375 L 19.96875 -22.375 L 19.34375 -22.375 C 18.289062 -19.195312 17.207031 -16.21875 16.09375 -13.4375 C 14.988281 -10.65625 13.847656 -8.207031 12.671875 -6.09375 C 11.492188 -3.976562 10.25 -2.332031 8.9375 -1.15625 C 7.625 0.0195312 6.234375 0.609375 4.765625 0.609375 C 4.148438 0.609375 3.550781 0.472656 2.96875 0.203125 C 2.382812 -0.0664062 1.914062 -0.535156 1.5625 -1.203125 C 1.207031 -1.867188 1.035156 -2.789062 1.046875 -3.96875 C 1.066406 -5.144531 1.382812 -6.617188 2 -8.390625 L 6.296875 -20.625 L 6.1875 -20.625 L 1.234375 -18.0625 L 1.078125 -18.421875 C 3.023438 -20.847656 4.578125 -22.742188 5.734375 -24.109375 C 6.890625 -25.472656 7.851562 -26.4375 8.625 -27 C 9.394531 -27.5625 10.171875 -27.84375 10.953125 -27.84375 C 12.148438 -27.84375 12.992188 -27.160156 13.484375 -25.796875 C 13.984375 -24.429688 14.113281 -22.535156 13.875 -20.109375 L 10.34375 -10.1875 C 10.164062 -9.707031 9.992188 -9.097656 9.828125 -8.359375 C 9.660156 -7.628906 9.578125 -6.988281 9.578125 -6.4375 C 9.578125 -5.894531 9.765625 -5.625 10.140625 -5.625 C 10.546875 -5.625 11.019531 -5.972656 11.5625 -6.671875 C 12.113281 -7.378906 12.769531 -8.554688 13.53125 -10.203125 C 14.300781 -11.859375 15.222656 -14.078125 16.296875 -16.859375 C 17.378906 -19.640625 18.648438 -23.097656 20.109375 -27.234375 Z M 28.671875 -27.234375 "/></g></g></g><g fill="#9259ba" fill-opacity="1"><g transform="translate(165.563238, 124.974012)"><g><path d="M 8.65625 -6.5 L 8.703125 -6.5 L 13.671875 -9.015625 L 13.828125 -8.703125 C 11.878906 -6.273438 10.320312 -4.367188 9.15625 -2.984375 C 8 -1.609375 7.035156 -0.640625 6.265625 -0.078125 C 5.503906 0.484375 4.726562 0.765625 3.9375 0.765625 C 2.75 0.765625 1.90625 0.078125 1.40625 -1.296875 C 0.914062 -2.679688 0.789062 -4.585938 1.03125 -7.015625 L 8.03125 -35.21875 L 5.328125 -35.9375 L 5.421875 -36.234375 L 17.359375 -39.71875 L 17.65625 -39.71875 Z M 8.65625 -6.5 "/></g></g></g><g fill="#9259ba" fill-opacity="1"><g transform="translate(180.253538, 124.974012)"><g/></g></g><g fill="#9259ba" fill-opacity="1"><g transform="translate(187.829022, 124.974012)"><g><path d="M 28.96875 -26.921875 L 28.96875 -27.234375 L 38.078125 -27.234375 C 37.328125 -23.515625 36.335938 -19.972656 35.109375 -16.609375 C 33.878906 -13.242188 32.488281 -10.25 30.9375 -7.625 C 29.382812 -5 27.753906 -2.941406 26.046875 -1.453125 C 24.347656 0.0234375 22.644531 0.765625 20.9375 0.765625 C 18.957031 0.796875 17.640625 -0.101562 16.984375 -1.9375 C 16.335938 -3.78125 16.441406 -6.273438 17.296875 -9.421875 L 19.8125 -18.328125 L 19.046875 -18.328125 C 18.222656 -15.492188 17.4375 -12.90625 16.6875 -10.5625 C 15.9375 -8.226562 15.125 -6.21875 14.25 -4.53125 C 13.382812 -2.84375 12.378906 -1.535156 11.234375 -0.609375 C 10.085938 0.304688 8.710938 0.765625 7.109375 0.765625 C 5.546875 0.765625 4.195312 0.296875 3.0625 -0.640625 C 1.9375 -1.578125 1.375 -3.117188 1.375 -5.265625 C 1.375 -6.941406 1.8125 -8.691406 2.6875 -10.515625 C 3.5625 -12.335938 4.898438 -14.078125 6.703125 -15.734375 C 8.515625 -17.390625 10.785156 -18.800781 13.515625 -19.96875 L 13.515625 -20.21875 L 8.59375 -20.21875 C 6.71875 -20.21875 5.289062 -19.976562 4.3125 -19.5 C 3.34375 -19.019531 2.398438 -18.1875 1.484375 -17 L 1.125 -17.09375 L 4.5625 -27.234375 L 18.6875 -27.234375 L 18.6875 -26.921875 C 15.445312 -22.046875 13.070312 -17.96875 11.5625 -14.6875 C 10.0625 -11.414062 9.3125 -8.769531 9.3125 -6.75 C 9.3125 -5.800781 9.484375 -5.117188 9.828125 -4.703125 C 10.171875 -4.296875 10.628906 -4.09375 11.203125 -4.09375 C 12.234375 -4.09375 13.097656 -4.710938 13.796875 -5.953125 C 14.492188 -7.203125 15.234375 -9.164062 16.015625 -11.84375 C 16.804688 -14.53125 17.847656 -18.003906 19.140625 -22.265625 L 27.234375 -22.3125 L 25.4375 -15.5625 C 25.09375 -14.195312 24.757812 -12.820312 24.4375 -11.4375 C 24.113281 -10.0625 23.898438 -8.800781 23.796875 -7.65625 C 23.703125 -6.507812 23.796875 -5.585938 24.078125 -4.890625 C 24.367188 -4.191406 24.925781 -3.84375 25.75 -3.84375 C 26.738281 -3.84375 27.539062 -4.328125 28.15625 -5.296875 C 28.769531 -6.265625 29.238281 -7.5625 29.5625 -9.1875 C 29.882812 -10.8125 30.070312 -12.628906 30.125 -14.640625 C 30.175781 -16.648438 30.097656 -18.710938 29.890625 -20.828125 C 29.691406 -22.941406 29.382812 -24.972656 28.96875 -26.921875 Z M 28.96875 -26.921875 "/></g></g></g><g fill="#9259ba" fill-opacity="1"><g transform="translate(223.556661, 124.974012)"><g><path d="M 9.578125 0.765625 C 7.148438 0.765625 5.1875 0.109375 3.6875 -1.203125 C 2.1875 -2.515625 1.203125 -4.28125 0.734375 -6.5 C 0.273438 -8.71875 0.335938 -11.160156 0.921875 -13.828125 C 1.460938 -16.210938 2.269531 -18.238281 3.34375 -19.90625 C 4.425781 -21.582031 5.613281 -22.945312 6.90625 -24 C 8.207031 -25.0625 9.476562 -25.878906 10.71875 -26.453125 C 11.96875 -27.035156 13.0625 -27.4375 14 -27.65625 C 14.9375 -27.882812 15.578125 -28 15.921875 -28 C 18.378906 -28 20.335938 -27.332031 21.796875 -26 C 23.265625 -24.664062 24.226562 -22.890625 24.6875 -20.671875 C 25.15625 -18.460938 25.082031 -15.988281 24.46875 -13.25 C 23.925781 -10.863281 23.125 -8.851562 22.0625 -7.21875 C 21 -5.582031 19.816406 -4.242188 18.515625 -3.203125 C 17.222656 -2.160156 15.953125 -1.347656 14.703125 -0.765625 C 13.460938 -0.179688 12.378906 0.21875 11.453125 0.4375 C 10.535156 0.65625 9.910156 0.765625 9.578125 0.765625 Z M 14.03125 -1.640625 C 14.945312 -2.015625 15.566406 -3.222656 15.890625 -5.265625 C 16.210938 -7.316406 16.238281 -10.546875 15.96875 -14.953125 C 15.144531 -22.828125 13.609375 -26.390625 11.359375 -25.640625 C 10.441406 -25.265625 9.796875 -24.046875 9.421875 -21.984375 C 9.046875 -19.921875 9.03125 -16.707031 9.375 -12.34375 C 9.75 -8.34375 10.351562 -5.457031 11.1875 -3.6875 C 12.019531 -1.914062 12.96875 -1.234375 14.03125 -1.640625 Z M 14.03125 -1.640625 "/></g></g></g><g fill="#9259ba" fill-opacity="1"><g transform="translate(248.995957, 124.974012)"><g><path d="M 25.90625 -25.75 L 26.109375 -25.59375 C 26.035156 -25.425781 25.816406 -24.972656 25.453125 -24.234375 C 25.097656 -23.503906 24.664062 -22.691406 24.15625 -21.796875 C 23.644531 -20.910156 23.097656 -20.132812 22.515625 -19.46875 C 21.941406 -18.8125 21.414062 -18.484375 20.9375 -18.484375 C 20.5625 -18.484375 20.160156 -18.644531 19.734375 -18.96875 C 19.304688 -19.289062 18.894531 -19.601562 18.5 -19.90625 C 18.113281 -20.21875 17.765625 -20.375 17.453125 -20.375 C 17.148438 -20.375 16.71875 -19.738281 16.15625 -18.46875 C 15.59375 -17.207031 14.753906 -15.09375 13.640625 -12.125 C 12.535156 -9.15625 11.007812 -5.113281 9.0625 0 L 0.515625 0 L 5.78125 -20.375 L 0.921875 -17.859375 L 0.765625 -18.21875 C 2.710938 -20.644531 4.265625 -22.539062 5.421875 -23.90625 C 6.585938 -25.269531 7.550781 -26.234375 8.3125 -26.796875 C 9.082031 -27.359375 9.84375 -27.640625 10.59375 -27.640625 C 11.820312 -27.640625 12.679688 -26.957031 13.171875 -25.59375 C 13.671875 -24.226562 13.800781 -22.332031 13.5625 -19.90625 L 9.265625 -4.859375 L 9.875 -4.859375 C 11.414062 -9.128906 12.710938 -12.710938 13.765625 -15.609375 C 14.828125 -18.515625 15.707031 -20.851562 16.40625 -22.625 C 17.101562 -24.394531 17.71875 -25.671875 18.25 -26.453125 C 18.78125 -27.242188 19.300781 -27.640625 19.8125 -27.640625 C 20.1875 -27.640625 20.644531 -27.410156 21.1875 -26.953125 C 21.738281 -26.492188 22.3125 -26.03125 22.90625 -25.5625 C 23.5 -25.101562 24.050781 -24.875 24.5625 -24.875 C 25.039062 -24.875 25.488281 -25.164062 25.90625 -25.75 Z M 25.90625 -25.75 "/></g></g></g><g fill="#9259ba" fill-opacity="1"><g transform="translate(270.49395, 124.974012)"><g><path d="M 8.65625 -6.5 L 8.703125 -6.5 L 13.671875 -9.015625 L 13.828125 -8.703125 C 11.878906 -6.273438 10.320312 -4.367188 9.15625 -2.984375 C 8 -1.609375 7.035156 -0.640625 6.265625 -0.078125 C 5.503906 0.484375 4.726562 0.765625 3.9375 0.765625 C 2.75 0.765625 1.90625 0.078125 1.40625 -1.296875 C 0.914062 -2.679688 0.789062 -4.585938 1.03125 -7.015625 L 8.03125 -35.21875 L 5.328125 -35.9375 L 5.421875 -36.234375 L 17.359375 -39.71875 L 17.65625 -39.71875 Z M 8.65625 -6.5 "/></g></g></g><g fill="#9259ba" fill-opacity="1"><g transform="translate(285.18425, 124.974012)"><g><path d="M 22.265625 -6.5 L 22.3125 -6.5 L 27.28125 -9.015625 L 27.4375 -8.703125 C 25.488281 -6.273438 23.929688 -4.367188 22.765625 -2.984375 C 21.609375 -1.609375 20.644531 -0.640625 19.875 -0.078125 C 19.113281 0.484375 18.34375 0.765625 17.5625 0.765625 C 16.363281 0.765625 15.515625 0.078125 15.015625 -1.296875 C 14.523438 -2.679688 14.398438 -4.585938 14.640625 -7.015625 L 18.53125 -22.625 L 17.8125 -22.625 C 16.75 -18.59375 15.738281 -15.195312 14.78125 -12.4375 C 13.832031 -9.675781 12.90625 -7.429688 12 -5.703125 C 11.09375 -3.984375 10.226562 -2.671875 9.40625 -1.765625 C 8.59375 -0.859375 7.785156 -0.242188 6.984375 0.078125 C 6.179688 0.398438 5.390625 0.5625 4.609375 0.5625 C 3.035156 0.5625 1.796875 -0.0546875 0.890625 -1.296875 C -0.00390625 -2.546875 -0.382812 -4.316406 -0.25 -6.609375 C -0.15625 -8.304688 0.1875 -10.128906 0.78125 -12.078125 C 1.382812 -14.023438 2.195312 -15.925781 3.21875 -17.78125 C 4.25 -19.644531 5.503906 -21.328125 6.984375 -22.828125 C 8.472656 -24.328125 10.15625 -25.53125 12.03125 -26.4375 C 13.90625 -27.34375 15.988281 -27.796875 18.28125 -27.796875 C 18.550781 -27.796875 18.8125 -27.796875 19.0625 -27.796875 C 19.320312 -27.796875 19.570312 -27.78125 19.8125 -27.75 L 21.65625 -35.21875 L 18.9375 -35.9375 L 19.046875 -36.234375 L 30.96875 -39.71875 L 31.28125 -39.71875 Z M 16.734375 -22.171875 C 17.003906 -23.429688 17.085938 -24.359375 16.984375 -24.953125 C 16.890625 -25.546875 16.703125 -25.9375 16.421875 -26.125 C 16.148438 -26.3125 15.894531 -26.40625 15.65625 -26.40625 C 14.90625 -26.40625 14.144531 -25.925781 13.375 -24.96875 C 12.613281 -24.019531 11.898438 -22.773438 11.234375 -21.234375 C 10.566406 -19.703125 9.976562 -18.066406 9.46875 -16.328125 C 8.957031 -14.585938 8.554688 -12.921875 8.265625 -11.328125 C 7.972656 -9.742188 7.828125 -8.425781 7.828125 -7.375 C 7.828125 -5.800781 8.304688 -5.015625 9.265625 -5.015625 C 9.847656 -5.015625 10.4375 -5.492188 11.03125 -6.453125 C 11.625 -7.410156 12.226562 -8.707031 12.84375 -10.34375 C 13.457031 -11.976562 14.085938 -13.816406 14.734375 -15.859375 C 15.390625 -17.910156 16.054688 -20.015625 16.734375 -22.171875 Z M 16.734375 -22.171875 "/></g></g></g><g fill="#9259ba" fill-opacity="0.2392"><g transform="translate(314.458426, 125.833699)"><g/></g></g><g fill="#9259ba" fill-opacity="1"><g transform="translate(313.598739, 124.974012)"><g/></g></g><g fill="#ed5d88" fill-opacity="1"><g transform="translate(121.700716, 168.848953)"><g><path d="M 5.078125 -2.75 L 6.203125 -2.75 L 6.203125 -1.90625 L 5.078125 -1.90625 L 5.078125 0 L 4.03125 0 L 4.03125 -1.90625 L 0.296875 -1.90625 L 0.296875 -2.515625 L 3.96875 -8.1875 L 5.078125 -8.1875 Z M 1.484375 -2.75 L 4.03125 -2.75 L 4.03125 -6.765625 L 3.90625 -6.546875 Z M 1.484375 -2.75 "/></g></g></g><g fill="#ed5d88" fill-opacity="1"><g transform="translate(129.245304, 168.848953)"><g/></g></g><g fill="#ed5d88" fill-opacity="1"><g transform="translate(133.176845, 168.848953)"><g><path d="M 3.453125 -4.078125 L 5.578125 -8.1875 L 6.8125 -8.1875 L 3.984375 -3.046875 L 3.984375 0 L 2.90625 0 L 2.90625 -3.046875 L 0.078125 -8.1875 L 1.328125 -8.1875 Z M 3.453125 -4.078125 "/></g></g></g><g fill="#ed5d88" fill-opacity="1"><g transform="translate(141.170957, 168.848953)"><g><path d="M 5.578125 -3.78125 L 2.03125 -3.78125 L 2.03125 -0.875 L 6.15625 -0.875 L 6.15625 0 L 0.953125 0 L 0.953125 -8.1875 L 6.09375 -8.1875 L 6.09375 -7.296875 L 2.03125 -7.296875 L 2.03125 -4.671875 L 5.578125 -4.671875 Z M 5.578125 -3.78125 "/></g></g></g><g fill="#ed5d88" fill-opacity="1"><g transform="translate(148.794213, 168.848953)"><g><path d="M 5.46875 -2.140625 L 2.046875 -2.140625 L 1.265625 0 L 0.15625 0 L 3.28125 -8.1875 L 4.234375 -8.1875 L 7.359375 0 L 6.25 0 Z M 2.375 -3.03125 L 5.15625 -3.03125 L 3.75 -6.859375 Z M 2.375 -3.03125 "/></g></g></g><g fill="#ed5d88" fill-opacity="1"><g transform="translate(157.383945, 168.848953)"><g><path d="M 3.953125 -3.3125 L 2.03125 -3.3125 L 2.03125 0 L 0.9375 0 L 0.9375 -8.1875 L 3.65625 -8.1875 C 4.570312 -8.1875 5.28125 -7.972656 5.78125 -7.546875 C 6.28125 -7.128906 6.53125 -6.519531 6.53125 -5.71875 C 6.53125 -5.207031 6.390625 -4.765625 6.109375 -4.390625 C 5.835938 -4.015625 5.457031 -3.734375 4.96875 -3.546875 L 6.890625 -0.0625 L 6.890625 0 L 5.734375 0 Z M 2.03125 -4.1875 L 3.6875 -4.1875 C 4.226562 -4.1875 4.65625 -4.328125 4.96875 -4.609375 C 5.28125 -4.890625 5.4375 -5.257812 5.4375 -5.71875 C 5.4375 -6.226562 5.285156 -6.617188 4.984375 -6.890625 C 4.679688 -7.160156 4.25 -7.296875 3.6875 -7.296875 L 2.03125 -7.296875 Z M 2.03125 -4.1875 "/></g></g></g><g fill="#ed5d88" fill-opacity="1"><g transform="translate(165.552248, 168.848953)"><g><path d="M 3.359375 -3.65625 C 2.429688 -3.914062 1.753906 -4.238281 1.328125 -4.625 C 0.910156 -5.019531 0.703125 -5.5 0.703125 -6.0625 C 0.703125 -6.707031 0.957031 -7.238281 1.46875 -7.65625 C 1.988281 -8.082031 2.660156 -8.296875 3.484375 -8.296875 C 4.046875 -8.296875 4.546875 -8.1875 4.984375 -7.96875 C 5.429688 -7.75 5.773438 -7.445312 6.015625 -7.0625 C 6.253906 -6.6875 6.375 -6.269531 6.375 -5.8125 L 5.296875 -5.8125 C 5.296875 -6.3125 5.140625 -6.703125 4.828125 -6.984375 C 4.515625 -7.265625 4.066406 -7.40625 3.484375 -7.40625 C 2.953125 -7.40625 2.535156 -7.285156 2.234375 -7.046875 C 1.941406 -6.816406 1.796875 -6.492188 1.796875 -6.078125 C 1.796875 -5.742188 1.9375 -5.460938 2.21875 -5.234375 C 2.5 -5.003906 2.976562 -4.789062 3.65625 -4.59375 C 4.34375 -4.40625 4.878906 -4.195312 5.265625 -3.96875 C 5.648438 -3.738281 5.9375 -3.46875 6.125 -3.15625 C 6.3125 -2.851562 6.40625 -2.492188 6.40625 -2.078125 C 6.40625 -1.410156 6.144531 -0.878906 5.625 -0.484375 C 5.101562 -0.0859375 4.410156 0.109375 3.546875 0.109375 C 2.984375 0.109375 2.457031 0.00390625 1.96875 -0.203125 C 1.488281 -0.421875 1.113281 -0.71875 0.84375 -1.09375 C 0.582031 -1.46875 0.453125 -1.894531 0.453125 -2.375 L 1.53125 -2.375 C 1.53125 -1.875 1.710938 -1.476562 2.078125 -1.1875 C 2.441406 -0.90625 2.929688 -0.765625 3.546875 -0.765625 C 4.117188 -0.765625 4.554688 -0.878906 4.859375 -1.109375 C 5.160156 -1.347656 5.3125 -1.664062 5.3125 -2.0625 C 5.3125 -2.46875 5.171875 -2.78125 4.890625 -3 C 4.609375 -3.21875 4.097656 -3.4375 3.359375 -3.65625 Z M 3.359375 -3.65625 "/></g></g></g><g fill="#ed5d88" fill-opacity="1"><g transform="translate(173.462077, 168.848953)"><g/></g></g><g fill="#ed5d88" fill-opacity="1"><g transform="translate(177.393615, 168.848953)"><g><path d="M 2.71875 -2.578125 L 2.875 -1.5 L 3.109375 -2.46875 L 4.71875 -8.1875 L 5.640625 -8.1875 L 7.21875 -2.46875 L 7.4375 -1.484375 L 7.609375 -2.59375 L 8.890625 -8.1875 L 9.96875 -8.1875 L 7.984375 0 L 7 0 L 5.3125 -5.96875 L 5.1875 -6.59375 L 5.0625 -5.96875 L 3.3125 0 L 2.328125 0 L 0.34375 -8.1875 L 1.421875 -8.1875 Z M 2.71875 -2.578125 "/></g></g></g><g fill="#ed5d88" fill-opacity="1"><g transform="translate(188.686106, 168.848953)"><g><path d="M 2.109375 0 L 1.03125 0 L 1.03125 -8.1875 L 2.109375 -8.1875 Z M 2.109375 0 "/></g></g></g><g fill="#ed5d88" fill-opacity="1"><g transform="translate(192.898596, 168.848953)"><g><path d="M 6.609375 -7.296875 L 3.96875 -7.296875 L 3.96875 0 L 2.90625 0 L 2.90625 -7.296875 L 0.28125 -7.296875 L 0.28125 -8.1875 L 6.609375 -8.1875 Z M 6.609375 -7.296875 "/></g></g></g><g fill="#ed5d88" fill-opacity="1"><g transform="translate(200.847754, 168.848953)"><g><path d="M 7.25 0 L 6.15625 0 L 6.15625 -3.78125 L 2.03125 -3.78125 L 2.03125 0 L 0.953125 0 L 0.953125 -8.1875 L 2.03125 -8.1875 L 2.03125 -4.671875 L 6.15625 -4.671875 L 6.15625 -8.1875 L 7.25 -8.1875 Z M 7.25 0 "/></g></g></g><g fill="#ed5d88" fill-opacity="1"><g transform="translate(210.134245, 168.848953)"><g/></g></g><g fill="#ed5d88" fill-opacity="1"><g transform="translate(214.065782, 168.848953)"><g><path d="M 7.25 0 L 6.15625 0 L 2.03125 -6.3125 L 2.03125 0 L 0.953125 0 L 0.953125 -8.1875 L 2.03125 -8.1875 L 6.171875 -1.84375 L 6.171875 -8.1875 L 7.25 -8.1875 Z M 7.25 0 "/></g></g></g><g fill="#ed5d88" fill-opacity="1"><g transform="translate(223.352273, 168.848953)"><g><path d="M 6.609375 -7.296875 L 3.96875 -7.296875 L 3.96875 0 L 2.90625 0 L 2.90625 -7.296875 L 0.28125 -7.296875 L 0.28125 -8.1875 L 6.609375 -8.1875 Z M 6.609375 -7.296875 "/></g></g></g><g fill="#ed5d88" fill-opacity="1"><g transform="translate(231.301431, 168.848953)"><g><path d="M 3.625 -5.046875 L 5.578125 -8.1875 L 6.859375 -8.1875 L 4.265625 -4.125 L 6.921875 0 L 5.640625 0 L 3.625 -3.1875 L 1.59375 0 L 0.328125 0 L 2.96875 -4.125 L 0.375 -8.1875 L 1.640625 -8.1875 Z M 3.625 -5.046875 "/></g></g></g></svg>