<svg xmlns="http://www.w3.org/2000/svg" xmlns:xlink="http://www.w3.org/1999/xlink" width="40" zoomAndPan="magnify" viewBox="0 0 30 30.000001" height="40" preserveAspectRatio="xMidYMid meet" version="1.0"><defs><clipPath id="652377fef6"><path d="M 6.289062 5.804688 L 23.710938 5.804688 L 23.710938 23.226562 L 6.289062 23.226562 Z M 6.289062 5.804688 " clip-rule="nonzero"/></clipPath></defs><g clip-path="url(#652377fef6)"><path fill="#9259ba" d="M 23.710938 14.515625 C 23.710938 15.089844 23.652344 15.65625 23.542969 16.214844 C 23.429688 16.777344 23.265625 17.320312 23.046875 17.847656 C 22.828125 18.378906 22.558594 18.878906 22.242188 19.355469 C 21.925781 19.832031 21.5625 20.269531 21.160156 20.675781 C 20.753906 21.078125 20.316406 21.441406 19.839844 21.757812 C 19.363281 22.074219 18.863281 22.34375 18.332031 22.5625 C 17.804688 22.78125 17.261719 22.945312 16.699219 23.058594 C 16.140625 23.171875 15.574219 23.226562 15 23.226562 C 14.429688 23.226562 13.863281 23.171875 13.300781 23.058594 C 12.742188 22.945312 12.195312 22.78125 11.667969 22.5625 C 11.140625 22.34375 10.636719 22.074219 10.160156 21.757812 C 9.6875 21.441406 9.246094 21.078125 8.839844 20.675781 C 8.4375 20.269531 8.078125 19.832031 7.757812 19.355469 C 7.441406 18.878906 7.171875 18.378906 6.953125 17.847656 C 6.734375 17.320312 6.570312 16.777344 6.457031 16.214844 C 6.347656 15.65625 6.289062 15.089844 6.289062 14.515625 C 6.289062 13.945312 6.347656 13.378906 6.457031 12.816406 C 6.570312 12.257812 6.734375 11.710938 6.953125 11.183594 C 7.171875 10.65625 7.441406 10.152344 7.757812 9.675781 C 8.078125 9.203125 8.4375 8.761719 8.839844 8.359375 C 9.246094 7.953125 9.6875 7.59375 10.160156 7.273438 C 10.636719 6.957031 11.140625 6.6875 11.667969 6.46875 C 12.195312 6.25 12.742188 6.085938 13.300781 5.972656 C 13.863281 5.863281 14.429688 5.804688 15 5.804688 C 15.574219 5.804688 16.140625 5.863281 16.699219 5.972656 C 17.261719 6.085938 17.804688 6.25 18.332031 6.46875 C 18.863281 6.6875 19.363281 6.957031 19.839844 7.273438 C 20.316406 7.59375 20.753906 7.953125 21.160156 8.359375 C 21.5625 8.761719 21.925781 9.203125 22.242188 9.675781 C 22.558594 10.152344 22.828125 10.65625 23.046875 11.183594 C 23.265625 11.710938 23.429688 12.257812 23.542969 12.816406 C 23.652344 13.378906 23.710938 13.945312 23.710938 14.515625 Z M 23.710938 14.515625 " fill-opacity="1" fill-rule="nonzero"/></g><path fill="#ffffff" d="M 9.78125 11.339844 C 9.871094 11.28125 9.976562 11.25 10.089844 11.25 L 19.859375 11.25 C 19.984375 11.25 20.105469 11.292969 20.199219 11.363281 L 14.976562 14.195312 Z M 20.351562 17.488281 C 20.394531 17.410156 20.417969 17.320312 20.417969 17.222656 L 20.417969 11.878906 L 17.199219 13.59375 Z M 9.53125 11.839844 L 9.53125 17.222656 C 9.53125 17.273438 9.539062 17.320312 9.550781 17.367188 L 12.757812 13.59375 Z M 16.695312 13.875 L 15.113281 14.761719 C 15.074219 14.785156 15.023438 14.796875 14.976562 14.796875 C 14.929688 14.796875 14.882812 14.785156 14.839844 14.761719 L 13.261719 13.875 L 9.945312 17.765625 C 9.992188 17.777344 10.042969 17.785156 10.089844 17.785156 L 19.859375 17.785156 C 19.859375 17.785156 19.863281 17.785156 19.867188 17.785156 Z M 16.695312 13.875 " fill-opacity="1" fill-rule="nonzero"/></svg>