<svg xmlns="http://www.w3.org/2000/svg" xmlns:xlink="http://www.w3.org/1999/xlink" width="40" zoomAndPan="magnify" viewBox="0 0 30 30.000001" height="40" preserveAspectRatio="xMidYMid meet" version="1.0"><defs><clipPath id="8b7efb3a56"><path d="M 6.289062 5.804688 L 23.710938 5.804688 L 23.710938 23.226562 L 6.289062 23.226562 Z M 6.289062 5.804688 " clip-rule="nonzero"/></clipPath></defs><g clip-path="url(#8b7efb3a56)"><path fill="#9259ba" d="M 15 5.804688 C 10.195312 5.804688 6.289062 9.710938 6.289062 14.515625 C 6.289062 19.320312 10.195312 23.226562 15 23.226562 C 19.804688 23.226562 23.710938 19.320312 23.710938 14.515625 C 23.710938 9.710938 19.804688 5.804688 15 5.804688 Z M 15 22.613281 C 10.527344 22.613281 6.902344 18.988281 6.902344 14.515625 C 6.902344 10.042969 10.527344 6.417969 15 6.417969 C 19.472656 6.417969 23.097656 10.042969 23.097656 14.515625 C 23.097656 18.988281 19.472656 22.613281 15 22.613281 Z M 15 22.613281 " fill-opacity="1" fill-rule="nonzero"/></g><path fill="#9259ba" d="M 19.386719 11.710938 L 16.4375 14.515625 L 19.386719 17.320312 C 19.464844 17.214844 19.515625 17.09375 19.535156 16.960938 L 19.535156 12.070312 C 19.515625 11.9375 19.464844 11.816406 19.386719 11.710938 Z M 19.386719 11.710938 " fill-opacity="1" fill-rule="nonzero"/><path fill="#9259ba" d="M 15 15.882812 L 13.785156 14.726562 L 10.839844 17.53125 C 10.980469 17.625 11.132812 17.667969 11.296875 17.667969 L 18.703125 17.667969 C 18.867188 17.667969 19.019531 17.625 19.160156 17.53125 L 16.214844 14.726562 Z M 15 15.882812 " fill-opacity="1" fill-rule="nonzero"/><path fill="#9259ba" d="M 10.613281 11.710938 C 10.535156 11.816406 10.484375 11.9375 10.464844 12.070312 L 10.464844 16.960938 C 10.484375 17.09375 10.535156 17.214844 10.613281 17.320312 L 13.5625 14.515625 Z M 10.613281 11.710938 " fill-opacity="1" fill-rule="nonzero"/><path fill="#9259ba" d="M 13.785156 14.304688 L 15 15.460938 L 19.160156 11.5 C 19.019531 11.410156 18.867188 11.363281 18.703125 11.363281 L 11.296875 11.363281 C 11.132812 11.363281 10.980469 11.410156 10.839844 11.5 Z M 13.785156 14.304688 " fill-opacity="1" fill-rule="nonzero"/></svg>