<svg xmlns="http://www.w3.org/2000/svg" xmlns:xlink="http://www.w3.org/1999/xlink" width="40" zoomAndPan="magnify" viewBox="0 0 30 30.000001" height="40" preserveAspectRatio="xMidYMid meet" version="1.0"><defs><clipPath id="101ca885e1"><path d="M 3.386719 4.882812 L 26.613281 4.882812 L 26.613281 24.480469 L 3.386719 24.480469 Z M 3.386719 4.882812 " clip-rule="nonzero"/></clipPath></defs><g clip-path="url(#101ca885e1)"><path fill="#9259ba" d="M 26.367188 5.421875 C 26.160156 5.054688 25.847656 4.886719 25.429688 4.917969 L 5.289062 6.128906 C 4.878906 6.152344 4.519531 6.296875 4.203125 6.5625 C 3.890625 6.828125 3.6875 7.160156 3.59375 7.5625 C 3.503906 7.960938 3.539062 8.351562 3.703125 8.726562 C 3.871094 9.101562 4.132812 9.390625 4.488281 9.59375 L 11.792969 13.71875 C 11.863281 13.753906 11.898438 13.8125 11.894531 13.890625 L 11.8125 22.277344 C 11.808594 22.691406 11.925781 23.0625 12.167969 23.394531 C 12.414062 23.726562 12.730469 23.953125 13.125 24.070312 C 13.304688 24.125 13.488281 24.152344 13.675781 24.152344 C 13.988281 24.152344 14.277344 24.078125 14.550781 23.929688 C 14.824219 23.78125 15.046875 23.578125 15.21875 23.320312 L 26.335938 6.480469 C 26.570312 6.132812 26.578125 5.78125 26.367188 5.421875 Z M 4.890625 8.886719 C 4.6875 8.773438 4.539062 8.609375 4.449219 8.398438 C 4.355469 8.1875 4.335938 7.96875 4.386719 7.742188 C 4.4375 7.519531 4.550781 7.332031 4.730469 7.183594 C 4.90625 7.035156 5.109375 6.953125 5.339844 6.9375 L 24.964844 5.761719 L 12.296875 13.074219 C 12.261719 13.050781 12.230469 13.03125 12.195312 13.007812 Z M 14.539062 22.871094 C 14.410156 23.066406 14.238281 23.199219 14.019531 23.277344 C 13.804688 23.355469 13.585938 23.363281 13.363281 23.292969 C 13.144531 23.226562 12.964844 23.097656 12.828125 22.914062 C 12.691406 22.726562 12.625 22.519531 12.628906 22.289062 L 12.707031 13.898438 C 12.707031 13.859375 12.707031 13.820312 12.703125 13.777344 L 25.371094 6.464844 Z M 14.539062 22.871094 " fill-opacity="1" fill-rule="nonzero"/></g></svg>