<svg xmlns="http://www.w3.org/2000/svg" xmlns:xlink="http://www.w3.org/1999/xlink" width="40" zoomAndPan="magnify" viewBox="0 0 30 30.000001" height="40" preserveAspectRatio="xMidYMid meet" version="1.0"><defs><clipPath id="66055743c5"><path d="M 3.386719 6.648438 L 26.613281 6.648438 L 26.613281 26.246094 L 3.386719 26.246094 Z M 3.386719 6.648438 " clip-rule="nonzero"/></clipPath></defs><g clip-path="url(#66055743c5)"><path fill="#9259ba" d="M 26.164062 6.648438 L 12.207031 14.707031 C 12.171875 14.683594 12.132812 14.65625 12.09375 14.636719 L 4.046875 10.09375 C 3.824219 9.96875 3.664062 9.789062 3.5625 9.554688 C 3.457031 9.324219 3.4375 9.082031 3.492188 8.835938 C 3.550781 8.585938 3.675781 8.378906 3.871094 8.214844 C 4.066406 8.050781 4.289062 7.960938 4.542969 7.945312 Z M 12.65625 15.484375 C 12.660156 15.527344 12.660156 15.570312 12.660156 15.617188 L 12.574219 24.859375 C 12.570312 25.113281 12.644531 25.34375 12.792969 25.546875 C 12.945312 25.753906 13.140625 25.890625 13.386719 25.964844 C 13.628906 26.042969 13.871094 26.035156 14.109375 25.949219 C 14.347656 25.863281 14.539062 25.714844 14.679688 25.5 L 26.613281 7.425781 Z M 12.65625 15.484375 " fill-opacity="1" fill-rule="nonzero"/></g></svg>