<svg xmlns="http://www.w3.org/2000/svg" xmlns:xlink="http://www.w3.org/1999/xlink" width="40" zoomAndPan="magnify" viewBox="0 0 30 30.000001" height="40" preserveAspectRatio="xMidYMid meet" version="1.0"><defs><clipPath id="08e27c96c3"><path d="M 0.484375 0 L 29.515625 0 L 29.515625 29.03125 L 0.484375 29.03125 Z M 0.484375 0 " clip-rule="nonzero"/></clipPath><clipPath id="e07058c2f9"><path d="M 5.054688 2.214844 L 24.652344 2.214844 L 24.652344 26.890625 L 5.054688 26.890625 Z M 5.054688 2.214844 " clip-rule="nonzero"/></clipPath></defs><g clip-path="url(#08e27c96c3)"><path fill="#ffffff" d="M 0.484375 0 L 29.515625 0 L 29.515625 29.03125 L 0.484375 29.03125 Z M 0.484375 0 " fill-opacity="1" fill-rule="nonzero"/><path fill="#ffffff" d="M 0.484375 0 L 29.515625 0 L 29.515625 29.03125 L 0.484375 29.03125 Z M 0.484375 0 " fill-opacity="1" fill-rule="nonzero"/></g><g clip-path="url(#e07058c2f9)"><path fill="#9259ba" d="M 9.582031 6.472656 C 9.605469 6.183594 9.480469 5.890625 9.257812 5.664062 C 9.164062 5.988281 8.957031 6.289062 8.660156 6.507812 C 8.25 6.8125 7.726562 6.933594 7.257812 6.828125 C 6.957031 6.761719 6.683594 6.609375 6.453125 6.398438 C 6.492188 6.46875 6.53125 6.535156 6.574219 6.601562 C 6.753906 6.871094 6.972656 7.164062 7.234375 7.285156 C 7.8125 7.558594 8.480469 7.777344 9.085938 7.328125 C 9.378906 7.109375 9.558594 6.796875 9.582031 6.472656 Z M 9.167969 4.398438 C 9.546875 4.320312 9.898438 4.382812 10.214844 4.539062 C 9.839844 3.964844 9.269531 3.507812 8.59375 3.648438 C 8.441406 3.683594 8.296875 3.753906 8.179688 3.851562 C 8.335938 3.894531 8.492188 3.96875 8.636719 4.066406 C 8.789062 4.171875 8.917969 4.300781 9.023438 4.441406 C 9.070312 4.425781 9.121094 4.410156 9.167969 4.398438 Z M 10.425781 19.074219 L 10.429688 18.699219 C 10.359375 18.65625 10.28125 18.609375 10.203125 18.570312 C 10.128906 18.527344 10.042969 18.492188 9.953125 18.457031 C 9.785156 18.386719 9.59375 18.308594 9.410156 18.171875 C 9.136719 17.960938 8.816406 17.800781 8.476562 17.628906 C 8.195312 17.484375 7.90625 17.335938 7.628906 17.15625 C 7.386719 17 7.171875 16.835938 6.96875 16.671875 C 7.386719 17.132812 7.894531 17.566406 8.496094 17.960938 C 8.753906 18.128906 9.035156 18.273438 9.308594 18.414062 C 9.664062 18.59375 9.996094 18.761719 10.300781 18.992188 C 10.339844 19.019531 10.382812 19.046875 10.425781 19.074219 Z M 10.761719 7.191406 C 10.765625 6.621094 10.753906 6.042969 10.628906 5.5 C 10.605469 5.402344 10.574219 5.300781 10.539062 5.195312 C 10.1875 4.847656 9.742188 4.636719 9.242188 4.742188 C 9.226562 4.746094 9.214844 4.75 9.199219 4.753906 C 9.269531 4.914062 9.304688 5.082031 9.308594 5.25 C 9.726562 5.554688 9.964844 6.027344 9.933594 6.496094 C 9.910156 6.789062 9.792969 7.070312 9.601562 7.3125 C 9.746094 7.28125 9.886719 7.253906 10.035156 7.234375 C 10.277344 7.203125 10.519531 7.191406 10.761719 7.191406 Z M 12.105469 7.394531 L 12.097656 7.003906 C 12.085938 6.5 12.074219 5.976562 11.953125 5.476562 C 11.898438 5.261719 11.84375 5.085938 11.777344 4.933594 C 11.808594 5.25 11.816406 5.558594 11.828125 5.867188 L 11.863281 7.324219 C 11.945312 7.34375 12.027344 7.367188 12.105469 7.394531 Z M 12.332031 16.40625 L 12.296875 14.984375 C 12.296875 14.964844 12.300781 14.949219 12.304688 14.933594 L 12.039062 14.371094 L 12.085938 16.296875 C 12.164062 16.332031 12.25 16.367188 12.332031 16.40625 Z M 15.011719 12.347656 C 14.980469 12.25 14.949219 12.152344 14.929688 12.0625 C 14.828125 11.660156 14.796875 11.242188 14.832031 10.828125 C 14.8125 10.78125 14.792969 10.734375 14.769531 10.6875 C 14.769531 10.691406 14.769531 10.695312 14.769531 10.699219 C 14.800781 11.683594 14.382812 12.640625 13.652344 13.261719 C 13.246094 13.605469 12.746094 13.851562 12.167969 13.992188 L 12.542969 14.785156 C 13.148438 14.667969 13.660156 14.433594 14.058594 14.09375 C 14.574219 13.65625 14.914062 13.027344 15.011719 12.347656 Z M 16.109375 24.851562 C 16.382812 23.773438 16.4375 22.75 16.277344 21.808594 C 16.273438 21.800781 16.277344 21.796875 16.277344 21.785156 L 16.078125 21.316406 C 16.128906 22.109375 16.046875 22.945312 15.828125 23.820312 C 15.8125 23.875 15.800781 23.933594 15.785156 23.988281 C 15.660156 24.441406 15.457031 25.007812 14.980469 25.371094 C 14.683594 25.597656 14.292969 25.722656 13.878906 25.722656 C 13.800781 25.722656 13.722656 25.71875 13.644531 25.707031 C 13.257812 25.664062 12.859375 25.515625 12.457031 25.257812 C 12.429688 25.242188 12.402344 25.222656 12.378906 25.203125 C 12.640625 25.539062 12.960938 25.832031 13.320312 26.0625 C 13.671875 26.28125 14.015625 26.414062 14.347656 26.453125 C 14.738281 26.496094 15.128906 26.398438 15.40625 26.191406 C 15.789062 25.898438 15.960938 25.410156 16.070312 25.011719 C 16.085938 24.960938 16.097656 24.90625 16.109375 24.851562 Z M 19.125 13.554688 C 19.40625 13.039062 19.40625 12.390625 19.125 11.894531 C 19.101562 11.855469 19.078125 11.820312 19.054688 11.785156 C 19.027344 12.070312 18.945312 12.359375 18.804688 12.613281 C 18.46875 13.214844 17.828125 13.644531 17.125 13.734375 C 16.710938 13.785156 16.304688 13.714844 15.96875 13.542969 C 16.203125 13.851562 16.457031 14.109375 16.679688 14.257812 C 16.96875 14.449219 17.34375 14.527344 17.734375 14.476562 C 18.316406 14.40625 18.847656 14.050781 19.125 13.554688 Z M 20.128906 10.007812 C 20.238281 10.046875 20.347656 10.097656 20.449219 10.152344 C 20.171875 9.722656 19.777344 9.398438 19.34375 9.242188 C 18.898438 9.085938 18.394531 9.097656 17.957031 9.28125 C 17.769531 9.363281 17.589844 9.476562 17.429688 9.617188 C 17.785156 9.679688 18.121094 9.847656 18.394531 10.085938 C 18.421875 10.074219 18.441406 10.0625 18.464844 10.050781 C 18.988281 9.832031 19.597656 9.816406 20.128906 10.007812 Z M 20.917969 12.96875 C 21.019531 12.597656 20.992188 12.117188 20.945312 11.648438 C 20.917969 11.355469 20.855469 11.074219 20.765625 10.8125 C 20.542969 10.601562 20.285156 10.433594 20.011719 10.335938 C 19.578125 10.179688 19.082031 10.191406 18.652344 10.359375 C 18.707031 10.425781 18.753906 10.5 18.800781 10.574219 C 18.917969 10.78125 18.996094 11.007812 19.035156 11.242188 C 19.1875 11.378906 19.324219 11.539062 19.425781 11.71875 C 19.769531 12.320312 19.769531 13.105469 19.429688 13.722656 C 19.101562 14.316406 18.46875 14.738281 17.777344 14.824219 C 17.304688 14.882812 16.84375 14.785156 16.488281 14.546875 C 16.109375 14.296875 15.78125 13.886719 15.621094 13.664062 C 15.441406 13.414062 15.328125 13.15625 15.277344 12.898438 C 15.269531 12.886719 15.261719 12.875 15.253906 12.863281 C 15.082031 13.441406 14.746094 13.96875 14.285156 14.359375 C 13.847656 14.734375 13.296875 14.992188 12.648438 15.125 L 12.683594 16.570312 C 13.328125 16.875 13.984375 17.25 14.535156 17.769531 C 14.972656 18.183594 15.324219 18.679688 15.585938 19.253906 C 16.8125 18.640625 17.980469 18 18.867188 17.054688 C 18.957031 16.964844 19.042969 16.867188 19.125 16.769531 C 19.671875 16.113281 20.113281 15.320312 20.484375 14.339844 C 20.644531 13.917969 20.785156 13.46875 20.917969 12.96875 Z M 23.8125 13.023438 C 23.933594 12.25 23.816406 11.347656 23.460938 10.332031 C 23.195312 9.558594 22.773438 8.945312 22.246094 8.554688 C 22.0625 8.421875 21.855469 8.300781 21.609375 8.1875 C 21.441406 8.109375 21.253906 8.035156 21.019531 7.953125 C 20.421875 7.746094 19.636719 7.507812 18.851562 7.550781 C 18.253906 7.582031 17.566406 7.792969 17.011719 8.117188 C 16.355469 8.5 15.832031 9.078125 15.53125 9.75 C 15.222656 10.441406 15.152344 11.226562 15.335938 11.960938 C 15.425781 12.328125 15.621094 12.820312 16.042969 13.101562 C 16.324219 13.289062 16.691406 13.363281 17.074219 13.316406 C 17.644531 13.246094 18.164062 12.898438 18.4375 12.410156 C 18.714844 11.90625 18.714844 11.269531 18.4375 10.785156 C 18.148438 10.285156 17.585938 9.976562 17.023438 10.011719 L 16.996094 10.011719 C 16.914062 10.019531 16.835938 9.976562 16.796875 9.90625 C 16.757812 9.832031 16.761719 9.746094 16.808594 9.679688 C 17.0625 9.332031 17.40625 9.058594 17.796875 8.894531 C 18.328125 8.671875 18.941406 8.65625 19.484375 8.847656 C 20.015625 9.039062 20.488281 9.429688 20.820312 9.949219 C 21.113281 10.410156 21.304688 10.984375 21.363281 11.609375 C 21.410156 12.113281 21.441406 12.640625 21.324219 13.078125 C 21.1875 13.59375 21.039062 14.054688 20.878906 14.488281 C 20.492188 15.511719 20.023438 16.34375 19.445312 17.039062 C 19.359375 17.144531 19.265625 17.246094 19.175781 17.34375 C 18.191406 18.386719 16.910156 19.066406 15.570312 19.726562 C 15.519531 19.753906 15.460938 19.757812 15.40625 19.734375 C 15.351562 19.714844 15.308594 19.671875 15.285156 19.617188 C 15.042969 19.011719 14.691406 18.496094 14.246094 18.074219 C 13.535156 17.402344 12.644531 16.992188 11.796875 16.628906 C 11.722656 16.597656 11.671875 16.523438 11.667969 16.441406 L 11.605469 13.859375 C 11.601562 13.753906 11.675781 13.664062 11.777344 13.648438 C 12.421875 13.535156 12.960938 13.296875 13.378906 12.941406 C 14.015625 12.402344 14.378906 11.570312 14.351562 10.710938 C 14.328125 9.890625 13.933594 9.066406 13.296875 8.507812 C 12.847656 8.109375 12.265625 7.832031 11.613281 7.699219 C 11.519531 7.679688 11.449219 7.597656 11.449219 7.5 L 11.40625 5.878906 C 11.394531 5.375 11.382812 4.855469 11.261719 4.355469 C 11.15625 3.929688 10.953125 3.363281 10.570312 3.113281 C 10.246094 2.902344 9.785156 2.753906 9.300781 2.699219 C 8.757812 2.640625 7.957031 2.660156 7.246094 3.09375 C 6.597656 3.488281 6.1875 4.15625 6.179688 4.835938 C 6.167969 5.574219 6.683594 6.269531 7.351562 6.417969 C 7.699219 6.496094 8.097656 6.40625 8.410156 6.171875 C 8.695312 5.960938 8.871094 5.660156 8.890625 5.34375 C 8.914062 4.996094 8.726562 4.640625 8.402344 4.414062 C 8.203125 4.277344 7.992188 4.210938 7.785156 4.21875 C 7.710938 4.222656 7.640625 4.183594 7.601562 4.121094 C 7.558594 4.058594 7.558594 3.976562 7.59375 3.910156 C 7.777344 3.570312 8.117188 3.320312 8.503906 3.238281 C 9.820312 2.960938 10.792969 4.367188 11.039062 5.402344 C 11.191406 6.058594 11.183594 6.734375 11.179688 7.394531 L 11.179688 7.410156 C 11.179688 7.46875 11.15625 7.519531 11.113281 7.558594 C 11.074219 7.601562 11.019531 7.621094 10.960938 7.617188 C 10.878906 7.613281 10.796875 7.609375 10.714844 7.609375 C 10.503906 7.609375 10.296875 7.625 10.089844 7.652344 C 8.5625 7.847656 7.144531 8.734375 6.296875 10.019531 C 6.042969 10.40625 5.769531 10.863281 5.664062 11.328125 C 5.5625 11.761719 5.515625 12.234375 5.527344 12.726562 C 5.546875 13.730469 5.820312 14.644531 6.324219 15.367188 C 6.6875 15.898438 7.191406 16.367188 7.859375 16.804688 C 8.113281 16.972656 8.394531 17.117188 8.667969 17.253906 C 9.023438 17.433594 9.359375 17.605469 9.664062 17.835938 C 9.804688 17.941406 9.953125 18.003906 10.113281 18.066406 C 10.210938 18.109375 10.304688 18.148438 10.402344 18.199219 C 10.53125 18.265625 10.648438 18.339844 10.75 18.40625 C 10.8125 18.445312 10.847656 18.511719 10.847656 18.582031 L 10.839844 20.109375 C 10.835938 21.152344 10.832031 22.332031 11.304688 23.347656 C 11.605469 23.980469 12.09375 24.53125 12.679688 24.90625 C 13.027344 25.125 13.367188 25.253906 13.691406 25.289062 C 14.078125 25.335938 14.460938 25.242188 14.726562 25.035156 C 15.101562 24.75 15.273438 24.269531 15.378906 23.878906 C 15.394531 23.824219 15.40625 23.769531 15.421875 23.71875 C 15.691406 22.640625 15.746094 21.625 15.585938 20.691406 C 15.570312 20.59375 15.621094 20.5 15.710938 20.460938 L 15.828125 20.414062 C 17.542969 19.714844 19.3125 18.992188 20.757812 17.839844 C 22.449219 16.488281 23.535156 14.777344 23.8125 13.023438 Z M 24.503906 14.15625 C 24.558594 13.804688 24.535156 13.464844 24.515625 13.109375 C 24.503906 12.949219 24.492188 12.785156 24.488281 12.621094 C 24.484375 12.371094 24.46875 12.148438 24.445312 11.945312 C 24.421875 11.742188 24.386719 11.558594 24.339844 11.382812 C 24.324219 11.328125 24.308594 11.273438 24.292969 11.222656 C 24.195312 10.917969 24.066406 10.632812 23.914062 10.359375 C 24.242188 11.371094 24.351562 12.292969 24.226562 13.085938 C 23.933594 14.949219 22.792969 16.75 21.015625 18.167969 C 19.917969 19.046875 18.652344 19.675781 17.359375 20.230469 C 16.984375 20.433594 16.601562 20.628906 16.214844 20.820312 C 16.203125 20.828125 16.1875 20.828125 16.175781 20.832031 L 16.492188 21.574219 L 16.496094 21.574219 C 18.214844 20.871094 19.988281 20.148438 21.433594 18.992188 C 23.136719 17.636719 24.222656 15.917969 24.503906 14.15625 Z M 24.863281 13.085938 C 24.886719 13.449219 24.910156 13.820312 24.847656 14.207031 C 24.558594 16.058594 23.421875 17.855469 21.652344 19.265625 C 20.171875 20.449219 18.378906 21.183594 16.644531 21.890625 C 16.785156 22.839844 16.71875 23.863281 16.449219 24.9375 C 16.4375 24.992188 16.421875 25.050781 16.40625 25.105469 C 16.285156 25.554688 16.085938 26.113281 15.617188 26.46875 C 15.324219 26.691406 14.941406 26.8125 14.535156 26.8125 C 14.460938 26.8125 14.382812 26.808594 14.304688 26.800781 C 13.921875 26.753906 13.53125 26.609375 13.132812 26.355469 C 12.480469 25.945312 11.945312 25.335938 11.617188 24.636719 C 11.589844 24.582031 11.5625 24.523438 11.539062 24.464844 C 11.292969 24.179688 11.085938 23.863281 10.925781 23.527344 C 10.410156 22.425781 10.417969 21.195312 10.421875 20.109375 L 10.425781 19.464844 C 10.3125 19.414062 10.199219 19.351562 10.089844 19.269531 C 9.8125 19.058594 9.492188 18.898438 9.152344 18.726562 C 8.871094 18.582031 8.578125 18.433594 8.304688 18.253906 C 6.6875 17.191406 5.699219 15.871094 5.363281 14.332031 C 5.207031 13.835938 5.117188 13.296875 5.105469 12.738281 C 5.097656 12.207031 5.148438 11.703125 5.253906 11.234375 C 5.375 10.703125 5.671875 10.203125 5.949219 9.789062 C 6.464844 9.003906 7.175781 8.359375 7.996094 7.910156 C 7.667969 7.855469 7.359375 7.730469 7.085938 7.601562 C 6.746094 7.441406 6.492188 7.105469 6.285156 6.792969 C 6.039062 6.429688 5.878906 6.039062 5.808594 5.636719 L 5.804688 5.613281 C 5.777344 5.4375 5.769531 5.261719 5.773438 5.089844 C 5.765625 5.003906 5.757812 4.914062 5.757812 4.828125 C 5.773438 4.007812 6.257812 3.203125 7.027344 2.734375 C 7.839844 2.242188 8.738281 2.214844 9.347656 2.28125 C 9.894531 2.34375 10.421875 2.515625 10.800781 2.761719 C 11.1875 3.015625 11.425781 3.480469 11.570312 3.910156 C 11.636719 4.007812 11.699219 4.109375 11.75 4.21875 C 11.785156 4.289062 11.832031 4.347656 11.878906 4.417969 C 11.933594 4.492188 11.992188 4.570312 12.039062 4.664062 C 12.140625 4.863281 12.21875 5.097656 12.292969 5.394531 C 12.421875 5.929688 12.433594 6.472656 12.445312 6.996094 L 12.460938 7.519531 C 12.875 7.683594 13.253906 7.910156 13.574219 8.191406 C 14.050781 8.609375 14.40625 9.160156 14.601562 9.753906 C 14.722656 9.902344 14.832031 10.0625 14.929688 10.230469 C 14.980469 10.007812 15.054688 9.789062 15.148438 9.578125 C 15.484375 8.828125 16.070312 8.179688 16.800781 7.753906 C 17.410156 7.398438 18.167969 7.164062 18.828125 7.132812 C 19.683594 7.085938 20.523438 7.335938 21.160156 7.558594 C 21.40625 7.644531 21.601562 7.722656 21.78125 7.804688 C 22.054688 7.929688 22.289062 8.066406 22.496094 8.21875 C 22.753906 8.410156 22.984375 8.648438 23.191406 8.921875 C 23.851562 9.496094 24.351562 10.261719 24.625 11.117188 C 24.644531 11.175781 24.660156 11.234375 24.675781 11.292969 C 24.78125 11.675781 24.828125 12.082031 24.839844 12.613281 C 24.84375 12.773438 24.851562 12.929688 24.863281 13.085938 " fill-opacity="1" fill-rule="nonzero"/></g><path fill="#9259ba" d="M 12.25 21.914062 C 12.253906 21.929688 12.257812 21.9375 12.261719 21.949219 C 12.160156 21.402344 12.089844 20.84375 12.058594 20.277344 C 12.054688 20.253906 12.0625 20.230469 12.070312 20.207031 C 11.992188 20.097656 11.917969 19.984375 11.851562 19.871094 C 11.933594 20.566406 12.0625 21.253906 12.25 21.914062 Z M 13.152344 20.621094 C 13.273438 20.699219 13.382812 20.777344 13.492188 20.855469 C 13.195312 20.496094 12.796875 20.152344 12.285156 19.8125 C 12.214844 19.765625 12.140625 19.722656 12.066406 19.675781 C 12.15625 19.84375 12.261719 20 12.378906 20.152344 C 12.617188 20.289062 12.886719 20.445312 13.152344 20.621094 Z M 14.101562 22.890625 C 14.175781 22.539062 14.144531 22.15625 14.015625 21.777344 C 13.738281 21.480469 13.390625 21.191406 12.960938 20.914062 C 12.785156 20.796875 12.601562 20.6875 12.429688 20.585938 C 12.5 21.429688 12.648438 22.257812 12.875 23.050781 C 12.894531 23.125 12.914062 23.195312 12.9375 23.269531 C 12.972656 23.300781 13.003906 23.332031 13.042969 23.359375 C 13.199219 23.480469 13.457031 23.59375 13.667969 23.519531 C 13.90625 23.4375 14.050781 23.128906 14.101562 22.890625 Z M 14.066406 20.929688 C 14.488281 21.578125 14.652344 22.324219 14.511719 22.976562 C 14.433594 23.339844 14.210938 23.777344 13.804688 23.917969 C 13.714844 23.949219 13.621094 23.960938 13.527344 23.960938 C 13.25 23.960938 12.976562 23.839844 12.789062 23.695312 C 12.261719 23.296875 12.015625 22.628906 11.847656 22.03125 C 11.585938 21.109375 11.425781 20.140625 11.367188 19.15625 C 11.363281 19.078125 11.398438 19.003906 11.464844 18.964844 C 11.53125 18.921875 11.613281 18.921875 11.679688 18.960938 C 11.933594 19.105469 12.226562 19.277344 12.515625 19.464844 C 13.21875 19.925781 13.726562 20.40625 14.066406 20.929688 " fill-opacity="1" fill-rule="nonzero"/><path fill="#9259ba" d="M 12.21875 11.910156 L 12.164062 9.757812 C 12.164062 9.734375 12.171875 9.714844 12.175781 9.695312 L 11.910156 9.253906 L 11.976562 11.992188 C 12.0625 11.96875 12.140625 11.941406 12.21875 11.910156 Z M 12.683594 9.644531 C 12.859375 9.691406 13.039062 9.761719 13.210938 9.851562 C 12.976562 9.394531 12.496094 9.070312 12.035156 8.921875 L 12.441406 9.59375 C 12.523438 9.609375 12.605469 9.625 12.683594 9.644531 Z M 12.792969 11.574219 C 13.171875 11.253906 13.386719 10.78125 13.351562 10.34375 C 13.117188 10.175781 12.851562 10.050781 12.59375 9.984375 C 12.570312 9.976562 12.546875 9.972656 12.519531 9.964844 L 12.566406 11.738281 C 12.644531 11.6875 12.722656 11.632812 12.792969 11.574219 Z M 13.769531 10.3125 C 13.8125 10.882812 13.542969 11.488281 13.066406 11.894531 C 12.730469 12.175781 12.296875 12.371094 11.808594 12.457031 C 11.800781 12.460938 11.785156 12.460938 11.773438 12.460938 C 11.726562 12.460938 11.679688 12.445312 11.640625 12.414062 C 11.59375 12.375 11.566406 12.316406 11.5625 12.257812 L 11.472656 8.628906 C 11.472656 8.570312 11.5 8.507812 11.546875 8.46875 C 11.59375 8.425781 11.65625 8.410156 11.71875 8.417969 C 11.832031 8.4375 11.933594 8.457031 12.039062 8.484375 C 12.820312 8.691406 13.699219 9.351562 13.769531 10.3125 " fill-opacity="1" fill-rule="nonzero"/><path fill="#9259ba" d="M 10.160156 10.582031 C 10.164062 10.433594 10.09375 10.265625 10.035156 10.132812 C 10.011719 10.078125 9.773438 9.785156 9.761719 9.785156 C 9.394531 10.273438 9.410156 11.007812 9.789062 11.488281 C 9.820312 11.234375 9.90625 10.988281 10.039062 10.78125 C 10.058594 10.746094 10.082031 10.71875 10.105469 10.6875 C 10.152344 10.628906 10.160156 10.613281 10.160156 10.582031 Z M 10.707031 15.703125 L 10.710938 15.136719 C 10.503906 15.089844 10.3125 15.023438 10.136719 14.9375 C 9.6875 14.722656 9.292969 14.347656 9.03125 13.886719 C 8.941406 13.726562 8.878906 13.5625 8.832031 13.398438 C 8.476562 13.0625 8.214844 12.621094 8.085938 12.144531 C 8.054688 12.238281 8.027344 12.332031 8.03125 12.394531 C 8.03125 12.492188 8.050781 12.613281 8.066406 12.726562 C 8.078125 12.796875 8.085938 12.855469 8.09375 12.910156 C 8.140625 13.269531 8.230469 13.625 8.359375 13.972656 C 8.570312 14.253906 8.8125 14.507812 9.078125 14.734375 C 9.566406 15.140625 10.15625 15.453125 10.707031 15.703125 Z M 10.710938 14.777344 L 10.714844 14.132812 C 10.234375 14.113281 9.824219 14.015625 9.464844 13.84375 C 9.441406 13.832031 9.417969 13.820312 9.394531 13.804688 C 9.617188 14.164062 9.933594 14.453125 10.289062 14.625 C 10.421875 14.6875 10.558594 14.738281 10.710938 14.777344 Z M 10.730469 12.03125 L 10.742188 9.996094 C 10.625 10.023438 10.503906 10.046875 10.378906 10.074219 C 10.46875 10.261719 10.511719 10.433594 10.511719 10.585938 C 10.507812 10.738281 10.4375 10.828125 10.382812 10.902344 C 10.367188 10.921875 10.347656 10.945312 10.332031 10.96875 C 10.222656 11.144531 10.152344 11.351562 10.128906 11.570312 C 10.121094 11.644531 10.121094 11.714844 10.121094 11.785156 C 10.296875 11.894531 10.503906 11.980469 10.730469 12.03125 Z M 10.746094 9.640625 L 10.75 8.800781 C 10.3125 8.832031 9.875 8.917969 9.464844 9.007812 C 9.34375 9.035156 9.226562 9.0625 9.109375 9.09375 C 8.890625 9.175781 8.664062 9.273438 8.433594 9.382812 C 8.074219 9.632812 7.800781 10.0625 7.570312 10.730469 C 7.554688 10.777344 7.535156 10.824219 7.519531 10.875 C 7.46875 11.007812 7.40625 11.175781 7.40625 11.269531 C 7.410156 11.363281 7.425781 11.480469 7.445312 11.597656 C 7.457031 11.667969 7.464844 11.722656 7.472656 11.777344 C 7.515625 12.125 7.601562 12.464844 7.722656 12.796875 C 7.722656 12.796875 7.722656 12.792969 7.722656 12.792969 C 7.703125 12.652344 7.683594 12.519531 7.679688 12.398438 C 7.679688 12.234375 7.75 12.039062 7.8125 11.871094 C 7.832031 11.820312 7.847656 11.777344 7.863281 11.734375 C 7.90625 11.605469 7.949219 11.492188 7.996094 11.382812 C 8.023438 10.503906 8.484375 9.660156 9.21875 9.140625 C 9.332031 9.0625 9.492188 9.039062 9.621094 9.085938 C 9.792969 9.144531 9.792969 9.296875 9.910156 9.40625 C 9.976562 9.472656 10.03125 9.542969 10.078125 9.617188 C 10.117188 9.667969 10.152344 9.710938 10.1875 9.761719 L 10.242188 9.75 C 10.414062 9.710938 10.578125 9.671875 10.746094 9.640625 Z M 11.171875 8.582031 L 11.148438 12.28125 C 11.148438 12.339844 11.121094 12.398438 11.078125 12.4375 C 11.035156 12.476562 10.972656 12.496094 10.914062 12.484375 C 10.375 12.425781 9.902344 12.210938 9.582031 11.886719 C 8.960938 11.265625 8.910156 10.164062 9.460938 9.484375 C 8.789062 9.957031 8.390625 10.746094 8.414062 11.539062 C 8.441406 12.351562 8.9375 13.125 9.648438 13.464844 C 9.996094 13.632812 10.417969 13.714844 10.925781 13.71875 C 10.984375 13.71875 11.039062 13.742188 11.078125 13.78125 C 11.117188 13.820312 11.136719 13.875 11.136719 13.929688 L 11.121094 16.027344 C 11.121094 16.097656 11.085938 16.164062 11.027344 16.203125 C 10.992188 16.222656 10.953125 16.234375 10.914062 16.234375 C 10.882812 16.234375 10.855469 16.230469 10.828125 16.21875 C 10.175781 15.933594 9.425781 15.570312 8.808594 15.054688 C 8.175781 14.527344 7.675781 13.828125 7.367188 13.039062 C 7.210938 12.648438 7.109375 12.242188 7.054688 11.832031 C 7.046875 11.78125 7.042969 11.726562 7.03125 11.671875 C 7.011719 11.539062 6.988281 11.398438 6.988281 11.273438 C 6.988281 11.101562 7.058594 10.90625 7.125 10.730469 C 7.140625 10.683594 7.160156 10.636719 7.175781 10.59375 C 7.445312 9.800781 7.789062 9.292969 8.257812 8.992188 C 8.585938 8.78125 8.972656 8.6875 9.375 8.601562 C 9.875 8.488281 10.414062 8.386719 10.957031 8.371094 C 11.019531 8.371094 11.070312 8.394531 11.109375 8.433594 C 11.152344 8.472656 11.171875 8.527344 11.171875 8.582031 " fill-opacity="1" fill-rule="nonzero"/></svg>