<svg xmlns="http://www.w3.org/2000/svg" xmlns:xlink="http://www.w3.org/1999/xlink" width="40" zoomAndPan="magnify" viewBox="0 0 30 30.000001" height="40" preserveAspectRatio="xMidYMid meet" version="1.0"><defs><clipPath id="4f66e51417"><path d="M 0.484375 0 L 29.515625 0 L 29.515625 29.03125 L 0.484375 29.03125 Z M 0.484375 0 " clip-rule="nonzero"/></clipPath><clipPath id="f86e1a03cd"><path d="M 4.867188 2 L 25.1875 2 L 25.1875 27.382812 L 4.867188 27.382812 Z M 4.867188 2 " clip-rule="nonzero"/></clipPath><clipPath id="da91112e5c"><path d="M 4.867188 2 L 25.1875 2 L 25.1875 27.382812 L 4.867188 27.382812 Z M 4.867188 2 " clip-rule="nonzero"/></clipPath></defs><g clip-path="url(#4f66e51417)"><path fill="#ffffff" d="M 0.484375 0 L 29.515625 0 L 29.515625 29.03125 L 0.484375 29.03125 Z M 0.484375 0 " fill-opacity="1" fill-rule="nonzero"/><path fill="#ffffff" d="M 0.484375 0 L 29.515625 0 L 29.515625 29.03125 L 0.484375 29.03125 Z M 0.484375 0 " fill-opacity="1" fill-rule="nonzero"/></g><g clip-path="url(#f86e1a03cd)"><path fill="#9259ba" d="M 15.261719 12.832031 C 15.269531 12.84375 15.277344 12.855469 15.285156 12.871094 C 15.335938 13.128906 15.453125 13.394531 15.632812 13.648438 C 15.800781 13.875 16.132812 14.296875 16.519531 14.550781 C 16.882812 14.792969 17.351562 14.894531 17.835938 14.832031 C 18.535156 14.742188 19.179688 14.3125 19.515625 13.707031 C 19.867188 13.082031 19.863281 12.277344 19.515625 11.667969 C 19.410156 11.484375 19.269531 11.320312 19.113281 11.179688 C 19.074219 10.941406 18.996094 10.710938 18.875 10.5 C 18.828125 10.421875 18.777344 10.351562 18.722656 10.277344 C 19.164062 10.109375 19.667969 10.097656 20.109375 10.257812 C 20.390625 10.355469 20.652344 10.527344 20.878906 10.742188 C 20.96875 11.007812 21.03125 11.292969 21.0625 11.597656 C 21.109375 12.070312 21.136719 12.5625 21.035156 12.9375 C 20.898438 13.453125 20.753906 13.910156 20.59375 14.335938 C 20.214844 15.335938 19.761719 16.144531 19.207031 16.8125 C 19.121094 16.914062 19.035156 17.015625 18.945312 17.105469 C 18.039062 18.066406 16.851562 18.722656 15.597656 19.347656 C 15.332031 18.761719 14.972656 18.253906 14.527344 17.832031 C 13.964844 17.304688 13.296875 16.921875 12.640625 16.609375 L 12.605469 15.136719 C 13.265625 15 13.828125 14.738281 14.273438 14.359375 C 14.742188 13.960938 15.082031 13.421875 15.261719 12.832031 Z M 12.753906 11.519531 C 12.679688 11.582031 12.601562 11.632812 12.519531 11.6875 L 12.476562 9.878906 C 12.5 9.886719 12.527344 9.890625 12.550781 9.898438 C 12.8125 9.964844 13.082031 10.09375 13.324219 10.265625 C 13.355469 10.710938 13.136719 11.191406 12.753906 11.519531 Z M 12.921875 21.039062 C 13.359375 21.324219 13.714844 21.617188 14 21.921875 C 14.128906 22.304688 14.160156 22.699219 14.085938 23.050781 C 14.035156 23.296875 13.886719 23.613281 13.644531 23.695312 C 13.429688 23.769531 13.167969 23.65625 13.007812 23.535156 C 12.96875 23.503906 12.933594 23.472656 12.902344 23.441406 C 12.878906 23.367188 12.855469 23.292969 12.832031 23.21875 C 12.605469 22.410156 12.453125 21.566406 12.382812 20.703125 C 12.558594 20.808594 12.742188 20.917969 12.921875 21.039062 Z M 8.234375 13.960938 C 8.101562 13.609375 8.007812 13.246094 7.960938 12.878906 C 7.957031 12.824219 7.945312 12.765625 7.9375 12.695312 C 7.917969 12.578125 7.898438 12.453125 7.898438 12.355469 C 7.894531 12.289062 7.921875 12.195312 7.957031 12.101562 C 8.085938 12.585938 8.351562 13.035156 8.710938 13.378906 C 8.761719 13.542969 8.828125 13.710938 8.917969 13.875 C 9.1875 14.347656 9.585938 14.726562 10.046875 14.949219 C 10.226562 15.035156 10.417969 15.101562 10.628906 15.148438 L 10.625 15.726562 C 10.066406 15.472656 9.464844 15.15625 8.964844 14.738281 C 8.691406 14.511719 8.449219 14.25 8.234375 13.960938 Z M 10.035156 11.515625 C 10.058594 11.292969 10.132812 11.082031 10.246094 10.902344 C 10.261719 10.878906 10.277344 10.855469 10.292969 10.835938 C 10.351562 10.761719 10.421875 10.667969 10.425781 10.511719 C 10.429688 10.355469 10.382812 10.179688 10.292969 9.992188 C 10.417969 9.964844 10.539062 9.9375 10.664062 9.910156 L 10.648438 11.984375 C 10.417969 11.933594 10.207031 11.847656 10.027344 11.734375 C 10.027344 11.660156 10.027344 11.589844 10.035156 11.515625 Z M 9.203125 5.074219 C 9.195312 4.898438 9.160156 4.730469 9.089844 4.566406 C 9.105469 4.5625 9.117188 4.558594 9.132812 4.554688 C 9.644531 4.445312 10.09375 4.664062 10.453125 5.019531 C 10.492188 5.125 10.519531 5.226562 10.546875 5.328125 C 10.675781 5.878906 10.683594 6.472656 10.683594 7.050781 C 10.433594 7.050781 10.1875 7.0625 9.941406 7.097656 C 9.792969 7.117188 9.644531 7.140625 9.496094 7.171875 C 9.695312 6.929688 9.816406 6.644531 9.835938 6.34375 C 9.867188 5.863281 9.625 5.382812 9.203125 5.074219 Z M 5.773438 9.699219 C 5.492188 10.125 5.191406 10.632812 5.066406 11.171875 C 4.957031 11.648438 4.90625 12.164062 4.917969 12.703125 C 4.929688 13.273438 5.019531 13.824219 5.179688 14.332031 C 5.519531 15.898438 6.527344 17.246094 8.175781 18.328125 C 8.457031 18.511719 8.753906 18.664062 9.039062 18.808594 C 9.386719 18.984375 9.714844 19.148438 9.996094 19.363281 C 10.109375 19.449219 10.226562 19.507812 10.335938 19.5625 L 10.335938 20.21875 C 10.328125 21.324219 10.324219 22.582031 10.851562 23.703125 C 11.011719 24.046875 11.226562 24.367188 11.476562 24.65625 C 11.5 24.71875 11.523438 24.777344 11.550781 24.835938 C 11.886719 25.546875 12.433594 26.167969 13.097656 26.585938 C 13.503906 26.84375 13.90625 26.992188 14.292969 27.039062 C 14.371094 27.046875 14.453125 27.050781 14.527344 27.050781 C 14.941406 27.050781 15.332031 26.929688 15.628906 26.703125 C 16.105469 26.339844 16.3125 25.769531 16.4375 25.3125 C 16.449219 25.253906 16.464844 25.199219 16.480469 25.140625 C 16.753906 24.046875 16.820312 23 16.675781 22.035156 C 18.445312 21.3125 20.273438 20.566406 21.78125 19.359375 C 23.585938 17.921875 24.742188 16.089844 25.039062 14.203125 C 25.101562 13.808594 25.078125 13.429688 25.054688 13.058594 C 25.046875 12.902344 25.035156 12.738281 25.03125 12.578125 C 25.023438 12.035156 24.96875 11.621094 24.867188 11.230469 C 24.847656 11.171875 24.832031 11.113281 24.8125 11.050781 C 24.535156 10.179688 24.023438 9.398438 23.351562 8.816406 C 23.140625 8.535156 22.90625 8.292969 22.640625 8.097656 C 22.433594 7.941406 22.195312 7.804688 21.914062 7.675781 C 21.734375 7.59375 21.53125 7.515625 21.277344 7.425781 C 20.632812 7.199219 19.777344 6.945312 18.902344 6.988281 C 18.230469 7.023438 17.457031 7.265625 16.839844 7.625 C 16.09375 8.0625 15.496094 8.722656 15.152344 9.484375 C 15.058594 9.699219 14.984375 9.921875 14.929688 10.148438 C 14.832031 9.980469 14.71875 9.816406 14.59375 9.664062 C 14.394531 9.058594 14.03125 8.5 13.546875 8.070312 C 13.222656 7.785156 12.835938 7.554688 12.414062 7.382812 L 12.398438 6.851562 C 12.386719 6.320312 12.371094 5.765625 12.242188 5.21875 C 12.167969 4.914062 12.085938 4.675781 11.984375 4.472656 C 11.9375 4.378906 11.878906 4.300781 11.820312 4.222656 C 11.769531 4.152344 11.726562 4.089844 11.691406 4.019531 C 11.636719 3.910156 11.574219 3.804688 11.503906 3.707031 C 11.359375 3.269531 11.117188 2.796875 10.71875 2.535156 C 10.335938 2.285156 9.796875 2.109375 9.238281 2.046875 C 8.617188 1.980469 7.703125 2.003906 6.875 2.507812 C 6.089844 2.988281 5.59375 3.804688 5.582031 4.644531 C 5.578125 4.730469 5.585938 4.820312 5.597656 4.90625 C 5.589844 5.085938 5.601562 5.261719 5.628906 5.441406 L 5.632812 5.46875 C 5.703125 5.875 5.867188 6.273438 6.117188 6.644531 C 6.328125 6.960938 6.589844 7.308594 6.933594 7.46875 C 7.210938 7.601562 7.527344 7.730469 7.859375 7.78125 C 7.027344 8.242188 6.300781 8.898438 5.773438 9.699219 " fill-opacity="1" fill-rule="nonzero"/></g><path fill="#ffffff" d="M 20.558594 10.070312 C 20.453125 10.015625 20.34375 9.960938 20.230469 9.921875 C 19.6875 9.726562 19.070312 9.746094 18.535156 9.96875 C 18.511719 9.976562 18.488281 9.992188 18.464844 10 C 18.183594 9.757812 17.839844 9.589844 17.480469 9.523438 C 17.640625 9.378906 17.824219 9.261719 18.015625 9.183594 C 18.460938 8.996094 18.976562 8.980469 19.429688 9.144531 C 19.871094 9.300781 20.273438 9.632812 20.558594 10.070312 " fill-opacity="1" fill-rule="nonzero"/><path fill="#ffffff" d="M 19.207031 11.84375 C 19.496094 12.351562 19.496094 13.011719 19.207031 13.535156 C 18.925781 14.042969 18.382812 14.40625 17.789062 14.480469 C 17.390625 14.527344 17.007812 14.449219 16.714844 14.253906 C 16.488281 14.105469 16.226562 13.839844 15.988281 13.523438 C 16.332031 13.703125 16.746094 13.773438 17.167969 13.71875 C 17.882812 13.628906 18.539062 13.191406 18.878906 12.578125 C 19.023438 12.316406 19.105469 12.027344 19.132812 11.734375 C 19.15625 11.769531 19.183594 11.804688 19.207031 11.84375 " fill-opacity="1" fill-rule="nonzero"/><path fill="#ffffff" d="M 16.304688 21.953125 C 16.464844 22.910156 16.410156 23.953125 16.132812 25.054688 C 16.121094 25.109375 16.105469 25.164062 16.09375 25.21875 C 15.980469 25.621094 15.804688 26.121094 15.417969 26.417969 C 15.132812 26.632812 14.734375 26.730469 14.335938 26.683594 C 14 26.644531 13.644531 26.511719 13.289062 26.285156 C 12.921875 26.054688 12.597656 25.753906 12.328125 25.414062 C 12.355469 25.433594 12.382812 25.453125 12.410156 25.46875 C 12.820312 25.730469 13.226562 25.882812 13.621094 25.925781 C 13.699219 25.9375 13.78125 25.941406 13.859375 25.941406 C 14.28125 25.941406 14.679688 25.8125 14.984375 25.582031 C 15.46875 25.214844 15.671875 24.636719 15.800781 24.171875 C 15.816406 24.117188 15.832031 24.058594 15.84375 24 C 16.070312 23.113281 16.152344 22.257812 16.101562 21.453125 L 16.304688 21.929688 C 16.304688 21.9375 16.300781 21.945312 16.304688 21.953125 " fill-opacity="1" fill-rule="nonzero"/><path fill="#ffffff" d="M 14.929688 12.019531 C 14.949219 12.109375 14.980469 12.207031 15.015625 12.308594 C 14.914062 13 14.570312 13.640625 14.042969 14.089844 C 13.632812 14.433594 13.113281 14.671875 12.5 14.792969 L 12.113281 13.984375 C 12.707031 13.839844 13.214844 13.589844 13.628906 13.238281 C 14.371094 12.605469 14.800781 11.628906 14.769531 10.628906 C 14.769531 10.625 14.769531 10.621094 14.769531 10.617188 C 14.789062 10.664062 14.808594 10.710938 14.832031 10.757812 C 14.792969 11.179688 14.824219 11.605469 14.929688 12.019531 " fill-opacity="1" fill-rule="nonzero"/><path fill="#ffffff" d="M 13.464844 20.980469 C 13.355469 20.898438 13.242188 20.820312 13.121094 20.738281 C 12.847656 20.5625 12.574219 20.402344 12.328125 20.261719 C 12.210938 20.109375 12.105469 19.945312 12.011719 19.777344 C 12.085938 19.824219 12.160156 19.871094 12.234375 19.917969 C 12.757812 20.261719 13.164062 20.613281 13.464844 20.980469 " fill-opacity="1" fill-rule="nonzero"/><path fill="#ffffff" d="M 13.179688 9.761719 C 13 9.671875 12.820312 9.601562 12.640625 9.550781 C 12.5625 9.53125 12.480469 9.515625 12.394531 9.5 L 11.976562 8.816406 C 12.449219 8.964844 12.941406 9.296875 13.179688 9.761719 " fill-opacity="1" fill-rule="nonzero"/><path fill="#ffffff" d="M 12.246094 14.996094 L 12.28125 16.441406 C 12.195312 16.40625 12.113281 16.367188 12.03125 16.332031 L 11.980469 14.367188 L 12.253906 14.941406 C 12.25 14.960938 12.246094 14.976562 12.246094 14.996094 " fill-opacity="1" fill-rule="nonzero"/><path fill="#ffffff" d="M 12.210938 22.097656 C 12.207031 22.085938 12.203125 22.074219 12.199219 22.058594 C 12.007812 21.386719 11.875 20.6875 11.792969 19.976562 C 11.863281 20.09375 11.9375 20.207031 12.015625 20.316406 C 12.007812 20.34375 12 20.367188 12.003906 20.390625 C 12.035156 20.96875 12.105469 21.539062 12.210938 22.097656 " fill-opacity="1" fill-rule="nonzero"/><path fill="#ffffff" d="M 12.113281 9.664062 L 12.167969 11.863281 C 12.089844 11.890625 12.007812 11.921875 11.921875 11.945312 L 11.851562 9.15625 L 12.125 9.605469 C 12.117188 9.625 12.113281 9.644531 12.113281 9.664062 " fill-opacity="1" fill-rule="nonzero"/><path fill="#ffffff" d="M 12.042969 6.859375 L 12.050781 7.257812 C 11.972656 7.230469 11.886719 7.207031 11.804688 7.1875 L 11.765625 5.703125 C 11.757812 5.390625 11.75 5.070312 11.71875 4.75 C 11.785156 4.902344 11.839844 5.082031 11.894531 5.304688 C 12.015625 5.8125 12.03125 6.34375 12.042969 6.859375 " fill-opacity="1" fill-rule="nonzero"/><path fill="#ffffff" d="M 10.671875 8.691406 L 10.664062 9.546875 C 10.496094 9.582031 10.324219 9.621094 10.152344 9.660156 L 10.09375 9.671875 C 10.058594 9.621094 10.023438 9.574219 9.984375 9.527344 C 9.9375 9.449219 9.882812 9.375 9.8125 9.3125 C 9.695312 9.199219 9.695312 9.042969 9.519531 8.980469 C 9.386719 8.933594 9.226562 8.957031 9.109375 9.039062 C 8.359375 9.566406 7.890625 10.429688 7.863281 11.324219 C 7.816406 11.433594 7.769531 11.550781 7.726562 11.679688 C 7.710938 11.722656 7.695312 11.769531 7.675781 11.820312 C 7.613281 11.992188 7.539062 12.191406 7.539062 12.359375 C 7.542969 12.484375 7.5625 12.621094 7.585938 12.761719 C 7.585938 12.761719 7.585938 12.765625 7.585938 12.765625 C 7.460938 12.429688 7.371094 12.078125 7.328125 11.726562 C 7.320312 11.671875 7.3125 11.613281 7.300781 11.542969 C 7.28125 11.425781 7.261719 11.304688 7.261719 11.207031 C 7.261719 11.113281 7.324219 10.941406 7.375 10.804688 C 7.394531 10.753906 7.414062 10.703125 7.429688 10.65625 C 7.660156 9.976562 7.941406 9.539062 8.308594 9.285156 C 8.542969 9.171875 8.773438 9.074219 8.996094 8.988281 C 9.117188 8.957031 9.234375 8.933594 9.359375 8.902344 C 9.777344 8.8125 10.226562 8.726562 10.671875 8.691406 " fill-opacity="1" fill-rule="nonzero"/><path fill="#ffffff" d="M 10.632812 14.125 L 10.628906 14.785156 C 10.476562 14.742188 10.332031 14.691406 10.199219 14.625 C 9.835938 14.453125 9.515625 14.15625 9.285156 13.792969 C 9.3125 13.808594 9.335938 13.820312 9.359375 13.832031 C 9.722656 14.007812 10.140625 14.105469 10.632812 14.125 " fill-opacity="1" fill-rule="nonzero"/><path fill="#ffffff" d="M 10.34375 18.78125 L 10.339844 19.164062 C 10.296875 19.136719 10.253906 19.109375 10.210938 19.078125 C 9.902344 18.847656 9.5625 18.671875 9.199219 18.488281 C 8.921875 18.347656 8.632812 18.203125 8.371094 18.03125 C 7.757812 17.628906 7.238281 17.1875 6.816406 16.714844 C 7.019531 16.882812 7.242188 17.046875 7.488281 17.210938 C 7.769531 17.394531 8.066406 17.542969 8.351562 17.691406 C 8.699219 17.867188 9.027344 18.03125 9.304688 18.242188 C 9.492188 18.382812 9.6875 18.464844 9.855469 18.535156 C 9.949219 18.570312 10.035156 18.609375 10.113281 18.648438 C 10.191406 18.691406 10.269531 18.738281 10.34375 18.78125 " fill-opacity="1" fill-rule="nonzero"/><path fill="#ffffff" d="M 9.941406 10.050781 C 10.003906 10.1875 10.074219 10.355469 10.070312 10.507812 C 10.070312 10.539062 10.058594 10.554688 10.011719 10.617188 C 9.988281 10.644531 9.964844 10.675781 9.945312 10.710938 C 9.808594 10.921875 9.722656 11.171875 9.6875 11.429688 C 9.304688 10.941406 9.289062 10.195312 9.660156 9.695312 C 9.671875 9.695312 9.917969 9.996094 9.941406 10.050781 " fill-opacity="1" fill-rule="nonzero"/><path fill="#ffffff" d="M 10.121094 4.347656 C 9.800781 4.191406 9.445312 4.125 9.058594 4.207031 C 9.007812 4.21875 8.957031 4.230469 8.90625 4.246094 C 8.800781 4.105469 8.671875 3.972656 8.515625 3.867188 C 8.367188 3.765625 8.210938 3.691406 8.050781 3.644531 C 8.171875 3.546875 8.316406 3.472656 8.46875 3.441406 C 9.160156 3.296875 9.742188 3.761719 10.121094 4.347656 " fill-opacity="1" fill-rule="nonzero"/><path fill="#ffffff" d="M 9.148438 5.492188 C 9.375 5.722656 9.5 6.023438 9.480469 6.320312 C 9.457031 6.648438 9.269531 6.96875 8.972656 7.191406 C 8.355469 7.648438 7.671875 7.425781 7.085938 7.148438 C 6.820312 7.023438 6.597656 6.722656 6.414062 6.449219 C 6.367188 6.382812 6.328125 6.3125 6.289062 6.242188 C 6.523438 6.457031 6.804688 6.613281 7.109375 6.679688 C 7.585938 6.785156 8.121094 6.664062 8.539062 6.355469 C 8.839844 6.128906 9.050781 5.828125 9.148438 5.492188 " fill-opacity="1" fill-rule="nonzero"/><path fill="#ffffff" d="M 24.699219 13.082031 C 24.722656 13.449219 24.746094 13.792969 24.6875 14.148438 C 24.402344 15.945312 23.292969 17.699219 21.558594 19.082031 C 20.089844 20.257812 18.277344 20.996094 16.527344 21.710938 L 16.523438 21.714844 L 16.199219 20.957031 C 16.214844 20.953125 16.226562 20.949219 16.238281 20.945312 C 16.632812 20.75 17.027344 20.550781 17.410156 20.34375 C 18.722656 19.777344 20.015625 19.132812 21.136719 18.242188 C 22.945312 16.796875 24.109375 14.957031 24.40625 13.0625 C 24.535156 12.25 24.425781 11.3125 24.085938 10.28125 C 24.242188 10.558594 24.375 10.851562 24.472656 11.160156 C 24.488281 11.214844 24.507812 11.269531 24.523438 11.324219 C 24.570312 11.503906 24.605469 11.691406 24.632812 11.898438 C 24.65625 12.105469 24.667969 12.328125 24.675781 12.585938 C 24.679688 12.753906 24.6875 12.921875 24.699219 13.082031 " fill-opacity="1" fill-rule="nonzero"/><path fill="#9259ba" d="M 11.074219 12.238281 L 11.101562 8.46875 C 11.101562 8.414062 11.078125 8.355469 11.035156 8.316406 C 10.996094 8.277344 10.945312 8.253906 10.878906 8.253906 C 10.324219 8.269531 9.777344 8.375 9.265625 8.488281 C 8.859375 8.574219 8.464844 8.671875 8.128906 8.886719 C 7.652344 9.191406 7.300781 9.710938 7.023438 10.519531 C 7.007812 10.5625 6.992188 10.609375 6.972656 10.660156 C 6.90625 10.835938 6.832031 11.039062 6.835938 11.210938 C 6.835938 11.339844 6.859375 11.480469 6.878906 11.621094 C 6.890625 11.675781 6.894531 11.726562 6.902344 11.78125 C 6.957031 12.199219 7.0625 12.613281 7.21875 13.011719 C 7.535156 13.820312 8.046875 14.527344 8.691406 15.066406 C 9.320312 15.59375 10.085938 15.960938 10.75 16.25 C 10.777344 16.265625 10.804688 16.269531 10.835938 16.269531 C 10.875 16.269531 10.917969 16.257812 10.953125 16.234375 C 11.011719 16.195312 11.050781 16.128906 11.050781 16.058594 L 11.0625 13.917969 C 11.066406 13.863281 11.042969 13.808594 11.003906 13.765625 C 10.960938 13.726562 10.910156 13.703125 10.851562 13.703125 C 10.328125 13.703125 9.902344 13.617188 9.546875 13.449219 C 8.824219 13.097656 8.316406 12.308594 8.289062 11.484375 C 8.261719 10.671875 8.671875 9.871094 9.355469 9.390625 C 8.792969 10.082031 8.847656 11.203125 9.476562 11.835938 C 9.804688 12.167969 10.289062 12.386719 10.835938 12.449219 C 10.898438 12.457031 10.957031 12.4375 11.003906 12.398438 C 11.050781 12.359375 11.074219 12.296875 11.074219 12.238281 Z M 13.03125 11.847656 C 13.515625 11.433594 13.792969 10.816406 13.75 10.234375 C 13.675781 9.253906 12.78125 8.582031 11.980469 8.371094 C 11.878906 8.34375 11.773438 8.320312 11.65625 8.300781 C 11.59375 8.292969 11.53125 8.308594 11.480469 8.351562 C 11.433594 8.394531 11.40625 8.457031 11.40625 8.519531 L 11.5 12.214844 C 11.5 12.277344 11.53125 12.335938 11.578125 12.375 C 11.617188 12.40625 11.664062 12.421875 11.714844 12.421875 C 11.726562 12.421875 11.738281 12.421875 11.75 12.421875 C 12.25 12.332031 12.691406 12.132812 13.03125 11.847656 Z M 14.503906 23.140625 C 14.644531 22.476562 14.480469 21.714844 14.050781 21.054688 C 13.703125 20.523438 13.1875 20.03125 12.46875 19.5625 C 12.175781 19.371094 11.875 19.195312 11.617188 19.046875 C 11.550781 19.007812 11.464844 19.011719 11.398438 19.050781 C 11.332031 19.09375 11.292969 19.167969 11.296875 19.246094 C 11.359375 20.253906 11.523438 21.238281 11.789062 22.175781 C 11.960938 22.789062 12.210938 23.46875 12.75 23.875 C 12.941406 24.019531 13.21875 24.148438 13.5 24.148438 C 13.59375 24.148438 13.691406 24.132812 13.785156 24.101562 C 14.195312 23.957031 14.425781 23.511719 14.503906 23.140625 Z M 23.628906 10.25 C 23.988281 11.285156 24.109375 12.210938 23.984375 12.996094 C 23.703125 14.785156 22.59375 16.527344 20.871094 17.90625 C 19.398438 19.078125 17.59375 19.816406 15.84375 20.53125 L 15.726562 20.578125 C 15.636719 20.617188 15.582031 20.714844 15.597656 20.8125 C 15.761719 21.761719 15.707031 22.800781 15.429688 23.898438 C 15.417969 23.953125 15.402344 24.007812 15.386719 24.0625 C 15.28125 24.457031 15.105469 24.953125 14.722656 25.242188 C 14.449219 25.449219 14.058594 25.546875 13.667969 25.5 C 13.339844 25.464844 12.992188 25.332031 12.636719 25.109375 C 12.039062 24.726562 11.539062 24.164062 11.238281 23.519531 C 10.75 22.484375 10.757812 21.285156 10.761719 20.222656 L 10.769531 18.664062 C 10.769531 18.589844 10.734375 18.523438 10.671875 18.480469 C 10.566406 18.414062 10.445312 18.339844 10.3125 18.269531 C 10.214844 18.21875 10.121094 18.179688 10.019531 18.136719 C 9.855469 18.074219 9.703125 18.011719 9.5625 17.902344 C 9.253906 17.667969 8.910156 17.492188 8.546875 17.308594 C 8.269531 17.167969 7.980469 17.023438 7.722656 16.851562 C 7.039062 16.40625 6.527344 15.925781 6.15625 15.386719 C 5.644531 14.648438 5.367188 13.714844 5.34375 12.695312 C 5.335938 12.191406 5.382812 11.710938 5.484375 11.265625 C 5.589844 10.792969 5.871094 10.328125 6.132812 9.933594 C 6.996094 8.625 8.4375 7.722656 9.996094 7.519531 C 10.207031 7.492188 10.421875 7.480469 10.632812 7.480469 C 10.71875 7.480469 10.800781 7.480469 10.882812 7.484375 C 10.945312 7.488281 11 7.46875 11.039062 7.425781 C 11.082031 7.386719 11.105469 7.332031 11.109375 7.273438 L 11.109375 7.257812 C 11.113281 6.585938 11.117188 5.894531 10.960938 5.230469 C 10.710938 4.171875 9.71875 2.738281 8.382812 3.023438 C 7.988281 3.105469 7.640625 3.363281 7.453125 3.707031 C 7.417969 3.773438 7.417969 3.855469 7.460938 3.921875 C 7.5 3.988281 7.574219 4.027344 7.648438 4.023438 C 7.859375 4.015625 8.074219 4.082031 8.273438 4.21875 C 8.609375 4.449219 8.800781 4.8125 8.773438 5.167969 C 8.753906 5.488281 8.574219 5.796875 8.28125 6.011719 C 7.964844 6.25 7.558594 6.34375 7.203125 6.265625 C 6.523438 6.113281 6 5.402344 6.007812 4.652344 C 6.019531 3.957031 6.4375 3.277344 7.097656 2.875 C 7.824219 2.433594 8.636719 2.414062 9.191406 2.472656 C 9.6875 2.527344 10.15625 2.679688 10.484375 2.894531 C 10.875 3.148438 11.085938 3.726562 11.191406 4.164062 C 11.3125 4.671875 11.324219 5.199219 11.339844 5.710938 L 11.378906 7.363281 C 11.382812 7.464844 11.453125 7.550781 11.550781 7.570312 C 12.214844 7.703125 12.808594 7.988281 13.265625 8.390625 C 13.914062 8.960938 14.316406 9.804688 14.34375 10.640625 C 14.367188 11.511719 13.996094 12.363281 13.351562 12.910156 C 12.921875 13.273438 12.375 13.519531 11.71875 13.632812 C 11.613281 13.652344 11.539062 13.742188 11.539062 13.847656 L 11.605469 16.480469 C 11.609375 16.566406 11.660156 16.640625 11.738281 16.671875 C 12.601562 17.042969 13.507812 17.460938 14.234375 18.144531 C 14.6875 18.574219 15.042969 19.101562 15.292969 19.71875 C 15.3125 19.773438 15.359375 19.816406 15.414062 19.839844 C 15.46875 19.859375 15.53125 19.855469 15.585938 19.828125 C 16.949219 19.15625 18.253906 18.464844 19.257812 17.402344 C 19.351562 17.300781 19.445312 17.195312 19.535156 17.085938 C 20.121094 16.382812 20.601562 15.53125 20.992188 14.488281 C 21.160156 14.046875 21.308594 13.578125 21.449219 13.050781 C 21.566406 12.605469 21.539062 12.070312 21.488281 11.554688 C 21.425781 10.917969 21.234375 10.335938 20.933594 9.863281 C 20.597656 9.332031 20.113281 8.933594 19.574219 8.742188 C 19.019531 8.542969 18.394531 8.558594 17.851562 8.789062 C 17.453125 8.957031 17.105469 9.234375 16.84375 9.589844 C 16.796875 9.65625 16.792969 9.746094 16.832031 9.816406 C 16.871094 9.890625 16.953125 9.933594 17.035156 9.925781 L 17.0625 9.925781 C 17.636719 9.890625 18.214844 10.207031 18.503906 10.714844 C 18.789062 11.207031 18.789062 11.859375 18.503906 12.371094 C 18.226562 12.867188 17.695312 13.222656 17.117188 13.296875 C 16.726562 13.34375 16.351562 13.265625 16.0625 13.074219 C 15.632812 12.789062 15.433594 12.289062 15.34375 11.914062 C 15.15625 11.164062 15.230469 10.363281 15.542969 9.660156 C 15.847656 8.976562 16.386719 8.386719 17.054688 7.996094 C 17.617188 7.664062 18.316406 7.449219 18.925781 7.417969 C 19.726562 7.375 20.527344 7.617188 21.136719 7.828125 C 21.375 7.914062 21.566406 7.988281 21.738281 8.066406 C 21.992188 8.179688 22.203125 8.304688 22.386719 8.441406 C 22.925781 8.839844 23.355469 9.464844 23.628906 10.25 " fill-opacity="1" fill-rule="nonzero"/><g clip-path="url(#da91112e5c)"><path fill="#9259ba" d="M 9.480469 6.320312 C 9.5 6.023438 9.375 5.722656 9.148438 5.492188 C 9.050781 5.828125 8.839844 6.128906 8.539062 6.355469 C 8.121094 6.664062 7.585938 6.785156 7.109375 6.679688 C 6.804688 6.613281 6.523438 6.457031 6.289062 6.242188 C 6.328125 6.3125 6.367188 6.382812 6.414062 6.449219 C 6.597656 6.722656 6.820312 7.023438 7.085938 7.148438 C 7.671875 7.425781 8.355469 7.648438 8.972656 7.191406 C 9.269531 6.96875 9.457031 6.648438 9.480469 6.320312 Z M 9.058594 4.207031 C 9.445312 4.125 9.800781 4.191406 10.121094 4.347656 C 9.742188 3.761719 9.160156 3.296875 8.46875 3.441406 C 8.316406 3.472656 8.171875 3.546875 8.050781 3.644531 C 8.210938 3.691406 8.367188 3.765625 8.515625 3.867188 C 8.671875 3.972656 8.800781 4.105469 8.90625 4.246094 C 8.957031 4.230469 9.007812 4.21875 9.058594 4.207031 Z M 10.339844 19.164062 L 10.34375 18.78125 C 10.269531 18.738281 10.191406 18.691406 10.113281 18.648438 C 10.035156 18.609375 9.949219 18.570312 9.855469 18.535156 C 9.6875 18.464844 9.492188 18.382812 9.304688 18.242188 C 9.027344 18.03125 8.699219 17.867188 8.351562 17.691406 C 8.066406 17.542969 7.769531 17.394531 7.488281 17.210938 C 7.242188 17.046875 7.019531 16.882812 6.816406 16.714844 C 7.238281 17.1875 7.757812 17.628906 8.371094 18.03125 C 8.632812 18.203125 8.921875 18.347656 9.199219 18.488281 C 9.5625 18.671875 9.902344 18.847656 10.210938 19.078125 C 10.253906 19.109375 10.296875 19.136719 10.339844 19.164062 Z M 10.683594 7.050781 C 10.683594 6.472656 10.675781 5.878906 10.546875 5.328125 C 10.519531 5.226562 10.492188 5.125 10.453125 5.019531 C 10.09375 4.664062 9.644531 4.445312 9.132812 4.554688 C 9.117188 4.558594 9.105469 4.5625 9.089844 4.566406 C 9.160156 4.730469 9.195312 4.898438 9.203125 5.074219 C 9.625 5.382812 9.867188 5.863281 9.835938 6.34375 C 9.816406 6.644531 9.695312 6.929688 9.496094 7.171875 C 9.644531 7.140625 9.792969 7.117188 9.941406 7.097656 C 10.1875 7.0625 10.433594 7.050781 10.683594 7.050781 Z M 12.050781 7.257812 L 12.042969 6.859375 C 12.03125 6.34375 12.015625 5.8125 11.894531 5.304688 C 11.839844 5.082031 11.785156 4.902344 11.71875 4.75 C 11.75 5.070312 11.757812 5.390625 11.765625 5.703125 L 11.804688 7.1875 C 11.886719 7.207031 11.972656 7.230469 12.050781 7.257812 Z M 12.28125 16.441406 L 12.246094 14.996094 C 12.246094 14.976562 12.25 14.960938 12.253906 14.941406 L 11.980469 14.367188 L 12.03125 16.332031 C 12.113281 16.367188 12.195312 16.40625 12.28125 16.441406 Z M 15.015625 12.308594 C 14.980469 12.207031 14.949219 12.109375 14.929688 12.019531 C 14.824219 11.605469 14.792969 11.179688 14.832031 10.757812 C 14.808594 10.710938 14.789062 10.664062 14.769531 10.617188 C 14.769531 10.621094 14.769531 10.625 14.769531 10.628906 C 14.800781 11.628906 14.371094 12.605469 13.628906 13.238281 C 13.214844 13.589844 12.707031 13.839844 12.113281 13.984375 L 12.5 14.792969 C 13.113281 14.671875 13.632812 14.433594 14.042969 14.089844 C 14.570312 13.640625 14.914062 13 15.015625 12.308594 Z M 16.132812 25.054688 C 16.410156 23.953125 16.464844 22.910156 16.304688 21.953125 C 16.300781 21.945312 16.304688 21.9375 16.304688 21.929688 L 16.101562 21.453125 C 16.152344 22.257812 16.070312 23.113281 15.84375 24 C 15.832031 24.058594 15.816406 24.117188 15.800781 24.171875 C 15.671875 24.636719 15.46875 25.214844 14.984375 25.582031 C 14.679688 25.8125 14.28125 25.941406 13.859375 25.941406 C 13.78125 25.941406 13.699219 25.9375 13.621094 25.925781 C 13.226562 25.882812 12.820312 25.730469 12.410156 25.46875 C 12.382812 25.453125 12.355469 25.433594 12.328125 25.414062 C 12.597656 25.753906 12.921875 26.054688 13.289062 26.285156 C 13.644531 26.511719 14 26.644531 14.335938 26.683594 C 14.734375 26.730469 15.132812 26.632812 15.417969 26.417969 C 15.804688 26.121094 15.980469 25.621094 16.09375 25.21875 C 16.105469 25.164062 16.121094 25.109375 16.132812 25.054688 Z M 19.207031 13.535156 C 19.496094 13.011719 19.496094 12.351562 19.207031 11.84375 C 19.183594 11.804688 19.15625 11.769531 19.132812 11.734375 C 19.105469 12.027344 19.023438 12.316406 18.878906 12.578125 C 18.539062 13.191406 17.882812 13.628906 17.167969 13.71875 C 16.746094 13.773438 16.332031 13.703125 15.988281 13.523438 C 16.226562 13.839844 16.488281 14.105469 16.714844 14.253906 C 17.007812 14.449219 17.390625 14.527344 17.789062 14.480469 C 18.382812 14.40625 18.925781 14.042969 19.207031 13.535156 Z M 20.230469 9.921875 C 20.34375 9.960938 20.453125 10.015625 20.558594 10.070312 C 20.273438 9.632812 19.871094 9.300781 19.429688 9.144531 C 18.976562 8.980469 18.460938 8.996094 18.015625 9.183594 C 17.824219 9.261719 17.640625 9.378906 17.480469 9.523438 C 17.839844 9.589844 18.183594 9.757812 18.464844 10 C 18.488281 9.992188 18.511719 9.976562 18.535156 9.96875 C 19.070312 9.746094 19.6875 9.726562 20.230469 9.921875 Z M 21.035156 12.9375 C 21.136719 12.5625 21.109375 12.070312 21.0625 11.597656 C 21.03125 11.292969 20.96875 11.007812 20.878906 10.742188 C 20.652344 10.527344 20.390625 10.355469 20.109375 10.257812 C 19.667969 10.097656 19.164062 10.109375 18.722656 10.277344 C 18.777344 10.351562 18.828125 10.421875 18.875 10.5 C 18.996094 10.710938 19.074219 10.941406 19.113281 11.179688 C 19.269531 11.320312 19.410156 11.484375 19.515625 11.667969 C 19.863281 12.277344 19.867188 13.082031 19.515625 13.707031 C 19.179688 14.3125 18.535156 14.742188 17.835938 14.832031 C 17.351562 14.894531 16.882812 14.792969 16.519531 14.550781 C 16.132812 14.296875 15.800781 13.875 15.632812 13.648438 C 15.453125 13.394531 15.335938 13.128906 15.285156 12.871094 C 15.277344 12.855469 15.269531 12.84375 15.261719 12.832031 C 15.082031 13.421875 14.742188 13.960938 14.273438 14.359375 C 13.828125 14.738281 13.265625 15 12.605469 15.136719 L 12.640625 16.609375 C 13.296875 16.921875 13.964844 17.304688 14.527344 17.832031 C 14.972656 18.253906 15.332031 18.761719 15.597656 19.347656 C 16.851562 18.722656 18.039062 18.066406 18.945312 17.105469 C 19.035156 17.015625 19.121094 16.914062 19.207031 16.8125 C 19.761719 16.144531 20.214844 15.335938 20.59375 14.335938 C 20.753906 13.910156 20.898438 13.453125 21.035156 12.9375 Z M 23.984375 12.996094 C 24.109375 12.210938 23.988281 11.285156 23.628906 10.25 C 23.355469 9.464844 22.925781 8.839844 22.386719 8.441406 C 22.203125 8.304688 21.992188 8.179688 21.738281 8.066406 C 21.566406 7.988281 21.375 7.914062 21.136719 7.828125 C 20.527344 7.617188 19.726562 7.375 18.925781 7.417969 C 18.316406 7.449219 17.617188 7.664062 17.054688 7.996094 C 16.386719 8.386719 15.847656 8.976562 15.542969 9.660156 C 15.230469 10.363281 15.15625 11.164062 15.34375 11.914062 C 15.433594 12.289062 15.632812 12.789062 16.0625 13.074219 C 16.351562 13.265625 16.726562 13.34375 17.117188 13.296875 C 17.695312 13.222656 18.226562 12.867188 18.503906 12.371094 C 18.789062 11.859375 18.789062 11.207031 18.503906 10.714844 C 18.214844 10.207031 17.636719 9.890625 17.0625 9.925781 L 17.035156 9.925781 C 16.953125 9.933594 16.871094 9.890625 16.832031 9.816406 C 16.792969 9.746094 16.796875 9.65625 16.84375 9.589844 C 17.105469 9.234375 17.453125 8.957031 17.851562 8.789062 C 18.394531 8.558594 19.019531 8.542969 19.574219 8.742188 C 20.113281 8.933594 20.597656 9.332031 20.933594 9.863281 C 21.234375 10.335938 21.425781 10.917969 21.488281 11.554688 C 21.539062 12.070312 21.566406 12.605469 21.449219 13.050781 C 21.308594 13.578125 21.160156 14.046875 20.992188 14.488281 C 20.601562 15.53125 20.121094 16.382812 19.535156 17.085938 C 19.445312 17.195312 19.351562 17.300781 19.257812 17.402344 C 18.253906 18.464844 16.949219 19.15625 15.585938 19.828125 C 15.53125 19.855469 15.46875 19.859375 15.414062 19.839844 C 15.359375 19.816406 15.3125 19.773438 15.292969 19.71875 C 15.042969 19.101562 14.6875 18.574219 14.234375 18.144531 C 13.507812 17.460938 12.601562 17.042969 11.738281 16.671875 C 11.660156 16.640625 11.609375 16.566406 11.605469 16.480469 L 11.539062 13.847656 C 11.539062 13.742188 11.613281 13.652344 11.71875 13.632812 C 12.375 13.519531 12.921875 13.273438 13.351562 12.910156 C 13.996094 12.363281 14.367188 11.511719 14.34375 10.640625 C 14.316406 9.804688 13.914062 8.960938 13.265625 8.390625 C 12.808594 7.988281 12.214844 7.703125 11.550781 7.570312 C 11.453125 7.550781 11.382812 7.464844 11.378906 7.363281 L 11.339844 5.710938 C 11.324219 5.199219 11.3125 4.671875 11.191406 4.164062 C 11.085938 3.726562 10.875 3.148438 10.484375 2.894531 C 10.15625 2.679688 9.6875 2.527344 9.191406 2.472656 C 8.636719 2.414062 7.824219 2.433594 7.097656 2.875 C 6.4375 3.277344 6.019531 3.957031 6.007812 4.652344 C 6 5.402344 6.523438 6.113281 7.203125 6.265625 C 7.558594 6.34375 7.964844 6.25 8.28125 6.011719 C 8.574219 5.796875 8.753906 5.488281 8.773438 5.167969 C 8.800781 4.8125 8.609375 4.449219 8.273438 4.21875 C 8.074219 4.082031 7.859375 4.015625 7.648438 4.023438 C 7.574219 4.027344 7.5 3.988281 7.460938 3.921875 C 7.417969 3.855469 7.417969 3.773438 7.453125 3.707031 C 7.640625 3.363281 7.988281 3.105469 8.382812 3.023438 C 9.71875 2.738281 10.710938 4.171875 10.960938 5.230469 C 11.117188 5.894531 11.113281 6.585938 11.109375 7.257812 L 11.109375 7.273438 C 11.105469 7.332031 11.082031 7.386719 11.039062 7.425781 C 11 7.46875 10.945312 7.488281 10.882812 7.484375 C 10.800781 7.480469 10.71875 7.480469 10.632812 7.480469 C 10.421875 7.480469 10.207031 7.492188 9.996094 7.519531 C 8.4375 7.722656 6.996094 8.625 6.132812 9.933594 C 5.871094 10.328125 5.589844 10.792969 5.484375 11.265625 C 5.382812 11.710938 5.335938 12.191406 5.34375 12.695312 C 5.367188 13.714844 5.644531 14.648438 6.15625 15.386719 C 6.527344 15.925781 7.039062 16.40625 7.722656 16.851562 C 7.980469 17.023438 8.269531 17.167969 8.546875 17.308594 C 8.910156 17.492188 9.253906 17.667969 9.5625 17.902344 C 9.703125 18.011719 9.855469 18.074219 10.019531 18.136719 C 10.121094 18.179688 10.214844 18.21875 10.3125 18.269531 C 10.445312 18.339844 10.566406 18.414062 10.671875 18.480469 C 10.734375 18.523438 10.769531 18.589844 10.769531 18.664062 L 10.761719 20.222656 C 10.757812 21.285156 10.75 22.484375 11.238281 23.519531 C 11.539062 24.164062 12.039062 24.726562 12.636719 25.109375 C 12.992188 25.332031 13.339844 25.464844 13.667969 25.5 C 14.058594 25.546875 14.449219 25.449219 14.722656 25.242188 C 15.105469 24.953125 15.28125 24.457031 15.386719 24.0625 C 15.402344 24.007812 15.417969 23.953125 15.429688 23.898438 C 15.707031 22.800781 15.761719 21.761719 15.597656 20.8125 C 15.582031 20.714844 15.636719 20.617188 15.726562 20.578125 L 15.84375 20.53125 C 17.59375 19.816406 19.398438 19.078125 20.871094 17.90625 C 22.59375 16.527344 23.703125 14.785156 23.984375 12.996094 Z M 24.6875 14.148438 C 24.746094 13.792969 24.722656 13.449219 24.699219 13.082031 C 24.6875 12.921875 24.679688 12.753906 24.675781 12.585938 C 24.667969 12.328125 24.65625 12.105469 24.632812 11.898438 C 24.605469 11.691406 24.570312 11.503906 24.523438 11.324219 C 24.507812 11.269531 24.488281 11.214844 24.472656 11.160156 C 24.375 10.851562 24.242188 10.558594 24.085938 10.28125 C 24.425781 11.3125 24.535156 12.25 24.40625 13.0625 C 24.109375 14.957031 22.945312 16.796875 21.136719 18.242188 C 20.015625 19.132812 18.722656 19.777344 17.410156 20.34375 C 17.027344 20.550781 16.632812 20.75 16.238281 20.945312 C 16.226562 20.949219 16.214844 20.953125 16.199219 20.957031 L 16.523438 21.714844 L 16.527344 21.710938 C 18.277344 20.996094 20.089844 20.257812 21.558594 19.082031 C 23.292969 17.699219 24.402344 15.945312 24.6875 14.148438 Z M 25.054688 13.058594 C 25.078125 13.429688 25.101562 13.808594 25.039062 14.203125 C 24.742188 16.089844 23.585938 17.921875 21.78125 19.359375 C 20.273438 20.566406 18.445312 21.3125 16.675781 22.035156 C 16.820312 23 16.753906 24.046875 16.480469 25.140625 C 16.464844 25.199219 16.449219 25.253906 16.4375 25.3125 C 16.3125 25.769531 16.105469 26.339844 15.632812 26.703125 C 15.332031 26.929688 14.941406 27.050781 14.527344 27.050781 C 14.453125 27.050781 14.371094 27.046875 14.292969 27.039062 C 13.90625 26.992188 13.503906 26.84375 13.097656 26.585938 C 12.433594 26.167969 11.886719 25.546875 11.550781 24.835938 C 11.523438 24.777344 11.5 24.71875 11.476562 24.65625 C 11.226562 24.367188 11.011719 24.046875 10.851562 23.703125 C 10.324219 22.582031 10.328125 21.324219 10.335938 20.21875 L 10.335938 19.5625 C 10.226562 19.507812 10.109375 19.449219 9.996094 19.363281 C 9.714844 19.148438 9.386719 18.984375 9.039062 18.808594 C 8.753906 18.664062 8.457031 18.511719 8.175781 18.328125 C 6.527344 17.246094 5.519531 15.898438 5.179688 14.332031 C 5.019531 13.824219 4.929688 13.273438 4.917969 12.703125 C 4.90625 12.164062 4.957031 11.648438 5.066406 11.171875 C 5.191406 10.632812 5.492188 10.125 5.773438 9.699219 C 6.300781 8.898438 7.027344 8.242188 7.863281 7.78125 C 7.527344 7.730469 7.210938 7.601562 6.933594 7.46875 C 6.589844 7.308594 6.328125 6.960938 6.117188 6.644531 C 5.867188 6.273438 5.703125 5.875 5.632812 5.46875 L 5.628906 5.441406 C 5.601562 5.261719 5.589844 5.085938 5.597656 4.90625 C 5.585938 4.820312 5.578125 4.730469 5.582031 4.644531 C 5.59375 3.804688 6.089844 2.988281 6.875 2.507812 C 7.703125 2.003906 8.617188 1.980469 9.238281 2.046875 C 9.796875 2.109375 10.335938 2.285156 10.71875 2.535156 C 11.117188 2.796875 11.359375 3.269531 11.503906 3.707031 C 11.574219 3.804688 11.636719 3.910156 11.691406 4.019531 C 11.726562 4.089844 11.773438 4.152344 11.820312 4.222656 C 11.878906 4.300781 11.9375 4.378906 11.984375 4.472656 C 12.085938 4.675781 12.167969 4.914062 12.242188 5.21875 C 12.371094 5.765625 12.386719 6.320312 12.398438 6.851562 L 12.414062 7.382812 C 12.835938 7.554688 13.222656 7.785156 13.546875 8.070312 C 14.03125 8.5 14.394531 9.058594 14.59375 9.664062 C 14.71875 9.816406 14.832031 9.980469 14.929688 10.148438 C 14.984375 9.921875 15.058594 9.699219 15.152344 9.484375 C 15.496094 8.722656 16.09375 8.0625 16.839844 7.625 C 17.457031 7.265625 18.230469 7.023438 18.902344 6.988281 C 19.777344 6.945312 20.632812 7.199219 21.277344 7.425781 C 21.53125 7.515625 21.734375 7.59375 21.914062 7.675781 C 22.195312 7.804688 22.433594 7.941406 22.640625 8.097656 C 22.90625 8.292969 23.140625 8.535156 23.351562 8.816406 C 24.023438 9.398438 24.535156 10.179688 24.8125 11.050781 C 24.832031 11.113281 24.847656 11.171875 24.867188 11.230469 C 24.96875 11.621094 25.023438 12.035156 25.03125 12.578125 C 25.035156 12.738281 25.046875 12.902344 25.054688 13.058594 " fill-opacity="1" fill-rule="nonzero"/></g><path fill="#9259ba" d="M 12.199219 22.058594 C 12.203125 22.074219 12.207031 22.085938 12.210938 22.097656 C 12.105469 21.539062 12.035156 20.96875 12.003906 20.390625 C 12 20.367188 12.007812 20.34375 12.015625 20.316406 C 11.9375 20.207031 11.863281 20.09375 11.792969 19.976562 C 11.875 20.6875 12.007812 21.386719 12.199219 22.058594 Z M 13.121094 20.738281 C 13.242188 20.820312 13.355469 20.898438 13.464844 20.980469 C 13.164062 20.613281 12.757812 20.261719 12.234375 19.917969 C 12.160156 19.871094 12.085938 19.824219 12.011719 19.777344 C 12.105469 19.945312 12.210938 20.109375 12.328125 20.261719 C 12.574219 20.402344 12.847656 20.5625 13.121094 20.738281 Z M 14.085938 23.050781 C 14.160156 22.699219 14.128906 22.304688 14 21.921875 C 13.714844 21.617188 13.359375 21.324219 12.921875 21.039062 C 12.742188 20.917969 12.558594 20.808594 12.382812 20.703125 C 12.453125 21.566406 12.605469 22.410156 12.832031 23.21875 C 12.855469 23.292969 12.878906 23.367188 12.902344 23.441406 C 12.933594 23.472656 12.96875 23.503906 13.007812 23.535156 C 13.167969 23.65625 13.429688 23.769531 13.644531 23.695312 C 13.886719 23.613281 14.035156 23.296875 14.085938 23.050781 Z M 14.050781 21.054688 C 14.480469 21.714844 14.644531 22.476562 14.503906 23.140625 C 14.425781 23.511719 14.195312 23.957031 13.785156 24.101562 C 13.691406 24.132812 13.59375 24.148438 13.5 24.148438 C 13.21875 24.148438 12.941406 24.019531 12.75 23.875 C 12.210938 23.46875 11.960938 22.789062 11.789062 22.175781 C 11.523438 21.238281 11.359375 20.253906 11.296875 19.246094 C 11.292969 19.167969 11.332031 19.09375 11.398438 19.050781 C 11.464844 19.011719 11.550781 19.007812 11.617188 19.046875 C 11.875 19.195312 12.175781 19.371094 12.46875 19.5625 C 13.1875 20.03125 13.703125 20.523438 14.050781 21.054688 " fill-opacity="1" fill-rule="nonzero"/><path fill="#9259ba" d="M 12.167969 11.863281 L 12.113281 9.664062 C 12.113281 9.644531 12.117188 9.625 12.125 9.605469 L 11.851562 9.15625 L 11.921875 11.945312 C 12.007812 11.921875 12.089844 11.890625 12.167969 11.863281 Z M 12.640625 9.550781 C 12.820312 9.601562 13 9.671875 13.179688 9.761719 C 12.941406 9.296875 12.449219 8.964844 11.976562 8.816406 L 12.394531 9.5 C 12.480469 9.515625 12.5625 9.53125 12.640625 9.550781 Z M 12.753906 11.519531 C 13.136719 11.191406 13.355469 10.710938 13.324219 10.265625 C 13.082031 10.09375 12.8125 9.964844 12.550781 9.898438 C 12.527344 9.890625 12.5 9.886719 12.476562 9.878906 L 12.519531 11.6875 C 12.601562 11.632812 12.679688 11.582031 12.753906 11.519531 Z M 13.75 10.234375 C 13.792969 10.816406 13.515625 11.433594 13.03125 11.847656 C 12.691406 12.132812 12.25 12.332031 11.75 12.421875 C 11.738281 12.421875 11.726562 12.421875 11.714844 12.421875 C 11.664062 12.421875 11.617188 12.40625 11.578125 12.375 C 11.53125 12.335938 11.5 12.277344 11.5 12.214844 L 11.40625 8.519531 C 11.40625 8.457031 11.433594 8.394531 11.480469 8.351562 C 11.53125 8.308594 11.59375 8.292969 11.65625 8.300781 C 11.773438 8.320312 11.878906 8.34375 11.980469 8.371094 C 12.78125 8.582031 13.675781 9.253906 13.75 10.234375 " fill-opacity="1" fill-rule="nonzero"/><path fill="#9259ba" d="M 10.070312 10.507812 C 10.074219 10.355469 10.003906 10.1875 9.941406 10.050781 C 9.917969 9.996094 9.671875 9.695312 9.660156 9.695312 C 9.289062 10.195312 9.304688 10.941406 9.6875 11.429688 C 9.722656 11.171875 9.808594 10.921875 9.945312 10.710938 C 9.964844 10.675781 9.988281 10.644531 10.011719 10.617188 C 10.058594 10.554688 10.070312 10.539062 10.070312 10.507812 Z M 10.625 15.726562 L 10.628906 15.148438 C 10.417969 15.101562 10.226562 15.035156 10.046875 14.949219 C 9.585938 14.726562 9.1875 14.347656 8.917969 13.875 C 8.828125 13.710938 8.761719 13.542969 8.710938 13.378906 C 8.351562 13.035156 8.085938 12.585938 7.957031 12.101562 C 7.921875 12.195312 7.894531 12.289062 7.898438 12.355469 C 7.898438 12.453125 7.917969 12.578125 7.9375 12.695312 C 7.945312 12.765625 7.957031 12.824219 7.960938 12.878906 C 8.007812 13.246094 8.101562 13.609375 8.234375 13.960938 C 8.449219 14.25 8.691406 14.511719 8.964844 14.738281 C 9.464844 15.15625 10.066406 15.472656 10.625 15.726562 Z M 10.628906 14.785156 L 10.632812 14.125 C 10.140625 14.105469 9.722656 14.007812 9.359375 13.832031 C 9.335938 13.820312 9.3125 13.808594 9.285156 13.792969 C 9.515625 14.15625 9.835938 14.453125 10.199219 14.625 C 10.332031 14.691406 10.476562 14.742188 10.628906 14.785156 Z M 10.648438 11.984375 L 10.664062 9.910156 C 10.539062 9.9375 10.417969 9.964844 10.292969 9.992188 C 10.382812 10.179688 10.429688 10.355469 10.425781 10.511719 C 10.421875 10.667969 10.351562 10.761719 10.292969 10.835938 C 10.277344 10.855469 10.261719 10.878906 10.246094 10.902344 C 10.132812 11.082031 10.058594 11.292969 10.035156 11.515625 C 10.027344 11.589844 10.027344 11.660156 10.027344 11.734375 C 10.207031 11.847656 10.417969 11.933594 10.648438 11.984375 Z M 10.664062 9.546875 L 10.671875 8.691406 C 10.226562 8.726562 9.777344 8.8125 9.359375 8.902344 C 9.234375 8.933594 9.117188 8.957031 8.996094 8.988281 C 8.773438 9.074219 8.542969 9.171875 8.308594 9.285156 C 7.941406 9.539062 7.660156 9.976562 7.429688 10.65625 C 7.414062 10.703125 7.394531 10.753906 7.375 10.804688 C 7.324219 10.941406 7.261719 11.113281 7.261719 11.207031 C 7.261719 11.304688 7.28125 11.425781 7.300781 11.542969 C 7.3125 11.613281 7.320312 11.671875 7.328125 11.726562 C 7.371094 12.078125 7.460938 12.429688 7.585938 12.765625 C 7.585938 12.765625 7.585938 12.761719 7.585938 12.761719 C 7.5625 12.621094 7.542969 12.484375 7.539062 12.359375 C 7.539062 12.191406 7.613281 11.992188 7.675781 11.820312 C 7.695312 11.769531 7.710938 11.722656 7.726562 11.679688 C 7.769531 11.550781 7.816406 11.433594 7.863281 11.324219 C 7.890625 10.429688 8.359375 9.566406 9.109375 9.039062 C 9.226562 8.957031 9.386719 8.933594 9.519531 8.980469 C 9.695312 9.042969 9.695312 9.199219 9.8125 9.3125 C 9.882812 9.375 9.9375 9.449219 9.984375 9.527344 C 10.023438 9.574219 10.058594 9.621094 10.09375 9.671875 L 10.152344 9.660156 C 10.324219 9.621094 10.496094 9.582031 10.664062 9.546875 Z M 11.101562 8.46875 L 11.074219 12.238281 C 11.074219 12.296875 11.050781 12.359375 11.003906 12.398438 C 10.957031 12.4375 10.898438 12.457031 10.835938 12.449219 C 10.289062 12.386719 9.804688 12.167969 9.476562 11.835938 C 8.847656 11.203125 8.792969 10.082031 9.355469 9.390625 C 8.671875 9.871094 8.261719 10.671875 8.289062 11.484375 C 8.316406 12.308594 8.824219 13.097656 9.546875 13.449219 C 9.902344 13.617188 10.328125 13.703125 10.851562 13.703125 C 10.910156 13.703125 10.960938 13.726562 11.003906 13.765625 C 11.042969 13.808594 11.066406 13.863281 11.0625 13.917969 L 11.050781 16.058594 C 11.050781 16.128906 11.011719 16.195312 10.953125 16.234375 C 10.917969 16.257812 10.875 16.269531 10.835938 16.269531 C 10.804688 16.269531 10.777344 16.265625 10.75 16.25 C 10.085938 15.960938 9.320312 15.59375 8.691406 15.066406 C 8.046875 14.527344 7.535156 13.820312 7.21875 13.011719 C 7.0625 12.613281 6.957031 12.199219 6.902344 11.78125 C 6.894531 11.726562 6.890625 11.675781 6.878906 11.621094 C 6.859375 11.480469 6.835938 11.339844 6.835938 11.210938 C 6.832031 11.039062 6.90625 10.835938 6.972656 10.660156 C 6.992188 10.609375 7.007812 10.5625 7.023438 10.519531 C 7.300781 9.710938 7.652344 9.191406 8.128906 8.886719 C 8.464844 8.671875 8.859375 8.574219 9.265625 8.488281 C 9.777344 8.375 10.324219 8.269531 10.878906 8.253906 C 10.945312 8.253906 10.996094 8.277344 11.035156 8.316406 C 11.078125 8.355469 11.101562 8.414062 11.101562 8.46875 " fill-opacity="1" fill-rule="nonzero"/></svg>