<svg xmlns="http://www.w3.org/2000/svg" xmlns:xlink="http://www.w3.org/1999/xlink" width="40" zoomAndPan="magnify" viewBox="0 0 30 30.000001" height="40" preserveAspectRatio="xMidYMid meet" version="1.0"><defs><clipPath id="66913988a0"><path d="M 3.386719 2.902344 L 26.613281 2.902344 L 26.613281 26.128906 L 3.386719 26.128906 Z M 3.386719 2.902344 " clip-rule="nonzero"/></clipPath></defs><g clip-path="url(#66913988a0)"><path fill="#9259ba" d="M 8.546875 2.902344 L 21.445312 2.902344 C 21.785156 2.902344 22.121094 2.9375 22.453125 3.003906 C 22.785156 3.070312 23.109375 3.167969 23.421875 3.296875 C 23.734375 3.425781 24.03125 3.585938 24.3125 3.773438 C 24.59375 3.960938 24.855469 4.175781 25.09375 4.414062 C 25.335938 4.652344 25.546875 4.914062 25.738281 5.195312 C 25.925781 5.476562 26.082031 5.773438 26.214844 6.089844 C 26.34375 6.402344 26.441406 6.722656 26.507812 7.054688 C 26.574219 7.386719 26.605469 7.722656 26.605469 8.0625 L 26.605469 20.964844 C 26.605469 21.300781 26.574219 21.636719 26.507812 21.96875 C 26.441406 22.300781 26.34375 22.625 26.214844 22.9375 C 26.082031 23.25 25.925781 23.546875 25.738281 23.828125 C 25.546875 24.109375 25.335938 24.371094 25.09375 24.609375 C 24.855469 24.851562 24.59375 25.066406 24.3125 25.253906 C 24.03125 25.441406 23.734375 25.601562 23.421875 25.730469 C 23.109375 25.859375 22.785156 25.957031 22.453125 26.023438 C 22.121094 26.089844 21.785156 26.121094 21.445312 26.121094 L 8.546875 26.121094 C 8.207031 26.121094 7.871094 26.089844 7.539062 26.023438 C 7.207031 25.957031 6.886719 25.859375 6.570312 25.730469 C 6.257812 25.601562 5.960938 25.441406 5.679688 25.253906 C 5.398438 25.066406 5.136719 24.851562 4.898438 24.609375 C 4.660156 24.371094 4.445312 24.109375 4.257812 23.828125 C 4.066406 23.546875 3.910156 23.25 3.78125 22.9375 C 3.648438 22.625 3.550781 22.300781 3.484375 21.96875 C 3.421875 21.636719 3.386719 21.300781 3.386719 20.964844 L 3.386719 8.0625 C 3.386719 7.722656 3.421875 7.386719 3.484375 7.054688 C 3.550781 6.722656 3.648438 6.402344 3.78125 6.089844 C 3.910156 5.773438 4.066406 5.476562 4.257812 5.195312 C 4.445312 4.914062 4.660156 4.652344 4.898438 4.414062 C 5.136719 4.175781 5.398438 3.960938 5.679688 3.773438 C 5.960938 3.585938 6.257812 3.425781 6.570312 3.296875 C 6.886719 3.167969 7.207031 3.070312 7.539062 3.003906 C 7.871094 2.9375 8.207031 2.902344 8.546875 2.902344 Z M 8.546875 2.902344 " fill-opacity="1" fill-rule="nonzero"/></g><path fill="#ffffff" d="M 20.371094 16.960938 C 20.371094 16.898438 20.363281 16.839844 20.359375 16.785156 L 20.328125 6.914062 C 20.296875 6.78125 20.230469 6.667969 20.128906 6.578125 C 19.984375 6.460938 19.816406 6.410156 19.628906 6.4375 L 12.289062 7.914062 C 12.082031 7.945312 11.910156 8.039062 11.777344 8.199219 C 11.632812 8.371094 11.570312 8.570312 11.589844 8.792969 L 11.589844 17.550781 C 11.597656 17.707031 11.558594 17.84375 11.460938 17.964844 C 11.40625 18.03125 11.34375 18.082031 11.269531 18.121094 C 11.054688 18.242188 10.824219 18.3125 10.574219 18.328125 C 10.261719 18.367188 9.949219 18.425781 9.640625 18.503906 C 9.40625 18.558594 9.179688 18.644531 8.964844 18.753906 C 8.75 18.859375 8.558594 19 8.394531 19.175781 C 8.105469 19.523438 7.960938 19.921875 7.96875 20.375 C 7.976562 20.882812 8.15625 21.316406 8.507812 21.679688 C 9.085938 22.253906 9.855469 22.214844 10.160156 22.199219 C 10.273438 22.199219 11.300781 22.125 11.929688 21.347656 C 12.105469 21.117188 12.238281 20.867188 12.332031 20.59375 C 12.398438 20.40625 12.441406 20.210938 12.464844 20.011719 C 12.507812 19.519531 12.519531 19.027344 12.5 18.535156 C 12.5 18.40625 12.5 18.308594 12.488281 18.226562 C 12.488281 16.203125 12.488281 14.179688 12.488281 12.15625 C 12.464844 11.980469 12.503906 11.820312 12.609375 11.675781 C 12.691406 11.589844 12.789062 11.53125 12.90625 11.507812 L 19.015625 10.273438 C 19.117188 10.257812 19.210938 10.273438 19.296875 10.332031 C 19.363281 10.371094 19.410156 10.429688 19.441406 10.5 L 19.441406 15.679688 C 19.441406 15.808594 19.433594 15.9375 19.421875 16.0625 C 19.414062 16.179688 19.375 16.285156 19.308594 16.382812 C 19.28125 16.414062 19.25 16.441406 19.25 16.441406 C 19.207031 16.476562 19.164062 16.507812 19.117188 16.535156 C 18.902344 16.660156 18.671875 16.726562 18.421875 16.742188 C 18.109375 16.785156 17.796875 16.84375 17.488281 16.921875 C 17.253906 16.976562 17.027344 17.058594 16.8125 17.167969 C 16.597656 17.277344 16.410156 17.421875 16.246094 17.597656 C 15.957031 17.945312 15.816406 18.347656 15.820312 18.800781 C 15.828125 19.304688 16.007812 19.742188 16.363281 20.105469 C 16.941406 20.679688 17.710938 20.640625 18.015625 20.625 C 18.128906 20.625 19.15625 20.550781 19.785156 19.773438 C 19.957031 19.542969 20.09375 19.292969 20.1875 19.019531 C 20.253906 18.832031 20.296875 18.636719 20.316406 18.4375 C 20.375 17.949219 20.394531 17.457031 20.371094 16.960938 Z M 20.371094 16.960938 " fill-opacity="1" fill-rule="nonzero"/></svg>