<svg xmlns="http://www.w3.org/2000/svg" xmlns:xlink="http://www.w3.org/1999/xlink" width="40" zoomAndPan="magnify" viewBox="0 0 30 30.000001" height="40" preserveAspectRatio="xMidYMid meet" version="1.0"><defs><clipPath id="3b01b223b2"><path d="M 6.636719 4.0625 L 23.332031 4.0625 L 23.332031 25 L 6.636719 25 Z M 6.636719 4.0625 " clip-rule="nonzero"/></clipPath></defs><g clip-path="url(#3b01b223b2)"><path fill="#9259ba" d="M 23.183594 4.0625 L 10.957031 6.90625 L 10.957031 20.5 C 10.152344 20.195312 9.359375 20.226562 8.582031 20.597656 C 8.285156 20.691406 8.011719 20.839844 7.769531 21.035156 C 7.527344 21.234375 7.332031 21.46875 7.179688 21.742188 C 7.027344 22.019531 6.929688 22.308594 6.890625 22.621094 C 6.851562 22.929688 6.871094 23.238281 6.949219 23.542969 C 7.121094 23.804688 7.335938 24.027344 7.59375 24.207031 C 7.851562 24.386719 8.132812 24.507812 8.4375 24.578125 C 8.746094 24.648438 9.050781 24.660156 9.363281 24.613281 C 9.671875 24.5625 9.960938 24.457031 10.230469 24.296875 C 10.671875 24.125 11.046875 23.863281 11.355469 23.511719 C 11.664062 23.15625 11.875 22.75 11.980469 22.289062 C 11.996094 22.125 11.996094 21.957031 11.980469 21.792969 L 11.980469 9.75 L 22.132812 7.320312 L 22.132812 17.910156 C 21.328125 17.605469 20.535156 17.640625 19.757812 18.011719 C 19.464844 18.109375 19.199219 18.261719 18.964844 18.460938 C 18.730469 18.660156 18.539062 18.898438 18.394531 19.171875 C 18.246094 19.445312 18.15625 19.738281 18.125 20.042969 C 18.089844 20.351562 18.113281 20.65625 18.195312 20.953125 C 18.367188 21.214844 18.582031 21.433594 18.839844 21.613281 C 19.097656 21.792969 19.378906 21.917969 19.6875 21.988281 C 19.992188 22.058594 20.300781 22.066406 20.609375 22.019531 C 20.917969 21.972656 21.210938 21.867188 21.480469 21.707031 C 21.988281 21.519531 22.402344 21.203125 22.722656 20.765625 C 23.042969 20.324219 23.214844 19.832031 23.242188 19.289062 L 23.242188 7.121094 Z M 23.183594 4.0625 " fill-opacity="1" fill-rule="nonzero"/></g></svg>