<svg xmlns="http://www.w3.org/2000/svg" xmlns:xlink="http://www.w3.org/1999/xlink" width="40" zoomAndPan="magnify" viewBox="0 0 30 30.000001" height="40" preserveAspectRatio="xMidYMid meet" version="1.0"><defs><clipPath id="3da3f0eb86"><path d="M 3.390625 3.0625 L 26.609375 3.0625 L 26.609375 25.960938 L 3.390625 25.960938 Z M 3.390625 3.0625 " clip-rule="nonzero"/></clipPath></defs><g clip-path="url(#3da3f0eb86)"><path fill="#9259ba" d="M 21.921875 11.90625 C 22.097656 11.746094 22.371094 11.636719 22.710938 11.617188 C 22.800781 11.617188 22.878906 11.582031 22.957031 11.542969 C 23.140625 11.464844 23.300781 11.351562 23.449219 11.203125 L 23.515625 11.144531 C 23.570312 11.09375 23.632812 11.039062 23.707031 10.925781 C 23.800781 10.742188 23.742188 10.574219 23.722656 10.519531 C 23.714844 10.496094 23.707031 10.476562 23.695312 10.460938 L 23.597656 10.304688 C 23.542969 10.21875 23.484375 10.121094 23.421875 10.015625 C 23.410156 9.992188 23.394531 9.972656 23.378906 9.953125 C 23.335938 9.910156 23.234375 9.820312 23.144531 9.816406 C 22.882812 9.765625 22.585938 9.738281 22.285156 9.738281 C 21.746094 9.738281 21.269531 9.855469 20.835938 10.101562 C 20.8125 10.113281 20.792969 10.128906 20.773438 10.148438 C 20.730469 10.191406 20.683594 10.242188 20.636719 10.335938 C 20.457031 10.71875 20.207031 11.066406 19.871094 11.402344 C 19.808594 11.460938 19.742188 11.507812 19.648438 11.546875 C 19.410156 11.664062 19.203125 11.640625 18.960938 11.476562 C 18.910156 11.4375 18.902344 11.414062 18.898438 11.394531 C 18.828125 11.113281 18.90625 10.925781 19.152344 10.777344 C 19.648438 10.5 19.925781 10.074219 19.957031 9.539062 C 19.957031 9.5 19.984375 9.402344 19.996094 9.34375 C 20.027344 9.234375 20.183594 9.144531 20.324219 9.078125 C 20.410156 9.035156 20.492188 8.996094 20.605469 8.960938 C 20.976562 8.796875 21.117188 8.488281 21.003906 8.160156 C 20.953125 7.859375 20.703125 7.671875 20.539062 7.570312 C 20.464844 7.515625 20.425781 7.472656 20.421875 7.46875 C 20.308594 7.121094 20.386719 6.875 20.695312 6.621094 C 20.753906 6.5625 20.816406 6.523438 20.921875 6.445312 C 21.070312 6.296875 21.277344 6.15625 21.5625 6.003906 C 22 6.347656 22.355469 6.65625 22.660156 6.960938 C 23.15625 7.457031 23.589844 7.949219 23.945312 8.414062 C 25.195312 10.140625 25.824219 12.152344 25.824219 14.394531 C 25.824219 15.257812 25.746094 16.050781 25.589844 16.792969 C 25.535156 16.984375 25.480469 17.175781 25.464844 17.316406 C 25.449219 17.378906 25.429688 17.4375 25.410156 17.5 C 25.355469 17.578125 25.300781 17.660156 25.246094 17.746094 C 24.800781 18.359375 24.550781 18.492188 24.460938 18.496094 C 23.824219 18.53125 23.453125 18.023438 23.304688 17.328125 C 23.285156 17.25 23.253906 17.175781 23.226562 17.105469 L 23.183594 16.992188 C 23.136719 16.894531 23.082031 16.839844 23.046875 16.808594 C 23.03125 16.792969 23.015625 16.78125 23 16.769531 C 22.683594 16.570312 22.328125 16.492188 21.894531 16.523438 C 21.398438 16.550781 20.984375 16.542969 20.644531 16.503906 C 20.570312 16.488281 20.496094 16.480469 20.421875 16.472656 C 20.371094 16.46875 20.316406 16.464844 20.289062 16.457031 C 19.886719 16.347656 19.832031 16.125 19.832031 15.949219 C 19.832031 15.429688 19.808594 14.914062 19.785156 14.371094 C 19.785156 14.210938 19.8125 14.082031 19.859375 13.957031 C 20.1875 13.449219 20.582031 13 21.046875 12.605469 C 21.046875 12.605469 21.714844 12.089844 21.921875 11.90625 Z M 22.664062 11.015625 C 22.1875 11.15625 21.765625 11.210938 21.503906 11.472656 L 20.640625 12.164062 C 20.148438 12.582031 19.714844 13.074219 19.332031 13.675781 C 19.226562 13.914062 19.179688 14.128906 19.183594 14.421875 C 19.207031 14.933594 19.230469 15.4375 19.230469 15.949219 C 19.230469 16.492188 19.550781 16.878906 20.148438 17.042969 C 20.21875 17.058594 20.292969 17.066406 20.363281 17.074219 C 20.417969 17.078125 20.46875 17.082031 20.546875 17.097656 C 20.949219 17.144531 21.398438 17.15625 21.933594 17.125 C 22.226562 17.105469 22.445312 17.144531 22.640625 17.257812 C 22.648438 17.28125 22.660156 17.304688 22.667969 17.332031 C 22.6875 17.375 22.707031 17.425781 22.71875 17.460938 C 22.917969 18.402344 23.460938 19 24.363281 19.117188 C 24.363281 19.117188 24.496094 19.125 24.523438 19.117188 C 24.71875 19.078125 24.71875 19.054688 24.835938 18.992188 C 24.601562 19.488281 24.324219 19.96875 24.003906 20.4375 C 23.96875 20.480469 23.953125 20.515625 23.953125 20.515625 C 23.863281 20.632812 23.773438 20.753906 23.679688 20.878906 C 23.597656 20.992188 23.511719 21.109375 23.4375 21.207031 C 23.191406 21.5 22.917969 21.796875 22.660156 22.082031 C 22.613281 22.125 22.570312 22.175781 22.527344 22.226562 C 22.527344 22.226562 22.484375 22.222656 22.464844 22.222656 C 22.4375 22.222656 22.382812 22.238281 22.355469 22.25 C 21.9375 22.445312 21.804688 22.550781 21.480469 22.507812 C 21.453125 22.503906 21.320312 22.464844 21.050781 22.355469 C 20.730469 22.21875 20.464844 22.132812 20.234375 22.132812 C 19.523438 22.132812 19.039062 22.484375 18.792969 23.1875 C 18.71875 23.417969 18.6875 23.847656 18.664062 24.671875 C 17.515625 25.046875 16.3125 25.222656 15.011719 25.171875 C 14.214844 25.148438 13.460938 25.050781 12.792969 24.890625 C 12.738281 24.871094 12.671875 24.859375 12.601562 24.847656 C 12.582031 24.847656 12.5625 24.84375 12.527344 24.835938 L 12.4375 24.808594 C 12.28125 24.761719 12.136719 24.722656 12.035156 24.710938 C 10.273438 24.183594 8.738281 23.253906 7.335938 21.875 C 5.238281 19.828125 4.175781 17.308594 4.175781 14.394531 C 4.175781 13.023438 4.410156 11.738281 4.875 10.570312 C 5.046875 10.699219 5.234375 10.804688 5.441406 10.902344 C 5.464844 10.910156 5.480469 10.914062 5.484375 10.914062 C 5.582031 11.03125 5.636719 11.238281 5.636719 11.511719 C 5.65625 11.8125 5.582031 12.097656 5.402344 12.382812 C 5.390625 12.402344 5.382812 12.425781 5.375 12.449219 C 5.359375 12.488281 5.347656 12.539062 5.332031 12.585938 L 5.292969 12.71875 C 5.269531 12.808594 5.25 12.878906 5.222656 12.949219 C 5.144531 13.191406 5.089844 13.4375 5.058594 13.71875 C 5.058594 13.761719 5.058594 13.84375 5.042969 13.898438 C 4.824219 14.792969 4.964844 15.675781 5.4375 16.457031 C 5.480469 16.5625 5.550781 16.664062 5.648438 16.761719 L 5.875 16.980469 C 6.054688 17.160156 6.269531 17.363281 6.476562 17.585938 C 6.582031 17.71875 6.683594 17.820312 6.785156 17.925781 C 6.796875 17.9375 6.820312 17.960938 6.835938 17.96875 C 7.539062 18.484375 8.152344 19.511719 8.65625 21.027344 C 8.746094 21.304688 8.867188 21.546875 9.015625 21.773438 C 9.382812 22.328125 9.832031 22.757812 10.390625 23.09375 C 10.5625 23.191406 10.769531 23.269531 11.003906 23.269531 C 11.371094 23.269531 11.804688 23.085938 12.277344 22.527344 C 12.546875 22.203125 12.992188 21.675781 13.101562 21.570312 C 13.53125 21.402344 13.910156 21.25 14.167969 21.105469 C 14.308594 21.046875 14.421875 20.972656 14.527344 20.902344 L 14.675781 20.804688 C 14.972656 20.539062 15.125 20.261719 15.125 19.976562 C 15.125 19.304688 14.402344 18.953125 13.828125 18.738281 C 13.421875 18.625 12.863281 18.464844 12.621094 18.375 C 12.605469 18.359375 12.554688 18.3125 12.539062 18.300781 C 12.511719 18.285156 12.492188 18.265625 12.472656 18.25 C 12.421875 18.210938 12.375 18.175781 12.378906 18.1875 C 12.21875 18.0625 12.09375 17.894531 11.980469 17.679688 C 11.953125 17.597656 11.886719 17.441406 11.757812 17.3125 C 11.480469 17.035156 11.0625 17.03125 10.773438 17.046875 C 10.457031 17.070312 10.089844 17.054688 9.636719 17 C 9.292969 16.976562 8.890625 16.882812 8.445312 16.714844 C 8.058594 16.574219 7.773438 16.355469 7.59375 16.066406 C 7.398438 15.742188 7.238281 15.367188 7.125 14.929688 C 7.046875 14.6875 7.019531 14.339844 7.519531 13.8125 C 7.558594 13.761719 7.578125 13.738281 7.695312 13.78125 C 7.839844 13.828125 7.949219 13.90625 8.058594 14.035156 C 8.0625 14.042969 8.066406 14.046875 8.070312 14.050781 C 8.09375 14.355469 8.117188 14.640625 8.144531 14.929688 C 8.175781 15.089844 8.238281 15.222656 8.332031 15.332031 C 8.378906 15.441406 8.453125 15.535156 8.546875 15.601562 C 8.59375 15.652344 8.632812 15.691406 8.703125 15.785156 C 8.816406 15.902344 8.914062 15.949219 9.027344 15.984375 C 9.339844 16.082031 9.585938 16.058594 9.765625 15.921875 C 9.933594 15.789062 10.011719 15.570312 9.992188 15.296875 C 9.992188 15.164062 9.953125 15.023438 9.925781 14.949219 C 9.917969 14.925781 9.917969 14.894531 9.914062 14.859375 C 9.90625 14.804688 9.898438 14.75 9.875 14.644531 C 9.734375 14.246094 9.53125 13.949219 9.304688 13.78125 C 9.285156 13.765625 9.273438 13.75 9.257812 13.734375 C 9.242188 13.546875 9.246094 13.320312 9.265625 13.097656 C 9.285156 12.898438 9.339844 12.769531 9.453125 12.65625 C 9.488281 12.621094 9.523438 12.59375 9.550781 12.570312 C 9.589844 12.539062 9.625 12.507812 9.65625 12.480469 C 9.671875 12.464844 9.683594 12.445312 9.695312 12.425781 C 9.78125 12.292969 9.953125 12.175781 10.179688 12.085938 C 10.316406 12.058594 10.429688 12.03125 10.523438 12 C 11.320312 11.707031 12.027344 11.257812 12.664062 10.644531 C 12.859375 10.484375 12.976562 10.300781 13.019531 10.089844 C 13.140625 9.398438 12.898438 9.015625 12.683594 8.824219 C 12.558594 8.699219 12.40625 8.628906 12.207031 8.636719 C 11.84375 8.6875 11.453125 8.710938 11.042969 8.710938 C 10.960938 8.710938 10.882812 8.695312 10.773438 8.644531 C 10.695312 8.625 10.597656 8.398438 10.722656 8.242188 C 10.757812 8.191406 10.820312 8.140625 10.902344 8.113281 C 10.917969 8.105469 10.945312 8.121094 10.988281 8.136719 C 11.199219 8.203125 11.40625 8.273438 11.601562 8.347656 L 11.878906 8.425781 C 12.109375 8.492188 12.21875 8.515625 12.46875 8.410156 C 12.503906 8.394531 12.5625 8.359375 12.589844 8.335938 C 12.65625 8.265625 12.722656 8.207031 12.722656 8.109375 C 12.742188 7.855469 12.851562 7.804688 12.941406 7.777344 C 13.136719 7.734375 13.246094 7.742188 13.296875 7.761719 C 13.339844 7.855469 13.414062 7.949219 13.53125 8.0625 C 13.613281 8.117188 13.714844 8.183594 13.863281 8.230469 C 14.019531 8.261719 14.167969 8.261719 14.308594 8.261719 C 15.140625 8.300781 15.546875 7.898438 15.738281 7.558594 C 15.945312 7.191406 16.003906 6.855469 15.914062 6.554688 C 15.824219 6.269531 15.605469 6.035156 15.277344 5.875 C 14.917969 5.660156 14.496094 5.636719 13.964844 5.792969 C 13.941406 5.800781 13.921875 5.808594 13.902344 5.820312 C 13.746094 5.90625 13.574219 5.929688 13.351562 5.886719 C 13.347656 5.886719 13.34375 5.886719 13.339844 5.886719 C 13.21875 5.632812 12.917969 5.332031 12.132812 5.503906 C 12.128906 5.507812 12.046875 5.511719 12.039062 5.511719 C 11.191406 5.671875 10.902344 5.421875 10.769531 5.207031 C 10.769531 5.191406 10.769531 5.179688 10.769531 5.179688 C 10.753906 5.015625 10.757812 4.835938 10.769531 4.664062 C 12.058594 4.121094 13.480469 3.84375 15 3.84375 C 17.238281 3.84375 19.261719 4.441406 21.019531 5.617188 C 20.8125 5.746094 20.652344 5.867188 20.542969 5.984375 C 20.449219 6.042969 20.359375 6.105469 20.292969 6.171875 C 19.816406 6.554688 19.660156 7.066406 19.863281 7.695312 C 19.949219 7.867188 20.074219 7.976562 20.199219 8.066406 C 20.390625 8.1875 20.410156 8.25 20.421875 8.304688 C 20.433594 8.34375 20.4375 8.363281 20.4375 8.363281 C 20.433594 8.371094 20.421875 8.386719 20.410156 8.394531 C 20.28125 8.425781 20.160156 8.488281 20.058594 8.539062 C 19.710938 8.695312 19.496094 8.910156 19.414062 9.1875 C 19.386719 9.304688 19.355469 9.425781 19.355469 9.519531 C 19.335938 9.835938 19.175781 10.074219 18.851562 10.257812 C 18.371094 10.546875 18.179688 11 18.3125 11.539062 C 18.355469 11.710938 18.449219 11.84375 18.609375 11.964844 C 19.039062 12.261719 19.480469 12.304688 19.894531 12.097656 C 20.042969 12.035156 20.179688 11.945312 20.296875 11.828125 C 20.675781 11.449219 20.855469 10.988281 21.207031 10.628906 C 21.601562 10.222656 22.386719 10.015625 22.945312 10.390625 C 23.027344 10.445312 23.042969 10.472656 23.089844 10.542969 C 23.089844 10.542969 23.132812 10.628906 23.128906 10.683594 C 23.121094 10.769531 23.046875 10.820312 23.015625 10.847656 C 22.9375 10.914062 22.761719 10.988281 22.664062 11.015625 Z M 19.273438 24.445312 C 19.292969 23.941406 19.316406 23.527344 19.367188 23.382812 C 19.523438 22.929688 19.785156 22.734375 20.234375 22.734375 C 20.375 22.734375 20.621094 22.828125 20.816406 22.910156 C 21.292969 23.109375 21.417969 23.109375 21.460938 23.109375 C 21.484375 23.109375 21.511719 23.105469 21.542969 23.101562 C 20.816406 23.667969 20.058594 24.117188 19.273438 24.445312 Z M 11.800781 7.777344 C 11.609375 7.707031 11.394531 7.636719 11.125 7.546875 C 10.859375 7.46875 10.640625 7.527344 10.457031 7.660156 C 10.371094 7.722656 10.300781 7.761719 10.175781 7.949219 C 10.160156 7.96875 10.140625 8.046875 10.132812 8.070312 C 9.949219 8.957031 10.359375 9.160156 10.558594 9.207031 C 10.699219 9.277344 10.867188 9.3125 11.042969 9.3125 C 11.480469 9.3125 11.898438 9.289062 12.269531 9.261719 C 12.429688 9.40625 12.484375 9.652344 12.425781 9.980469 C 12.414062 10.042969 12.363281 10.113281 12.261719 10.195312 C 11.671875 10.765625 11.035156 11.171875 10.324219 11.429688 C 10.257812 11.453125 10.167969 11.472656 10.011719 11.511719 C 9.625 11.660156 9.371094 11.835938 9.210938 12.070312 C 9.199219 12.082031 9.183594 12.09375 9.171875 12.105469 C 9.125 12.140625 9.078125 12.179688 9.027344 12.230469 C 8.816406 12.441406 8.699219 12.699219 8.664062 13.042969 C 8.640625 13.335938 8.640625 13.632812 8.664062 13.84375 C 8.664062 13.996094 8.757812 14.089844 8.910156 14.234375 C 9.070312 14.355469 9.207031 14.566406 9.296875 14.804688 C 9.304688 14.851562 9.308594 14.894531 9.316406 14.929688 C 9.324219 15 9.332031 15.070312 9.355469 15.144531 C 9.378906 15.207031 9.390625 15.273438 9.390625 15.316406 C 9.394531 15.390625 9.390625 15.429688 9.390625 15.441406 C 9.371094 15.445312 9.3125 15.441406 9.210938 15.410156 C 9.175781 15.398438 9.167969 15.394531 9.167969 15.40625 C 9.105469 15.3125 9.046875 15.25 8.953125 15.160156 C 8.9375 15.144531 8.894531 15.089844 8.875 15.078125 C 8.863281 15.03125 8.835938 14.992188 8.804688 14.957031 C 8.769531 14.925781 8.75 14.878906 8.738281 14.84375 C 8.714844 14.570312 8.691406 14.269531 8.667969 13.96875 C 8.667969 13.828125 8.601562 13.695312 8.488281 13.613281 C 8.316406 13.417969 8.125 13.289062 7.882812 13.207031 C 7.464844 13.066406 7.203125 13.25 7.070312 13.410156 C 6.535156 13.976562 6.367188 14.53125 6.546875 15.097656 C 6.671875 15.578125 6.851562 16.007812 7.082031 16.382812 C 7.332031 16.789062 7.722656 17.09375 8.234375 17.28125 C 8.734375 17.464844 9.195312 17.574219 9.578125 17.597656 C 10.054688 17.65625 10.457031 17.675781 10.816406 17.648438 C 11.078125 17.632812 11.257812 17.660156 11.332031 17.738281 C 11.367188 17.773438 11.398438 17.832031 11.425781 17.910156 C 11.53125 18.121094 11.707031 18.425781 12.011719 18.664062 C 12.027344 18.675781 12.082031 18.71875 12.101562 18.726562 C 12.132812 18.75 12.164062 18.773438 12.15625 18.765625 L 12.234375 18.839844 C 12.261719 18.867188 12.296875 18.890625 12.332031 18.90625 C 12.351562 18.917969 12.371094 18.925781 12.390625 18.933594 C 12.585938 19.007812 12.980469 19.125 13.640625 19.308594 C 14.226562 19.53125 14.523438 19.757812 14.523438 19.976562 C 14.523438 20.078125 14.433594 20.210938 14.320312 20.320312 C 14.277344 20.34375 14.238281 20.371094 14.195312 20.402344 C 14.117188 20.453125 14.035156 20.507812 13.902344 20.566406 C 13.640625 20.707031 13.265625 20.859375 12.835938 21.023438 C 12.816406 21.03125 12.796875 21.042969 12.78125 21.054688 C 12.683594 21.117188 12.546875 21.269531 11.816406 22.140625 C 11.203125 22.867188 10.832031 22.652344 10.699219 22.574219 C 10.222656 22.289062 9.835938 21.917969 9.515625 21.4375 C 9.394531 21.257812 9.304688 21.066406 9.226562 20.835938 C 8.683594 19.203125 7.996094 18.074219 7.214844 17.5 C 7.125 17.410156 7.035156 17.324219 6.933594 17.195312 C 6.703125 16.945312 6.480469 16.734375 6.292969 16.550781 L 6.074219 16.335938 C 6.019531 16.28125 6.003906 16.242188 5.996094 16.226562 C 5.988281 16.207031 5.980469 16.183594 5.96875 16.164062 C 5.558594 15.507812 5.445312 14.792969 5.621094 14.066406 C 5.660156 13.945312 5.660156 13.8125 5.660156 13.753906 C 5.683594 13.546875 5.730469 13.339844 5.796875 13.140625 C 5.824219 13.058594 5.851562 12.976562 5.871094 12.886719 L 5.9375 12.667969 C 6.164062 12.285156 6.265625 11.882812 6.238281 11.492188 C 6.238281 11.082031 6.132812 10.746094 5.925781 10.5 C 5.824219 10.402344 5.71875 10.359375 5.660156 10.339844 C 5.46875 10.253906 5.292969 10.140625 5.121094 10.003906 C 5.640625 8.90625 6.363281 7.910156 7.339844 6.960938 C 8.1875 6.113281 9.128906 5.4375 10.15625 4.9375 C 10.15625 5.03125 10.160156 5.121094 10.167969 5.207031 C 10.167969 5.277344 10.167969 5.398438 10.246094 5.503906 C 10.585938 6.074219 11.226562 6.273438 12.09375 6.109375 C 12.152344 6.109375 12.238281 6.109375 12.335938 6.070312 C 12.746094 5.992188 12.792969 6.117188 12.8125 6.179688 C 12.839844 6.269531 12.949219 6.480469 13.234375 6.480469 C 13.238281 6.480469 13.242188 6.480469 13.242188 6.480469 C 13.582031 6.539062 13.894531 6.503906 14.164062 6.363281 C 14.515625 6.261719 14.769531 6.273438 14.992188 6.402344 C 15.183594 6.5 15.300781 6.609375 15.335938 6.734375 C 15.378906 6.867188 15.335938 7.042969 15.214844 7.261719 C 15.050781 7.550781 14.761719 7.683594 14.324219 7.660156 C 14.195312 7.660156 14.089844 7.660156 14.019531 7.652344 C 13.984375 7.636719 13.921875 7.597656 13.910156 7.597656 C 13.855469 7.542969 13.839844 7.507812 13.832031 7.488281 C 13.820312 7.453125 13.804688 7.421875 13.78125 7.394531 C 13.480469 7.035156 12.96875 7.152344 12.792969 7.195312 C 12.441406 7.289062 12.214844 7.539062 12.140625 7.921875 Z M 23.226562 22.621094 C 23.503906 22.316406 23.785156 22.011719 24.046875 21.695312 C 24.136719 21.582031 24.222656 21.464844 24.3125 21.34375 C 24.398438 21.226562 24.484375 21.109375 24.539062 21.03125 C 24.585938 20.988281 24.613281 20.941406 24.628906 20.914062 C 24.632812 20.910156 24.636719 20.90625 24.636719 20.898438 C 25.359375 19.84375 25.875 18.742188 26.226562 17.480469 C 26.25 17.324219 26.296875 17.164062 26.351562 16.980469 C 26.523438 16.160156 26.609375 15.3125 26.609375 14.394531 C 26.609375 11.984375 25.925781 9.820312 24.574219 7.949219 C 24.1875 7.4375 23.742188 6.933594 23.214844 6.40625 C 22.855469 6.050781 22.445312 5.695312 21.917969 5.292969 C 19.917969 3.8125 17.59375 3.0625 15 3.0625 C 13.324219 3.0625 11.757812 3.375 10.339844 3.996094 C 9.035156 4.542969 7.839844 5.355469 6.789062 6.402344 C 5.710938 7.457031 4.882812 8.617188 4.328125 9.851562 C 3.707031 11.222656 3.390625 12.753906 3.390625 14.394531 C 3.390625 17.527344 4.535156 20.234375 6.789062 22.4375 C 8.28125 23.90625 9.925781 24.894531 11.867188 25.476562 C 11.988281 25.492188 12.097656 25.523438 12.21875 25.558594 L 12.296875 25.582031 C 12.355469 25.601562 12.421875 25.613281 12.492188 25.625 C 12.511719 25.628906 12.535156 25.628906 12.578125 25.640625 C 13.328125 25.824219 14.136719 25.929688 14.984375 25.953125 C 15.132812 25.957031 15.277344 25.960938 15.421875 25.960938 C 15.421875 25.960938 15.421875 25.960938 15.425781 25.960938 C 16.695312 25.960938 17.925781 25.757812 19.085938 25.355469 C 20.46875 24.867188 21.824219 24.085938 22.988281 22.882812 C 23.050781 22.820312 23.226562 22.621094 23.226562 22.621094 " fill-opacity="1" fill-rule="nonzero"/></g></svg>