<svg xmlns="http://www.w3.org/2000/svg" xmlns:xlink="http://www.w3.org/1999/xlink" width="40" zoomAndPan="magnify" viewBox="0 0 30 30.000001" height="40" preserveAspectRatio="xMidYMid meet" version="1.0"><defs><clipPath id="5b281a2ca8"><path d="M 0.484375 0 L 29.515625 0 L 29.515625 29.03125 L 0.484375 29.03125 Z M 0.484375 0 " clip-rule="nonzero"/></clipPath><clipPath id="5fd7845a5c"><path d="M 3.386719 2.902344 L 26.613281 2.902344 L 26.613281 26.128906 L 3.386719 26.128906 Z M 3.386719 2.902344 " clip-rule="nonzero"/></clipPath></defs><g clip-path="url(#5b281a2ca8)"><path fill="#ffffff" d="M 0.484375 0 L 29.515625 0 L 29.515625 29.03125 L 0.484375 29.03125 Z M 0.484375 0 " fill-opacity="1" fill-rule="nonzero"/><path fill="#ffffff" d="M 0.484375 0 L 29.515625 0 L 29.515625 29.03125 L 0.484375 29.03125 Z M 0.484375 0 " fill-opacity="1" fill-rule="nonzero"/></g><g clip-path="url(#5fd7845a5c)"><path fill="#9259ba" d="M 23.777344 9.183594 C 23.65625 9.203125 23.535156 9.238281 23.355469 9.285156 C 23.445312 9.480469 23.5625 9.625 23.570312 9.777344 C 23.585938 9.976562 23.546875 10.195312 23.464844 10.375 C 23.4375 10.4375 23.210938 10.417969 23.074219 10.421875 C 23.03125 10.421875 22.96875 10.371094 22.941406 10.324219 C 22.765625 10.03125 22.597656 9.734375 22.433594 9.433594 C 22.40625 9.382812 22.359375 9.320312 22.371094 9.273438 C 22.464844 8.960938 22.3125 8.753906 22.082031 8.574219 C 22.054688 8.550781 22.027344 8.511719 22.019531 8.476562 C 21.996094 8.339844 21.980469 8.203125 21.957031 8.0625 C 22.066406 8.078125 22.175781 8.082031 22.28125 8.101562 C 22.257812 8.058594 22.234375 8.015625 22.207031 7.96875 C 22.179688 7.917969 22.132812 7.855469 22.148438 7.808594 C 22.238281 7.496094 22.085938 7.289062 21.855469 7.109375 C 21.828125 7.085938 21.800781 7.046875 21.792969 7.011719 C 21.769531 6.875 21.753906 6.734375 21.734375 6.597656 C 21.867188 6.613281 22.003906 6.621094 22.136719 6.648438 C 22.199219 6.664062 22.253906 6.710938 22.332031 6.757812 C 22.414062 6.609375 22.492188 6.46875 22.597656 6.269531 C 22.96875 6.691406 23.316406 7.078125 23.65625 7.476562 C 23.757812 7.597656 23.71875 7.6875 23.550781 7.714844 C 23.429688 7.738281 23.308594 7.773438 23.132812 7.816406 C 23.222656 8.015625 23.335938 8.160156 23.347656 8.3125 C 23.347656 8.316406 23.347656 8.324219 23.347656 8.328125 C 23.527344 8.535156 23.707031 8.738281 23.882812 8.941406 C 23.984375 9.066406 23.945312 9.15625 23.777344 9.183594 Z M 23.203125 16.753906 C 23.089844 17.121094 22.996094 17.5 22.816406 17.832031 C 22.644531 18.164062 22.375 18.441406 22.339844 18.847656 C 22.332031 18.949219 22.179688 19.050781 22.078125 19.132812 C 21.777344 19.367188 21.417969 19.546875 21.175781 19.832031 C 20.871094 20.179688 20.613281 20.546875 20.175781 20.746094 C 20.089844 20.785156 20.007812 20.914062 19.988281 21.015625 C 19.941406 21.289062 19.789062 21.375 19.53125 21.328125 C 19.371094 21.296875 19.207031 21.261719 19.042969 21.257812 C 18.632812 21.242188 18.417969 21.488281 18.390625 21.945312 C 18.378906 22.136719 18.359375 22.34375 18.273438 22.503906 C 18.214844 22.613281 18.035156 22.695312 17.902344 22.710938 C 17.832031 22.71875 17.722656 22.566406 17.667969 22.46875 C 17.546875 22.230469 17.472656 21.960938 17.324219 21.742188 C 17.105469 21.414062 17.167969 21.070312 17.179688 20.726562 C 17.203125 19.996094 17.160156 19.265625 16.957031 18.574219 C 16.890625 18.335938 16.523438 18.171875 16.28125 18 C 16.027344 17.820312 15.742188 17.683594 15.496094 17.496094 C 15.390625 17.417969 15.328125 17.265625 15.277344 17.132812 C 15.082031 16.636719 14.90625 16.132812 14.710938 15.636719 C 14.625 15.417969 14.582031 15.234375 14.742188 15.011719 C 14.933594 14.738281 15.074219 14.429688 15.203125 14.121094 C 15.253906 14.003906 15.234375 13.847656 15.207031 13.71875 C 15.121094 13.308594 15.320312 13 15.601562 12.765625 C 15.859375 12.554688 16.175781 12.40625 16.484375 12.257812 C 16.605469 12.199219 16.765625 12.222656 17.011719 12.199219 C 16.898438 12.480469 16.8125 12.675781 16.742188 12.871094 C 16.722656 12.933594 16.722656 13.042969 16.757812 13.078125 C 17.03125 13.335938 17.3125 13.597656 17.609375 13.828125 C 17.675781 13.875 17.851562 13.851562 17.933594 13.796875 C 18.34375 13.527344 18.933594 13.621094 19.199219 14.027344 C 19.335938 14.242188 19.53125 14.335938 19.765625 14.304688 C 20.378906 14.226562 20.617188 14.328125 20.839844 14.894531 C 20.9375 15.140625 21.082031 15.285156 21.304688 15.375 C 21.558594 15.476562 21.808594 15.589844 22.066406 15.667969 C 22.542969 15.808594 22.898438 16.082031 23.140625 16.507812 C 23.183594 16.582031 23.226562 16.6875 23.203125 16.753906 Z M 13.890625 9.292969 C 13.671875 9.546875 13.386719 9.742188 13.164062 9.992188 C 13 10.179688 12.882812 10.410156 12.742188 10.625 C 12.707031 10.679688 12.683594 10.757812 12.632812 10.796875 C 12.230469 11.09375 12.035156 11.527344 11.878906 11.984375 C 11.804688 12.203125 11.722656 12.425781 11.640625 12.660156 C 11.25 12.636719 11.1875 12.582031 11.089844 12.164062 C 10.941406 11.527344 10.339844 11.253906 9.773438 11.558594 C 9.695312 11.597656 9.613281 11.632812 9.53125 11.660156 C 9.175781 11.789062 8.941406 12.1875 9.058594 12.542969 C 9.296875 13.25 9.585938 13.914062 10.257812 14.355469 C 10.496094 14.511719 10.792969 14.726562 10.78125 15.152344 C 10.070312 14.855469 9.351562 14.65625 8.839844 14.058594 C 8.734375 13.933594 8.550781 13.867188 8.390625 13.800781 C 8.335938 13.777344 8.289062 13.753906 8.242188 13.730469 C 8.421875 13.933594 8.597656 14.136719 8.773438 14.339844 C 8.875 14.464844 8.835938 14.550781 8.667969 14.582031 C 8.546875 14.601562 8.429688 14.636719 8.25 14.679688 C 8.339844 14.878906 8.453125 15.023438 8.464844 15.175781 C 8.476562 15.375 8.4375 15.59375 8.355469 15.769531 C 8.328125 15.835938 8.101562 15.816406 7.964844 15.820312 C 7.921875 15.820312 7.859375 15.769531 7.832031 15.722656 C 7.660156 15.429688 7.492188 15.132812 7.324219 14.832031 C 7.296875 14.78125 7.25 14.71875 7.265625 14.671875 C 7.355469 14.359375 7.203125 14.152344 6.972656 13.972656 C 6.945312 13.949219 6.917969 13.910156 6.910156 13.875 C 6.886719 13.738281 6.871094 13.597656 6.851562 13.460938 C 6.957031 13.472656 7.066406 13.484375 7.175781 13.5 C 7.148438 13.457031 7.125 13.410156 7.101562 13.367188 C 7.070312 13.316406 7.023438 13.25 7.039062 13.207031 C 7.128906 12.894531 6.980469 12.6875 6.75 12.507812 C 6.71875 12.484375 6.695312 12.445312 6.6875 12.410156 C 6.660156 12.273438 6.644531 12.132812 6.625 11.996094 C 6.761719 12.011719 6.898438 12.019531 7.027344 12.046875 C 7.089844 12.0625 7.144531 12.109375 7.222656 12.15625 C 7.261719 12.085938 7.300781 12.015625 7.339844 11.945312 C 7.230469 11.695312 7.070312 11.476562 6.847656 11.289062 C 6.4375 10.945312 6.324219 10.5 6.550781 10.003906 C 6.792969 9.476562 7.054688 8.953125 7.328125 8.4375 C 7.574219 7.976562 7.585938 7.484375 7.605469 6.980469 C 7.609375 6.855469 7.652344 6.695312 7.738281 6.617188 C 7.960938 6.398438 8.203125 6.199219 8.460938 6.03125 C 8.714844 5.867188 8.980469 5.71875 9.261719 5.613281 C 9.566406 5.5 9.898438 5.363281 10.167969 5.71875 C 10.199219 5.761719 10.335938 5.761719 10.402344 5.738281 C 10.558594 5.675781 10.699219 5.589844 10.847656 5.511719 C 11.167969 5.335938 11.28125 5.394531 11.308594 5.835938 C 11.464844 5.777344 11.628906 5.761719 11.738281 5.671875 C 12.035156 5.433594 12.019531 5.425781 12.261719 5.695312 C 12.3125 5.753906 12.394531 5.789062 12.4375 5.746094 C 12.566406 5.636719 12.707031 5.535156 12.828125 5.414062 C 12.894531 5.347656 12.9375 5.257812 12.976562 5.171875 C 13.109375 4.902344 13.265625 4.679688 13.585938 4.585938 C 13.753906 4.539062 13.90625 4.402344 14.042969 4.28125 C 14.230469 4.121094 14.4375 4.058594 14.664062 4.144531 C 14.988281 4.265625 15.304688 4.410156 15.574219 4.523438 C 15.339844 4.769531 15.148438 5 14.925781 5.191406 C 14.707031 5.382812 14.460938 5.535156 14.21875 5.699219 C 14.15625 5.742188 14.058594 5.738281 14.007812 5.789062 C 13.6875 6.097656 13.339844 6.316406 12.851562 6.203125 C 12.835938 6.386719 12.824219 6.5 12.8125 6.648438 C 12.601562 6.648438 12.398438 6.632812 12.199219 6.652344 C 12.078125 6.664062 11.945312 6.703125 11.859375 6.777344 C 11.820312 6.808594 11.851562 7.03125 11.890625 7.042969 C 12.339844 7.179688 12.789062 7.394531 13.277344 7.203125 C 13.355469 7.167969 13.445312 7.054688 13.457031 6.96875 C 13.511719 6.460938 13.917969 6.183594 14.410156 6.300781 C 14.5625 6.335938 14.75 6.304688 14.898438 6.25 C 15.253906 6.113281 15.582031 5.910156 15.945312 5.8125 C 16.140625 5.757812 16.4375 5.804688 16.585938 5.925781 C 16.804688 6.101562 16.945312 6.371094 16.785156 6.707031 C 16.695312 6.886719 16.679688 7.113281 16.65625 7.320312 C 16.632812 7.550781 16.246094 7.890625 15.980469 7.886719 C 15.53125 7.886719 15.542969 7.886719 15.523438 8.328125 C 15.503906 8.734375 15.351562 9.054688 14.851562 9.011719 C 14.707031 9 14.558594 9.023438 14.414062 9.027344 C 14.195312 9.035156 14.039062 9.121094 13.890625 9.292969 Z M 10.148438 22.632812 C 9.933594 22.667969 9.738281 22.675781 9.613281 22.460938 C 9.554688 22.359375 9.507812 22.253906 9.449219 22.136719 C 8.800781 22.507812 7.980469 22.0625 7.953125 21.367188 C 7.949219 21.269531 8 21.164062 8.027344 21.066406 C 8.0625 20.945312 8.144531 20.816406 8.128906 20.707031 C 8.125 20.671875 8.117188 20.636719 8.117188 20.605469 C 7.894531 20.445312 7.738281 20.195312 7.726562 19.902344 C 7.722656 19.800781 7.773438 19.699219 7.804688 19.597656 C 7.835938 19.480469 7.917969 19.351562 7.902344 19.238281 C 7.855469 18.90625 7.90625 18.640625 8.207031 18.4375 C 8.25 18.410156 8.207031 18.179688 8.148438 18.082031 C 7.910156 17.6875 7.964844 17.46875 8.386719 17.246094 C 8.578125 17.140625 8.769531 17.027344 8.960938 16.910156 C 9.164062 16.789062 9.4375 16.847656 9.546875 17.101562 C 9.691406 17.4375 9.835938 17.789062 9.882812 18.148438 C 9.921875 18.46875 9.953125 18.785156 9.984375 19.105469 C 10.039062 19.273438 10.085938 19.445312 10.105469 19.617188 C 10.21875 20.503906 10.277344 21.394531 10.355469 22.285156 C 10.367188 22.445312 10.371094 22.597656 10.148438 22.632812 Z M 15.03125 2.910156 C 8.652344 2.90625 3.398438 8.09375 3.414062 14.46875 C 3.429688 20.96875 8.558594 26.03125 14.894531 26.082031 C 21.347656 26.132812 26.570312 20.921875 26.585938 14.480469 C 26.601562 8.164062 21.355469 2.914062 15.03125 2.910156 " fill-opacity="1" fill-rule="nonzero"/></g></svg>